<?xml version="1.0" standalone="no"?>
<!DOCTYPE svg PUBLIC "-//W3C//DTD SVG 1.1//EN" "http://www.w3.org/Graphics/SVG/1.1/DTD/svg11.dtd" >
<svg>
<metadata>
Created by FontForge 20120731 at Tue Dec 29 10:48:38 2020
 By ffonts
Copyright (c) by Attype Studio . All Rights reserved.
</metadata>
<defs>
<font id="GingerBiscuit-PersonalUse" horiz-adv-x="799" >
  <font-face 
    font-family="Ginger Biscuit - Personal Use"
    font-weight="400"
    font-stretch="normal"
    units-per-em="1175"
    panose-1="0 0 0 0 0 0 0 0 0 0"
    ascent="805"
    descent="-370"
    x-height="458"
    cap-height="771"
    bbox="-154.5 -360 1017 1040"
    underline-thickness="50"
    underline-position="-75"
    unicode-range="U+000D-2265"
  />
<missing-glyph horiz-adv-x="250" 
 />
    <glyph glyph-name=".notdef" horiz-adv-x="250" 
 />
    <glyph glyph-name=".null" horiz-adv-x="0" 
 />
    <glyph glyph-name=".null" horiz-adv-x="0" 
 />
    <glyph glyph-name="uni000D" unicode="&#xd;" horiz-adv-x="250" 
 />
    <glyph glyph-name="space" unicode=" " horiz-adv-x="250" 
 />
    <glyph glyph-name="T" unicode="T" horiz-adv-x="518" 
d="M173 340q1 22 1.5 44t2.5 45q1 17 -15 18t-34 2.5t-35.5 5t-33.5 10.5t-29 18q-16 13 -23 30t-5.5 33.5t12 31.5t29.5 24q11 6 24 8.5t26 3.5l40 2l40 2q9 0 12.5 3.5t5.5 11.5q5 41 22 77q12 21 31 39t45 18q17 0 29 -7.5t21 -19.5t15 -26.5t10 -28.5q2 -11 4.5 -23
t3.5 -23t6 -14t13 -4q18 -1 38 -4t39.5 -9.5t36 -17t27.5 -26.5q24 -34 13 -66t-51 -44q-17 -5 -34.5 -6t-34.5 -3h-22q-14 -1 -16.5 -3.5t-2.5 -17.5q1 -62 1 -123.5t-2 -123.5q-1 -22 -5 -54t-14.5 -62t-29 -51t-48.5 -21q-27 0 -46.5 20t-32 52t-19.5 71.5t-10.5 78.5
t-4 73.5t-0.5 55.5z" />
    <glyph glyph-name="H" unicode="H" horiz-adv-x="666" 
d="M415 450q3 6 3 12q0 2 -0.5 6t-0.5 12q-1 38 -1.5 58.5t-0.5 22.5q0 36 7 71q6 35 23 63q9 19 30 33.5t41 14.5q39 0 66 -45q16 -26 21.5 -54.5t7.5 -57.5q7 -77 7 -153q0 -5 -0.5 -48.5t-2.5 -126.5q-1 -31 -1.5 -62t-1.5 -62q-1 -23 -5.5 -45.5t-15 -40.5t-28 -29
t-44.5 -11t-43.5 15t-26.5 37t-14.5 47.5t-6.5 45.5q-2 27 -3 54t-3 53q0 8 -2 13t-12 6q-34 5 -67 5h-68q-8 -1 -10 -4.5t-2 -10.5q1 -20 1 -38v-39v-17q0 -27 -2.5 -57t-12.5 -65q-4 -12 -9.5 -25.5t-13.5 -24t-19.5 -17.5t-26.5 -7q-27 0 -46.5 18t-32.5 43.5t-20.5 54
t-10.5 49.5q-13 95 -15.5 156.5t-2.5 89.5q0 66 6 133q3 44 5.5 87t6.5 88q1 15 4.5 31t11 29.5t20 22t30.5 8.5q27 0 45 -13.5t30 -33.5t18.5 -44t9.5 -45q6 -41 9 -81t6 -81v-5l1 -7v-5v-2q0 -15 16 -15h2q51 0 102 -3q11 -2 21 -2.5t21 -1.5z" />
    <glyph glyph-name="E" unicode="E" horiz-adv-x="632" 
d="M330 -22q-20 1 -40 1q-16 0 -27.5 -0.5t-20.5 -0.5q-27 0 -54 4q-54 8 -87.5 39t-44.5 85q-5 19 -5 38t2 39q7 109 8.5 176t1.5 94q0 80 -5 162v18q0 14 1 31.5t6 39.5q8 29 24 42t45 15q56 3 109 3q27 0 54 -1t54 -3q34 -3 68 -3q5 0 27.5 0.5t62.5 4.5q8 1 17 1
q14 0 30 -3q34 -6 56.5 -30.5t22.5 -56.5q0 -15 -5.5 -29t-15.5 -26t-23.5 -21t-29.5 -13q-20 -5 -38.5 -5t-38.5 2q-15 2 -30.5 3t-31.5 1q-24 0 -50 -3q-13 -1 -25 -2l-17 1q-12 0 -25 -2q-17 -3 -27 -6.5t-15.5 -10.5t-6 -13.5t-0.5 -10.5q0 -9 1 -20q2 -6 2 -10
q3 -15 5.5 -24t8 -13t14.5 -4t25 2q8 2 15 2.5t14 2.5q10 2 19 2q12 0 27.5 -5t35.5 -15q16 -9 21 -29q8 -24 8 -49q0 -1 -0.5 -15t-7.5 -40q-11 -40 -52 -40h-2q-22 0 -39.5 3t-31.5 3q-9 0 -17 -1q-19 0 -35 -10q-15 -12 -15 -28v-2l8 -80q3 -18 19 -18h3h14q7 0 14 2
q99 12 199 12h8q28 0 53 -12q50 -23 52 -79v-4q0 -24 -13 -41.5t-36 -29.5q-24 -11 -53 -13q-48 -2 -86.5 -5t-68.5 -3q-18 0 -35 1z" />
    <glyph glyph-name="Q" unicode="Q" horiz-adv-x="683" 
d="M629 393q0 -33 0.5 -66t-0.5 -66q-3 -80 -35 -150q-7 -16 3 -32q14 -21 26.5 -42t23.5 -44q14 -29 22 -59.5t6 -63.5q-1 -16 -6 -31.5t-14 -28t-22 -20t-31 -7.5q-30 0 -56.5 20t-49 48.5t-40.5 60.5t-30 57q-5 9 -9.5 12.5t-15.5 1.5q-39 -6 -78 -6q-30 0 -60 3t-60 8
q-67 11 -100 68q-22 39 -42 78t-29 84q-2 8 -3 17t-2 17q-6 88 0.5 172.5t41.5 166.5q26 57 60 101.5t95 68.5q5 3 10 3q28 4 55.5 5.5t55.5 1.5q48 0 89 -4.5t75 -20t60.5 -45.5t44.5 -82q8 -23 11 -46.5t5 -46.5q2 -33 1.5 -66t-2.5 -67zM326 169v6q-10 20 -19.5 40.5
t-19.5 41.5q-8 15 -15.5 29.5t-12.5 31.5q-8 24 2 44.5t33 31.5q17 7 36 7q31 0 52 -16t41 -37q3 -3 5.5 -7.5t10.5 -2.5q2 21 3 42.5t3 42.5q3 34 -6.5 64t-27.5 59q-13 21 -37.5 36.5t-50.5 15.5q-23 0 -42 -19q-8 -7 -16 -23t-14.5 -33.5t-11.5 -34.5t-7 -28
q-9 -43 -14.5 -86t-3.5 -88q2 -17 5 -33t10 -32q5 -11 15.5 -22t24 -19.5t28.5 -11.5t29 1z" />
    <glyph glyph-name="O" unicode="O" horiz-adv-x="675" 
d="M635 382q-1 -19 -1 -43q0 -11 0.5 -19.5t0.5 -12.5q0 -34 -4 -69q-3 -29 -9.5 -58.5t-18 -57t-29.5 -51t-45 -39.5q-43 -26 -87.5 -40.5t-92.5 -14.5h-6q-35 1 -70 2.5t-70 8.5q-26 5 -48 17t-37 35q-20 31 -36.5 60.5t-28.5 60t-18.5 63t-6.5 69.5v31q0 62 7 130.5
t40 141.5q25 57 59 99.5t94 66.5q6 2 10 2q29 3 57 5t57 2q49 0 90.5 -5t75.5 -21.5t59.5 -48.5t42.5 -85q8 -26 11 -53.5t3 -54.5q1 -27 1 -55v-66zM216 322q0 -24 3.5 -51.5t14.5 -50.5t30.5 -38t50.5 -15q25 0 45 10.5t35 27t25.5 38t14.5 43.5q8 34 9.5 68t4.5 68
q1 10 1 19q0 26 -9.5 53.5t-29.5 56.5q-14 21 -34.5 32t-44.5 15q-3 1 -7 1q-14 0 -28 -10q-22 -15 -37 -49.5t-24 -75t-13.5 -79.5t-6.5 -63z" />
    <glyph glyph-name="U" unicode="U" horiz-adv-x="664" 
d="M247 456q0 -39 -0.5 -65.5t-0.5 -39.5q0 -26 1 -52q0 -19 2.5 -47t11 -54.5t24.5 -45.5t43 -19q24 0 39.5 17t25 40.5t13.5 49t6 43.5q1 16 1 31t-1.5 37.5t-6.5 53.5q-3 20 -5 39.5t-3 39.5q-1 31 -2 60v18q-1 29 -2 60q0 23 4 47.5t14 45.5t28.5 34.5t46.5 13.5
q38 0 67.5 -21.5t43.5 -56.5q8 -17 10.5 -35t4.5 -36q4 -36 4 -73q0 -14 -1.5 -47t-4.5 -84q-1 -26 -1 -52q0 -25 1 -51q5 -55 5 -112q0 -35 -2 -70q-2 -27 -13.5 -49.5t-30.5 -40.5q-96 -96 -221 -96q-36 0 -74.5 7.5t-71.5 21.5q-48 19 -76.5 57t-43.5 85t-19.5 98
t-4.5 96q-1 49 -5 96.5t-9 95.5q-2 22 -2 44q0 72 25 143q12 33 37.5 57t62.5 24q24 0 39.5 -13t24.5 -32.5t12 -41.5t3 -41q1 -30 1 -60q0 -15 -0.5 -45t-0.5 -75h1z" />
    <glyph glyph-name="I" unicode="I" horiz-adv-x="419" 
d="M158 770q7 1 16 1q5 0 14.5 -0.5t24.5 -2.5q18 -3 36 -3q3 0 14.5 0.5t32.5 2.5q7 1 14 1t16.5 -1t23.5 -5q15 -3 23 -14q9 -11 15 -26t7 -25t1 -14q0 -12 -4 -25.5t-15 -26.5q-11 -14 -24.5 -24.5t-30.5 -16.5q-14 -4 -14 -18v-2q1 -29 1 -58q0 -15 -0.5 -43.5
t-2.5 -73.5q-1 -17 -1 -34q0 -25 2.5 -58t4.5 -75q0 -8 1 -13t1 -9t-1 -8v-6q0 -12 4 -21t24 -15q18 -6 31.5 -22t20 -35t6.5 -38q0 -3 -0.5 -15t-10.5 -29q-12 -20 -30 -29.5t-38 -9.5h-4h-13q-62 0 -123 -9q-8 -1 -16 -1t-20 1.5t-29 5.5q-19 4 -35 16t-27 28.5t-15 32.5
t-4 28q0 7 1 14q4 26 28 45.5t50 19.5q15 0 15 14v3q-2 26 -2.5 52.5t-2.5 52.5q-7 68 -9 135t-5 134q-1 7 -1 13v12q0 15 -15 19q-7 2 -13.5 5.5t-13.5 7.5q-37 20 -37 61q0 5 1 10q4 37 23.5 60.5t57.5 28.5q11 1 21.5 1t25.5 1z" />
    <glyph glyph-name="C" unicode="C" horiz-adv-x="653" 
d="M22 372q2 134 62 249q29 56 73 92.5t107 50.5q38 8 76.5 14.5t78.5 7.5q11 0 22.5 -0.5t22.5 -1.5q24 -3 52.5 -15.5t55 -31.5t48 -41.5t31.5 -44.5q11 -22 11 -44q0 -1 -0.5 -13t-8.5 -35q-8 -25 -32 -38.5t-50 -13.5h-7q-37 2 -66.5 17t-48.5 49q-3 5 -6.5 8t-8.5 5
q-25 9 -50 9q-31 0 -58.5 -15.5t-48 -40t-34 -54t-17.5 -57.5q-5 -35 -5.5 -53.5t-0.5 -22.5q0 -30 8 -62q8 -31 25 -54t38.5 -38.5t45 -23.5t43.5 -10q7 -1 14 -1q11 0 25 2.5t30 12.5q33 19 71 24q6 1 12 1q16 0 33 -6.5t31 -21.5t19.5 -31t5.5 -30q0 -8 -2 -16
q-6 -30 -33 -48q-55 -37 -115 -54.5t-125 -19.5h-9q-97 0 -175 66q-53 45 -83 101t-46 122q-11 51 -11 99v8z" />
    <glyph glyph-name="K" unicode="K" horiz-adv-x="601" 
d="M278 465q5 10 10 19l6 13q5 9 10 19q12 25 30 59t41.5 64.5t52 51.5t61.5 21q29 0 49 -16t22 -45v-8q0 -10 -2 -20.5t-7 -22.5q-7 -20 -16 -38.5t-19 -36.5q-40 -67 -75 -138q-5 -10 -5.5 -14t-0.5 -5q0 -7 5 -16q25 -48 51.5 -94t57.5 -91q14 -19 24.5 -39t16.5 -43
q2 -5 3 -9.5t1 -9.5q1 -8 1 -15q0 -14 -5 -29.5t-17.5 -27.5t-27 -16t-25.5 -4q-10 0 -20 2q-23 4 -42 15.5t-34 27t-27.5 35t-22.5 38.5q-11 21 -20.5 42.5t-19.5 42.5q-2 5 -4 10.5t-9 9.5q-11 -11 -20.5 -23t-21.5 -22q-5 -4 -5.5 -9.5t-0.5 -10.5q-2 -23 -4.5 -46
t-8.5 -46l-4 -12q-2 -6 -4 -11q-11 -23 -29.5 -35.5t-40.5 -12.5q-18 0 -34 8.5t-29 21t-23 28.5t-17 31q-15 33 -21.5 67.5t-7.5 70.5q-1 26 -1 52q0 13 0.5 38.5t2.5 64.5q2 57 3 114.5t3 115.5q0 32 6 68t23 64q15 26 35.5 35.5t44.5 9.5h9q26 -2 45.5 -15.5t30.5 -36.5
q16 -35 21 -66t5 -58q0 -10 -1 -20q-2 -24 -3 -43t-1 -34v-20h5z" />
    <glyph glyph-name="P" unicode="P" horiz-adv-x="622" 
d="M268 323q-7 -75 -6 -147q1 -20 1.5 -40.5t-0.5 -41.5q-1 -18 -6.5 -36.5t-15 -33.5t-24.5 -24.5t-36 -9.5q-30 0 -53 16.5t-39.5 41t-25.5 54t-10 54.5q-2 71 -2.5 141t4.5 141q2 38 5 76t1 76q-1 46 6 91q6 40 31.5 61t57.5 21t60 -21q8 -6 14 -6q4 0 14 4q66 29 130 29
q65 0 132 -28q56 -23 86.5 -66.5t39.5 -103.5q10 -65 -21 -120q-6 -11 -12 -21t-11 -21q-15 -30 -38 -48.5t-51.5 -29t-59.5 -14t-61 -4.5q-27 -1 -54 0.5t-56 9.5zM368 492q13 9 17.5 20t2.5 21.5t-9 20t-17 13.5q-9 5 -18.5 6.5t-18.5 1.5q-19 0 -36 -7q-17 -6 -16 -25
q1 -13 1.5 -26t0.5 -26q0 -17 17 -17q24 0 39.5 2.5t36.5 15.5z" />
    <glyph glyph-name="B" unicode="B" horiz-adv-x="673" 
d="M50 359q3 72 6.5 126.5t3.5 106.5q-2 50 7 96q6 34 30.5 54.5t56.5 20.5q31 0 58 -20q5 -3 9 -5t9 -2t15 5q22 12 46 17.5t50 7.5q54 3 105.5 -6.5t99.5 -41.5q29 -19 50 -52.5t30.5 -72.5t5.5 -78.5t-26 -70.5q-7 -9 -11.5 -19.5t-10.5 -19.5t-5 -16t7 -15
q32 -46 44 -97t7 -105q-4 -43 -26.5 -78.5t-56.5 -60.5t-75 -38.5t-82 -13.5q-55 0 -112 24q-4 2 -7.5 3.5t-7.5 3.5q-7 3 -12.5 9.5t-13.5 4.5q-5 -2 -9.5 -7.5t-9.5 -10.5q-20 -17 -44 -17q-28 0 -51 14.5t-39.5 36.5t-26 48.5t-11.5 51.5q-5 61 -4.5 118t1.5 99zM273 521
h1q0 -7 -0.5 -14t0.5 -14q0 -12 3 -15t16 -4q37 -4 71 17q11 7 18 16t5 22q-3 29 -30 40q-14 5 -27 5.5t-27 -1.5q-19 -4 -24.5 -11t-5.5 -26v-15zM260 202q0 -12 1 -18.5t4 -10t9.5 -5t18.5 -3.5q5 -1 9.5 -1h9.5q17 0 33 11q17 13 15 31t-21 28q-11 5 -22 6t-22 0
q-23 -2 -29 -9t-6 -29z" />
    <glyph glyph-name="R" unicode="R" horiz-adv-x="634" 
d="M438 317q0 -8 4 -13l8 -10q23 -33 46.5 -66t46.5 -67q11 -18 23 -42.5t12 -46.5q1 -39 -25.5 -60t-64.5 -12q-40 11 -68.5 41.5t-50.5 63.5q-24 38 -47 75.5t-43 77.5q-2 5 -4 9t-6 7q-6 -2 -5.5 -6t0.5 -8q-2 -31 -1.5 -61.5t1.5 -61.5q0 -20 -1 -38.5t-6 -38.5
q-9 -34 -30.5 -52t-47.5 -18q-33 0 -64 28q-30 26 -44.5 61t-16.5 74q-4 70 -3.5 139.5t4.5 140.5q2 39 5 78.5t1 78.5q0 25 2 55t11 56.5t28 44t53 17.5q15 0 30.5 -5t30.5 -16q7 -5 12.5 -6.5t13.5 3.5q23 13 48.5 19t52.5 8q44 2 86.5 -3t83.5 -25q53 -26 81.5 -68
t38.5 -99q5 -33 -0.5 -62.5t-21.5 -57.5q-5 -9 -10 -17.5t-9 -17.5q-18 -40 -48.5 -62t-71.5 -30q-8 -2 -16.5 -3.5t-17.5 -3.5zM274 526q1 -11 1 -18.5t1 -14.5q1 -12 4 -15t15 -4q39 -4 71 17q11 7 17.5 16t4.5 23q-3 27 -28 38q-26 11 -56 5q-19 -4 -25 -11.5t-5 -26.5
v-9z" />
    <glyph glyph-name="W" unicode="W" horiz-adv-x="1031" 
d="M978 467q-4 -61 0 -121.5t9 -120.5q5 -48 -7.5 -91t-36.5 -85q-16 -27 -36.5 -43.5t-44 -25.5t-50 -12t-55.5 -3q-36 0 -71 6t-70 20q-7 3 -13 7t-13 8q-8 6 -16 11.5t-18 8.5q-7 2 -13 3t-13 1q-18 0 -31 -12q-35 -32 -77 -46t-88 -17q-28 -2 -55 0t-54 6
q-46 7 -78 34.5t-53 65.5t-31.5 82.5t-12.5 84.5q-2 49 -0.5 97.5t-1.5 97.5q-2 37 -1.5 73.5t2.5 73.5q1 22 8 51t20.5 54.5t34 43t48.5 17.5q22 0 37 -9.5t25 -25t15.5 -34.5t6.5 -37q5 -62 7.5 -122.5t-0.5 -122.5q-1 -30 1 -60t8 -59q3 -15 9 -32t16 -32t23.5 -25
t31.5 -10q21 0 36 12.5t24 30.5t13.5 39t5.5 38v30t-2 30q-4 27 2 57q8 39 38.5 63t70.5 21q27 -1 44.5 -15.5t28 -35t15.5 -44.5t7 -46q2 -17 3.5 -34.5t-0.5 -35.5q-5 -31 9 -49t40 -18q27 0 44 12t27 30.5t14 41t4 44.5q2 48 3 94t3 93q1 19 2.5 43.5t5.5 49t11 47.5
t18 39q15 23 34.5 33.5t39.5 10.5q24 0 42.5 -12.5t30.5 -31t18.5 -41t6.5 -43.5q1 -29 0.5 -57.5t-1.5 -57.5v-38z" />
    <glyph glyph-name="N" unicode="N" horiz-adv-x="661" 
d="M265 288q2 -48 3 -91.5t3 -87.5q1 -16 0 -31.5t-7 -30.5q-19 -48 -67 -57q-23 -4 -50 -1q-23 3 -38 16t-24.5 31t-14 39.5t-6.5 40.5q-5 41 -5.5 80.5t-0.5 79.5q0 47 -0.5 93t-3.5 92q-2 37 -3 73t3 72q2 22 10 47.5t22 48t34 37.5t46 15q29 0 53 -21q29 -27 55 -57.5
t45 -66.5l34 -64l34 -64q3 -5 6 -11t10 -11q2 20 -1.5 36t-5.5 33q-4 37 -4 73.5t11 72.5q6 23 16 39q16 28 40 39.5t54 9.5q33 -3 51.5 -21t28 -44.5t12 -56t3.5 -55.5q1 -73 1 -145t-4 -145q-2 -38 -2 -77t4 -78q2 -16 0.5 -32t-4.5 -32q-8 -35 -34.5 -56t-60.5 -21
q-15 0 -30.5 4.5t-26.5 14.5q-20 20 -38.5 40t-34.5 43q-26 39 -48.5 79.5t-45.5 81.5q-3 6 -6.5 12.5t-12.5 13.5z" />
    <glyph glyph-name="M" unicode="M" horiz-adv-x="726" 
d="M362 493q8 5 10.5 10.5t5.5 10.5q17 31 34 61.5t36 59.5q17 25 35.5 47t38.5 44q26 27 60 27q22 0 39.5 -10t30 -26.5t20 -36.5t8.5 -40q2 -34 0 -67t-3 -66q-2 -87 -6.5 -172t0.5 -172q2 -23 -2.5 -45t-9.5 -44q-8 -30 -29.5 -49t-49.5 -21q-33 -2 -56.5 13.5
t-39.5 42.5q-8 13 -11 26.5t-5 28.5q-2 24 -2.5 48.5t1.5 48.5q1 14 0.5 28.5t-0.5 29.5q-7 1 -9 -3t-4 -7q-17 -23 -37.5 -41.5t-52.5 -18.5q-28 0 -49 16t-36 38q-7 9 -15 19q-5 -8 -4.5 -15t1.5 -13q0 -34 1 -67t-3 -66q-2 -21 -10 -40.5t-21 -34.5t-31.5 -24t-41.5 -9
q-29 0 -52.5 18t-33.5 52q-6 23 -10 45.5t-2 45.5q5 85 0.5 168.5t-6.5 168.5q-1 28 -2 55.5t-2 54.5q0 33 7.5 63t33.5 54q27 24 57 24q37 0 66 -32q47 -51 82.5 -109t68.5 -119z" />
    <glyph glyph-name="F" unicode="F" horiz-adv-x="558" 
d="M291 756q38 -1 72 0.5t69 4.5q62 4 125 -3q35 -5 54.5 -27t17.5 -54q-2 -37 -20.5 -60.5t-56.5 -28.5q-23 -2 -46 -3.5t-46 -1.5q-35 0 -70 3q-21 2 -42 3t-43 -1q-44 -3 -47 -47v-12.5t2 -12.5q4 -32 15.5 -42.5t43.5 -9.5q18 1 35.5 1.5t34.5 1.5q54 1 77 -50
q22 -49 -11 -96q-8 -10 -17.5 -15t-20.5 -8q-14 -3 -27.5 -3.5t-27.5 0.5h-24t-23 -2q-46 -7 -55 -53q-4 -14 -4 -28.5t1 -28.5q2 -20 4.5 -40t2.5 -40q0 -56 -27 -87.5t-84 -27.5q-32 3 -53.5 21t-34.5 47q-8 17 -10 35l-4 36q0 9 -0.5 18t1.5 17q5 58 3.5 115t-1.5 115
q0 64 1.5 127.5t-1.5 127.5q0 52 24 77.5t75 33.5q26 3 51 2.5t51 -2.5q10 -1 19 -1.5t17 -0.5z" />
    <glyph glyph-name="X" unicode="X" horiz-adv-x="557" 
d="M289 562q8 8 11.5 16t7.5 15q13 22 29 46.5t35.5 45.5t42.5 36t51 19q35 5 55 -13t18 -54q-1 -20 -7 -39t-14 -37q-23 -52 -49.5 -101t-55.5 -98q-8 -14 -12 -20t-4 -11t4 -11t11 -20q23 -45 47 -88t47 -88q11 -20 19.5 -40.5t13.5 -42.5q2 -5 2.5 -10t1.5 -10
q3 -22 -3.5 -37.5t-18.5 -24t-27 -11t-29 0.5q-26 5 -48 18.5t-41 32t-34 40.5t-28 43q-7 11 -13.5 23t-14.5 24q-6 -4 -9 -9.5t-6 -10.5q-13 -20 -24.5 -38.5t-24.5 -37.5q-17 -24 -38 -43t-46 -35q-31 -20 -66 -14q-44 8 -44 52q-1 17 4 33t12 32q10 22 20.5 43t21.5 42
q23 42 46.5 84t47.5 84q10 18 0 36q-32 64 -61 128.5t-64 127.5q-10 17 -16 35t-8 38q-2 30 13.5 47.5t40.5 17.5q30 0 57 -18.5t50 -45t41 -56t31 -52.5q6 -11 12 -21.5t13 -22.5z" />
    <glyph glyph-name="J" unicode="J" horiz-adv-x="602" 
d="M371 406q0 15 -0.5 38t-3 46.5t-6.5 45.5t-11 36q-9 23 -32 22q-11 -1 -21.5 -1.5t-21.5 1.5q-28 2 -47 17.5t-24 41.5q-5 20 1.5 37t20.5 31q26 31 69 37q53 10 105.5 11t105.5 -1q41 -2 66.5 -30t24.5 -67q0 -17 -6 -31t-21 -22q-9 -5 -11 -12t-2 -15
q-1 -48 -1.5 -96.5t-0.5 -96.5q0 -71 -4.5 -131t-23.5 -128q-13 -48 -41.5 -83.5t-66.5 -59t-83.5 -35t-92.5 -11.5q-17 0 -37.5 2t-40 6.5t-37.5 13t-30 21.5q-55 57 -77 124.5t-8 145.5q12 73 88 87q39 7 68 -12.5t37 -59.5q2 -11 2.5 -21t2.5 -21q2 -9 3 -18.5t4 -18.5
q6 -20 20.5 -31t34.5 -11q26 0 43 14t27.5 34.5t15.5 44.5t6 45q3 29 5 57t1 54z" />
    <glyph glyph-name="S" unicode="S" horiz-adv-x="686" 
d="M316 -42q-45 -2 -87.5 7.5t-82.5 32.5q-44 26 -70.5 62.5t-31.5 88.5q-3 23 5 47q9 28 33.5 43t56.5 13q41 -3 74 -33q13 -11 25.5 -22.5t26.5 -20.5q29 -18 60 -18q12 0 25 3t25 9t21 15.5t11 22.5q2 19 -7 31.5t-22 23.5q-13 10 -36.5 19t-49.5 16t-50.5 12t-41.5 7
q-47 6 -78.5 32.5t-54.5 62.5q-54 82 -28 180q16 58 51 100t88 68q42 21 85 31.5t91 7.5q36 -3 79 -19.5t82 -42.5t69 -60t40 -72q6 -22 1.5 -42t-15.5 -34.5t-28.5 -23t-38.5 -8.5q-20 0 -38.5 7.5t-35.5 18.5q-16 11 -32 21t-32 21q-20 12 -40 18.5t-43 6.5
q-34 -2 -58 -21q-17 -16 -17 -34.5t17 -34.5q10 -9 22 -14t25 -8q23 -5 46 -5.5t46 -4.5q47 -6 89.5 -21.5t80.5 -44.5t61 -74t26.5 -95t-15.5 -99.5t-66 -88.5q-57 -47 -124 -67t-139 -20z" />
    <glyph glyph-name="V" unicode="V" horiz-adv-x="568" 
d="M297 419q7 8 8.5 14.5t3.5 13.5q14 45 28 88.5t33 85.5q10 24 24.5 48t33 45t41.5 36t50 20q8 2 15 2q14 0 29.5 -8t24.5 -30q8 -20 8.5 -31t0.5 -13q0 -19 -5 -37q-9 -42 -21.5 -82.5t-28.5 -79.5q-14 -35 -27.5 -69.5t-27.5 -69.5t-24.5 -70t-17.5 -71
q-5 -31 -13.5 -60t-18.5 -58q-5 -14 -9.5 -27.5t-4.5 -27.5q0 -7 -2.5 -12.5t-4.5 -11.5q-4 -10 -13.5 -18t-22 -13.5t-26.5 -8.5t-28 -3q-20 0 -36.5 5.5t-24.5 18.5q-8 11 -15.5 21.5t-12.5 22.5q-26 60 -47.5 121.5t-42.5 124.5q-23 66 -46 131t-40 132q-8 31 -13 57
t-5 49q0 8 1 17q0 18 5 37.5t15.5 36t25.5 27t36 10.5q22 0 40.5 -13t33.5 -31.5t26 -40t18 -38.5q17 -41 29.5 -82.5t25.5 -83.5q5 -18 10.5 -36t11.5 -38z" />
    <glyph glyph-name="L" unicode="L" horiz-adv-x="589" 
d="M260 180q0 -16 2 -18.5t12 -2.5h8q26 0 59 -0.5t67 -3.5t66.5 -8t57.5 -14q14 -5 26 -11.5t23 -17.5q20 -17 20 -38.5t-18 -40.5q-11 -12 -25.5 -19.5t-30.5 -12.5q-27 -8 -60.5 -12.5t-69 -7t-69.5 -3.5t-63 -1q-23 0 -45.5 1t-45.5 3q-42 3 -76.5 21.5t-53.5 57.5
q-8 17 -8 34q0 5 2 18t19 27q8 7 8 17q-3 32 -3 63q0 5 0.5 25.5t0.5 56.5q0 38 -2 76l-4 76q-1 26 -1 51t1.5 62.5t12.5 88.5q4 18 13 39.5t23 40t32 31t40 12.5q21 0 35.5 -11.5t24 -28.5t14.5 -36.5t8 -36.5q7 -55 7.5 -91.5t0.5 -54.5q0 -37 -1 -74q0 -9 -0.5 -18.5
t-1.5 -18.5l-2 -110q-1 -55 -3 -110z" />
    <glyph glyph-name="A" unicode="A" horiz-adv-x="572" 
d="M555 83v-7q0 -8 -1.5 -18.5t-6.5 -23.5q-18 -41 -56 -41q-9 0 -19 2q-45 11 -69.5 41t-38.5 72q-2 8 -6 12t-12 4h-3q-21 -1 -41 -1q-10 0 -30 0.5t-51 2.5h-2q-12 0 -16 -12q-14 -42 -37.5 -74.5t-69.5 -43.5q-12 -3 -22 -3q-40 0 -57 45q-6 17 -6.5 29t-0.5 18
q0 12 1 25q5 41 15.5 79.5t22.5 77.5q25 87 49.5 173t55.5 171q11 33 27.5 62.5t37.5 57.5q12 17 29 25.5t35 8.5t35 -9t30 -26q21 -29 37.5 -60t28.5 -66q32 -90 58 -180.5t52 -182.5q12 -38 21.5 -77.5t9.5 -80.5zM312 288q-6 24 -13 46t-17 47q-8 -26 -15.5 -47.5
t-12.5 -43.5q11 -2 22 -2q3 0 6.5 0.5t8.5 0.5q10 0 21 -1z" />
    <glyph glyph-name="Z" unicode="Z" horiz-adv-x="579" 
d="M309 581q-21 -1 -41.5 -2t-41.5 -3q-30 -2 -60.5 -0.5t-60.5 7.5q-16 3 -30.5 8.5t-27.5 14.5q-26 18 -28.5 42.5t19.5 47.5q12 14 33.5 25t46 18.5t48.5 12t42 6.5q53 8 105 7t105 -3q20 -2 41 -3.5t41 -3.5q27 -2 41 -15.5t19 -39.5q3 -17 1 -32.5t-6 -31.5
q-9 -35 -23.5 -68t-32.5 -65q-11 -20 -22.5 -39.5t-22.5 -39.5l-5 -9l-18 -30t-17 -29q-24 -42 -47.5 -84t-46.5 -84q-2 -5 -5 -9t-1 -10q7 -3 13.5 -2t13.5 1q20 0 48 -0.5t57.5 -3.5t56 -9.5t43.5 -18.5q28 -20 28.5 -48t-26.5 -48q-21 -16 -57 -26t-76.5 -15t-79.5 -7
t-64 -3q-26 -2 -51 -1.5t-51 0.5h-20t-20 -2q-28 -4 -48.5 10.5t-28.5 41.5q-5 20 -3 39.5t7 39.5q8 35 23.5 67t32.5 63q28 51 58.5 99.5t59.5 97.5l69 114l6 10t4 13z" />
    <glyph glyph-name="Y" unicode="Y" horiz-adv-x="446" 
d="M242 580q12 22 30 53t41 59t49.5 48t56.5 20q29 0 48.5 -20.5t18.5 -54.5q0 -14 -5.5 -33t-13.5 -38.5t-17 -37.5t-16 -30q-21 -35 -41.5 -71t-42.5 -71q-9 -17 -8 -35q4 -72 7 -142t-4 -142q-2 -19 -8.5 -39t-18 -36t-28 -26t-38.5 -10q-26 0 -44.5 13t-31 32.5t-19 43
t-8.5 45.5q-4 42 -3 83.5t3 83.5v43t1 42q1 11 -2.5 20.5t-9.5 19.5q-31 48 -57 96.5t-45 102.5q-8 25 -13.5 49.5t-3.5 50.5q2 27 17.5 43.5t39.5 18.5q14 2 26 -2.5t23 -12.5q16 -11 28 -25t23 -30q14 -21 26 -43.5t24 -45.5q3 -5 5.5 -11t10.5 -11z" />
    <glyph glyph-name="D" unicode="D" horiz-adv-x="647" 
d="M50 419q4 38 4.5 76t0.5 76q0 24 4.5 51t14 52t26 45.5t40.5 32.5q20 10 39 10q38 0 57 -34q5 -8 9 -9t12 4q26 14 58.5 24t61.5 10q55 0 101 -34q112 -83 142 -217q12 -54 7.5 -106.5t-18.5 -105.5q-20 -78 -59.5 -142.5t-105.5 -112.5q-23 -16 -47 -27.5t-53 -15.5
q-23 -3 -45.5 0.5t-45.5 10.5q-9 3 -15.5 2t-11.5 -12q-10 -19 -27.5 -25.5t-38.5 -1.5q-56 15 -77 69q-10 26 -15.5 53t-6.5 55q-2 60 -7.5 120.5t-3.5 121.5q1 8 0.5 15t-0.5 15zM280 350q0 -19 -0.5 -37.5t0.5 -37.5q0 -8 3.5 -22t9.5 -27.5t14.5 -23.5t19.5 -10t21 8.5
t18.5 20.5t14.5 24.5t8 20.5q27 85 20 172q-1 13 -3 27t-7.5 26t-14.5 21t-24 12t-27 -2.5t-22 -16.5q-11 -14 -17.5 -30t-10.5 -33q-4 -23 -4 -46t1 -46z" />
    <glyph glyph-name="G" unicode="G" horiz-adv-x="678" 
d="M391 236q-5 4 -10 4t-10 1q-9 1 -18.5 2.5t-18.5 4.5q-40 14 -47 35.5t-7 31.5q0 23 16 47q15 23 33.5 35t40.5 12q6 0 11 -1q6 -1 11 -1t12 1t17 3q25 3 39.5 3.5t19.5 0.5q20 0 41 -2q47 -4 73.5 -27t36.5 -70q9 -45 11 -89.5t2 -89.5q0 -25 -1 -49.5t-2 -50.5
q-2 -35 -21 -52.5t-45 -25.5q-3 -1 -7 -1q-7 0 -15 3q-17 5 -29.5 15.5t-21.5 25.5q-8 15 -13 15q-3 0 -13 -5q-65 -31 -134 -31q-38 0 -71 9t-68 22q-65 23 -104 69t-57 112q-23 77 -24 118t-1 46q0 72 24 143q40 117 134 202q39 35 81.5 47.5t87.5 12.5h13q54 -3 99.5 -22
t86.5 -54q44 -39 44 -95v-9q-5 -42 -38 -67t-74 -25q-37 0 -71 23q-6 5 -12 9l-9 5q-6 5 -12 9q-17 13 -38 13q-17 0 -32 -7.5t-26.5 -19.5t-20 -26.5t-13.5 -29.5q-14 -43 -14 -85q0 -11 3 -43.5t27 -84.5q12 -28 33 -47q14 -13 25 -14.5t17 -1.5q11 0 21 2q17 4 25.5 15.5
t12.5 28.5z" />
    <glyph glyph-name="t" unicode="t" horiz-adv-x="485" 
d="M165 221v59q-1 13 -3.5 15.5t-15.5 4.5q-15 2 -30.5 3t-30.5 5q-35 10 -56 32q-23 26 -19 54.5t33 47.5q23 14 48.5 20t51.5 7q18 0 21.5 3t7.5 20q5 17 11.5 35.5t16.5 34.5t24.5 27t34.5 14q24 3 44 -9.5t31 -36.5q8 -17 11 -35.5t4 -37.5q2 -15 4.5 -18t16.5 -6
q26 -4 54 -12.5t48 -28.5q20 -22 17.5 -48t-25.5 -44q-17 -11 -35 -16t-38 -8q-10 -2 -21 -1.5t-17 -5.5q-8 -6 -6 -17.5t2 -22.5q-2 -42 -2.5 -82.5t-1.5 -82.5q-1 -18 -5.5 -37t-14 -35t-24.5 -26.5t-36 -10.5q-25 0 -42 13.5t-28 33.5t-16.5 43t-8.5 43q-2 28 -4.5 54.5
t-0.5 51.5z" />
    <glyph glyph-name="h" unicode="h" horiz-adv-x="564" 
d="M247 374q8 3 12 7.5t9 8.5q23 18 48.5 31t54.5 19q48 10 88 -12t57 -70q10 -29 13 -66q5 -53 2 -104.5t-15 -103.5q-3 -14 -8 -26.5t-11 -25.5q-19 -36 -53 -55q-32 -17 -61 -6.5t-41 45.5q-7 20 -8.5 39.5t0.5 39.5q1 22 2 43t-1 42q-1 18 -4 36t-11 35q-13 27 -42 24
q-19 -1 -25 -7.5t-6 -25.5v-67.5t-5 -67.5q-4 -22 -10.5 -42.5t-18.5 -39.5q-11 -19 -26 -30q-26 -19 -54.5 -13.5t-45.5 31.5q-9 13 -14 27.5t-7 28.5q-14 95 -22 188.5t3 189.5q3 29 8.5 56t15.5 54q6 17 14.5 33.5t22.5 30.5q29 31 58.5 26.5t47.5 -42.5q10 -21 15 -43.5
t7 -45.5q2 -17 3 -34.5t3 -35.5q2 -17 2.5 -34.5t2.5 -37.5z" />
    <glyph glyph-name="e" unicode="e" horiz-adv-x="418" 
d="M240 165q8 -10 17.5 -12.5t18.5 -4.5q15 -2 30 -4.5t29 -6.5q23 -6 38.5 -21t20.5 -40q1 -7 1 -14q0 -38 -35 -64q-25 -19 -50 -24t-47 -5q-8 0 -16 1q-17 1 -32.5 4.5t-31.5 8.5q-97 30 -136 123q-25 58 -25 114q0 8 2 43.5t47 95.5q41 54 85 71.5t82 17.5q24 0 50 -5
q41 -9 68.5 -34t35.5 -68q2 -12 2 -22q0 -16 -6.5 -35t-21.5 -42q-17 -26 -42 -43t-55 -26l-14 -4q-7 -2 -15 -4zM286 304v3q0 12 -7 20.5t-21 10.5q-4 1 -7 1q-7 0 -16 -3t-18 -9.5t-16 -15.5t-9 -19v-5q0 -10 6 -20.5t17 -13.5q2 -1 5 -1q7 0 16.5 4t21 12t19.5 17.5
t9 18.5z" />
    <glyph glyph-name="q" unicode="q" horiz-adv-x="529" 
d="M296 9q-18 -5 -33.5 -8t-32.5 -5q-9 -1 -17 -1q-98 0 -151 84q-21 32 -29 67.5t-8 63.5q0 19 5 53t32 79t80 78q44 26 88 26q41 0 81 -21q5 -2 8 -3.5t5 -1.5q4 0 11 14q1 3 2 5l5 10q1 3 2 5q11 18 25.5 27t30.5 9q19 0 32.5 -9t22.5 -22.5t14.5 -30.5t8.5 -32
q5 -24 5 -48.5t1 -48.5q2 -81 2.5 -126.5t0.5 -54.5q0 -72 -4 -144q-1 -22 -5 -53t-14.5 -59t-29 -47.5t-48.5 -19.5q-32 0 -49.5 21t-26 51t-10.5 62.5t-2 56.5q-1 5 -1 10.5t-1 12.5zM276 279q-22 0 -40 -15.5t-22 -36.5q-1 -5 -1 -10q0 -29 33 -40q7 -2 14 -2
q9 0 22.5 4.5t18.5 18.5q4 13 6 23.5t2 18.5q0 6 -1 12q-4 27 -30 27h-2z" />
    <glyph glyph-name="u" unicode="u" horiz-adv-x="509" 
d="M470 231q0 -26 1 -51.5t-1 -51.5q-2 -57 -32 -95t-84 -56q-39 -12 -78 -17t-80 2q-38 5 -65 24t-47 51q-28 48 -40 105q-20 103 -4 201q8 45 34 80q9 11 19 19.5t23 15.5q17 8 33.5 8t30.5 -6.5t25 -19t16 -30.5q5 -21 6 -43l2 -44q2 -27 2 -54.5v-55.5q0 -12 1 -23.5
t3 -23.5q1 -10 7 -21q11 -19 34 -17q10 1 14 7t7 14q7 20 9 40.5t3 40.5l2 70t9 69q3 14 7 26t10 24q10 20 24 33.5t39 11.5q23 -2 35.5 -16t20.5 -34q6 -15 9 -31t5 -32q3 -30 4 -60t-4 -60z" />
    <glyph glyph-name="i" unicode="i" horiz-adv-x="240" 
d="M124 493q31 6 49.5 -13.5t19.5 -45.5q1 -32 -16.5 -52t-47.5 -22q-28 -2 -48 15.5t-22 45.5q-2 33 15 51.5t50 20.5zM206 125q1 -20 -0.5 -39t-3.5 -39q-2 -16 -7.5 -31t-15 -27t-23 -19t-32.5 -7q-21 0 -36 9t-25.5 23.5t-16.5 32t-9 35.5q-5 23 -5 47t-2 48
q-1 18 -1.5 36t2.5 36q3 17 10.5 34.5t19 32.5t27.5 24.5t35 9.5q21 0 35 -12t23 -29.5t13.5 -37.5t6.5 -36q2 -23 4 -45.5t1 -45.5z" />
    <glyph glyph-name="c" unicode="c" horiz-adv-x="458" 
d="M335 153q12 1 20 2t13 1q7 0 14 -1q23 -3 39 -15.5t23.5 -29t7.5 -33.5q0 -4 -1 -16t-15 -31q-13 -18 -33 -29.5t-42.5 -19t-46 -10.5t-44.5 -3q-79 0 -155 44q-39 22 -60 57.5t-28 78.5q-5 28 -5 54q0 54 24.5 112t93.5 110q58 43 126 43q24 0 50.5 -6.5t49 -20
t38.5 -33.5t20 -47q1 -5 1 -9q0 -20 -11.5 -37.5t-34.5 -25.5q-16 -6 -34 -6q-9 0 -17.5 1.5t-17.5 3.5q-7 2 -14 2t-17.5 -2.5t-22.5 -10t-20 -19.5t-11 -27q-1 -7 -1 -13q0 -21 15 -40t46 -24q10 -2 20 -2q2 0 9.5 0.5t20.5 1.5z" />
    <glyph glyph-name="p" unicode="p" horiz-adv-x="533" 
d="M211 416q35 21 67 27q15 3 30 3q44 0 83 -24q56 -32 84 -78t33 -80t5 -53q0 -29 -9 -66.5t-31 -70.5q-54 -79 -147 -79q-9 0 -18 1q-17 2 -32.5 5t-31.5 8q-5 -5 -5 -11l0.5 -3.5t0.5 -8.5q-1 -28 -3 -55.5t-8 -55.5q-2 -11 -5.5 -21.5t-9.5 -20.5q-10 -17 -25.5 -26.5
t-25 -10t-11.5 -0.5q-14 0 -29.5 6.5t-28.5 21.5q-13 16 -19 34.5t-10 38.5q-11 49 -11.5 98t-1.5 99q-1 35 -1 70q0 18 0.5 52.5t2.5 87.5q1 23 1 46t4 46q3 17 8 32.5t16 29.5q12 17 26 24.5t29 7.5q1 0 9 -0.5t22 -9.5t24 -26q5 -9 9 -18t9 -20zM226 228q1 -1 1 -4v-2
q0 -2 1 -4q4 -35 38 -43q5 -1 9 -1q10 0 22 5t20 16q7 11 7 24q0 1 -0.5 9.5t-10.5 22.5q-14 20 -36 26q-11 3 -19 3t-17 -3.5t-11 -28.5q-2 -12 -4 -20z" />
    <glyph glyph-name="d" unicode="d" horiz-adv-x="530" 
d="M293 422q2 29 2.5 55t4.5 52q2 15 5 29.5t10 28.5q9 20 23.5 33t37.5 15q24 2 41.5 -8t29.5 -30q14 -23 19.5 -48.5t8.5 -51.5q6 -42 6.5 -83.5t0.5 -83.5q1 -60 0 -118.5t-2 -118.5q0 -42 -10 -79q-6 -29 -25 -49q-22 -25 -51 -23t-49 29q-7 10 -11 20.5t-9 20.5
q-6 2 -9.5 -1t-7.5 -5q-87 -44 -169 5q-33 20 -58 48.5t-39.5 62.5t-18.5 72t4 77q2 6 2.5 11.5t2.5 10.5q12 41 34.5 71t53 48t68 22.5t78.5 -5.5q5 -2 11.5 -3.5t15.5 -3.5zM309 203q3 15 -4.5 25t-19.5 19q-31 21 -59 -1q-27 -23 -10 -56q10 -23 35 -34q53 -21 58 36v11z
" />
    <glyph glyph-name="b" unicode="b" horiz-adv-x="533" 
d="M239 422q19 5 35.5 8.5t33.5 4.5q114 7 170 -91q20 -35 28 -78.5t0.5 -88t-32.5 -86.5t-71 -73q-48 -33 -98 -33q-42 0 -86 24q-2 2 -8 4q-6 -1 -7 -5t-3 -8q-3 -6 -5.5 -12.5t-6.5 -12.5q-11 -17 -25 -25t-29 -8q-16 0 -29 7t-22.5 18.5t-15.5 25.5t-9 28q-5 23 -7 46
t0 46q1 5 0 10t-1 10q-2 96 -3 190.5t11 190.5q2 19 8 40.5t16.5 39.5t26.5 30t39 12q24 0 40 -12t25 -30.5t13.5 -40.5t5.5 -41q2 -21 3 -43.5t3 -46.5zM224 197q0 -9 1 -13q6 -38 44 -31q32 6 47 37q8 16 5 31t-16 25q-13 12 -30 12q-26 0 -37 -19t-14 -42z" />
    <glyph glyph-name="r" unicode="r" horiz-adv-x="482" 
d="M210 404q23 16 46 26.5t49 15.5q39 6 81 -5q40 -10 60 -49q11 -21 15 -46.5t0.5 -51t-13.5 -48.5t-27 -41q-13 -14 -31.5 -23.5t-38.5 -9.5q-23 0 -40 14t-23 39q-2 8 -2.5 15t-0.5 15v11t-1 11q-4 22 -21 22q-8 0 -16 -4q-19 -10 -18 -32q1 -35 1 -70v-70
q0 -20 -2 -39.5t-8 -39.5q-11 -35 -35.5 -53t-56.5 -15q-35 4 -59.5 28t-24.5 59q0 34 -2 68.5t-2.5 68.5t1.5 68.5t8 68.5q3 18 10.5 39.5t19 40t28.5 30.5t40 12q29 0 48 -28q4 -6 7 -12.5t8 -14.5z" />
    <glyph glyph-name="o" unicode="o" horiz-adv-x="480" 
d="M458 255q0 -98 -54 -176q-29 -42 -69 -67.5t-90 -36.5q-22 -5 -43 -5q-16 0 -41 4.5t-53.5 23t-47.5 48.5t-26 69q-6 34 -6 66q0 48 17 107t77 122q42 45 77 52t55 7q33 0 68 -10q55 -15 85.5 -53t44.5 -92q4 -15 5 -30t1 -29zM277 236q0 8 -1 15t-4 14q-8 19 -22 19
q-9 0 -20 -8q-19 -13 -27 -35t-8 -38q0 -8 2 -16q5 -21 14.5 -23.5t13.5 -2.5q12 0 25 12q13 13 19 29t8 34z" />
    <glyph glyph-name="w" unicode="w" horiz-adv-x="686" 
d="M342 117q-6 -14 -9.5 -24t-8.5 -20q-18 -40 -56 -67.5t-83 -27.5q-48 0 -91 37q-26 23 -40 52t-21 63q-6 30 -6 60q0 2 0.5 19.5t5.5 49.5q7 42 19.5 81.5t29.5 77.5q8 17 21.5 30t30 21.5t31 11.5t25.5 3q6 0 12 -1q25 -2 43 -19.5t23 -44.5q2 -14 2 -28.5t-4 -28.5
q-6 -24 -14.5 -47t-19.5 -45q-8 -15 -16 -33.5t-10 -35.5q-1 -5 -1 -9q0 -3 0.5 -7.5t9.5 -6.5h4q6 0 7 5l2 14q2 12 4 19q7 15 18 33t25 34.5t31 27.5t36 11q20 0 37.5 -12t32 -29t26 -37t18.5 -35q2 -5 2 -11.5t1 -12.5q2 -12 11 -12q5 0 7.5 3.5t2.5 8.5v8q0 6 -1 13
t-3 16q-6 19 -14 36.5t-18 34.5q-11 19 -17 38.5t-11 40.5q-2 11 -2 21v7q1 45 25.5 65t52.5 20q12 0 24 -3q29 -6 51 -21t35 -44q29 -64 41.5 -118t12.5 -98q0 -26 -3 -52t-9.5 -49.5t-20.5 -44.5q-23 -38 -54 -57t-70 -19h-8q-45 2 -76 26t-52 62q-6 11 -10.5 23t-10.5 27
z" />
    <glyph glyph-name="n" unicode="n" horiz-adv-x="552" 
d="M228 405q8 3 12.5 8t9.5 9q36 27 75 36.5t84 -5.5q65 -21 86 -84q4 -11 6.5 -23t4.5 -23q4 -25 8.5 -49.5t4.5 -49.5q0 -51 -4.5 -100.5t-26.5 -97.5q-7 -15 -16 -29t-21 -25q-13 -12 -28.5 -19t-34.5 -5q-25 2 -43 17t-23 41q-2 7 -3 13.5t0 13.5q2 33 -1 66t-1 66
q1 20 3.5 40t2.5 40q0 12 -3.5 20.5t-14.5 14.5q-11 5 -19.5 1.5t-16.5 -10.5q-14 -13 -22.5 -28t-8.5 -35q0 -34 -0.5 -67.5t-5.5 -66.5q-2 -22 -8.5 -42t-20.5 -37t-30.5 -28t-38.5 -14q-33 -5 -55 12.5t-27 51.5l-4 42t-2 42q-1 53 -1 105t3 105q1 25 3.5 49t10.5 47
q5 20 14.5 37.5t24.5 31.5q28 26 56.5 22t48.5 -36q8 -13 12.5 -27.5t9.5 -29.5z" />
    <glyph glyph-name="m" unicode="m" horiz-adv-x="815" 
d="M489 387q12 11 22.5 21t21.5 18q35 26 74 33.5t82 -6.5q24 -8 42 -22q27 -21 33 -53q5 -26 7.5 -51t3.5 -51q3 -56 2.5 -111t-9.5 -111q-2 -14 -6 -28.5t-12 -27.5q-14 -24 -35 -38t-50 -12q-25 2 -41 17t-21 39q-4 20 -4 40.5t2 41.5q2 40 3 79.5t-1 80.5q0 16 -10 27
q-20 25 -48 5q-26 -20 -32 -55q-4 -25 -7.5 -49.5t-6.5 -49.5q-7 -55 -21 -113q-4 -18 -16.5 -32t-29 -22.5t-35 -9.5t-34.5 7q-32 15 -36 50q-4 38 -3 75t2 75q1 24 1 47.5t-2 47.5t-20 31q-11 5 -21.5 4.5t-20.5 -8.5q-13 -11 -18.5 -23.5t-6.5 -28.5q-1 -34 -2 -67
l-2 -66q0 -25 -6 -49q-5 -17 -13 -31.5t-20 -26.5q-27 -27 -62 -31q-32 -4 -53.5 13.5t-25.5 49.5q-4 31 -5.5 61.5t-1.5 60.5v109t6 109q2 20 6.5 39t12.5 38q8 15 17 27.5t23 22.5q23 18 46 15t42 -26q14 -17 22 -41l4 -12t4 -13q8 2 12 6.5t9 8.5q40 31 82.5 39t90.5 -12
q42 -17 65 -61z" />
    <glyph glyph-name="f" unicode="f" horiz-adv-x="432" 
d="M41 265q-2 58 5.5 114t27.5 111q12 33 35 60t53 46t65 29.5t72 10.5q43 0 78.5 -14.5t65.5 -46.5q35 -36 33 -86q0 -24 -14 -38.5t-38 -16.5q-17 -2 -31.5 2.5t-28.5 11.5q-21 11 -46 11q-30 0 -49 -12.5t-28 -42.5q-6 -18 -5.5 -37t-2.5 -37q-1 -8 4 -11.5t12 -4.5h16.5
t16.5 -1q36 -5 57.5 -27t21.5 -56q1 -27 -16.5 -46.5t-47.5 -24.5q-7 -2 -14.5 -2h-15.5q-14 -1 -17.5 -4.5t-3.5 -17.5q-1 -20 -5 -46.5t-14 -50t-27 -40t-44 -16.5q-32 0 -53.5 23t-34.5 56t-19 68t-8 59q-1 19 -0.5 38t0.5 39z" />
    <glyph glyph-name="x" unicode="x" horiz-adv-x="451" 
d="M231 64l-31 -31q-20 -20 -45 -37t-54 -17q-26 0 -44.5 17t-22.5 49q-2 12 -2 24q0 29 11 57q8 25 21 46.5t30 41.5q6 7 6 15q0 7 -5 14q-10 14 -20.5 32.5t-19.5 38.5t-15 40.5t-6 38.5q0 35 19.5 50t40.5 15q10 0 20 -2q31 -8 58 -30.5t48 -45.5q6 -5 11 -5t10 5
q23 23 47 44q16 13 36.5 23.5t42.5 10.5q29 0 45 -18.5t16 -42.5q0 -7 -1 -14q-3 -24 -12 -46.5t-20 -44.5q-7 -14 -14.5 -26.5t-15.5 -25.5q-4 -6 -4 -11q0 -7 5 -13q17 -20 33 -47q14 -25 22 -50t8 -51v-6q0 -15 -4.5 -30t-13 -26.5t-21 -19t-29.5 -7.5q-24 0 -47 12.5
t-40 29.5l-21.5 21.5z" />
    <glyph glyph-name="j" unicode="j" horiz-adv-x="284" 
d="M152 322q-28 0 -51 15t-27.5 39.5t11.5 45.5q19 24 44.5 33t54.5 7q10 -1 17.5 -6t10.5 -16q1 -5 7 -13q11 -16 11.5 -32.5t-7 -31t-21.5 -25t-32 -14.5q-5 -1 -9 -1t-9 -1zM235 -104q-5 -37 -16 -72.5t-29 -69.5q-17 -30 -41.5 -52.5t-54.5 -37.5t-63 -20.5t-67 -0.5
q-17 2 -33 7.5t-31 12.5q-26 11 -39 32t-15 49q-5 58 40 94q14 11 30 11.5t33 -2.5q6 -1 12 -3t12 -3q51 -11 71 36q9 23 12.5 46t4.5 47q1 57 1.5 112.5t2.5 112.5q0 6 0.5 18.5t2 26t4.5 25.5t8 16q24 20 51 29t58 2q44 -11 51 -55q5 -32 7 -63t1 -63q0 -59 -2 -118
t-11 -117z" />
    <glyph glyph-name="g" unicode="g" horiz-adv-x="560" 
d="M325 0q-19 -5 -36 -10t-35 -8q-19 -3 -38 -3q-25 0 -57 8t-63 33t-50 62.5t-21 83.5v18q0 56 17.5 109.5t61.5 102.5q35 40 72 55t72 15q15 0 32 -2q19 -3 35.5 -11t32.5 -19q6 5 9 12t8 13q13 18 29 26.5t32 8.5q1 0 9.5 -0.5t24.5 -10.5t28 -29q15 -26 20 -53.5
t6 -56.5q1 -59 1 -117q0 -44 -1 -117t-9 -176q-3 -39 -11.5 -76.5t-24.5 -73.5q-27 -65 -76.5 -100t-118.5 -43q-10 -1 -21 -1q-19 0 -43.5 6t-50.5 20q-23 12 -35.5 34t-13 35.5t-0.5 15.5q0 22 9 45.5t30 40.5q14 11 24.5 11.5t15.5 0.5q12 0 25 -2q6 -1 12 -2.5t12 -3.5
q10 -2 18 -2q37 0 53 38q17 45 17 95q0 14 -1 28zM325 219h1v23q-3 24 -16 30.5t-21 6.5q-12 0 -24 -9q-28 -19 -30 -55v-2q0 -22 21 -34q8 -5 15 -5.5t11 -0.5h8q21 2 28 9t7 27q1 2 1 4q0 1 -0.5 2.5t-0.5 3.5z" />
    <glyph glyph-name="y" unicode="y" horiz-adv-x="543" 
d="M308 -10q-10 -2 -16.5 -6t-13.5 -8q-36 -18 -71 -18q-21 0 -57.5 11.5t-67.5 68.5q-12 21 -20 43.5t-13 45.5q-9 40 -12.5 80t-4.5 81v9q0 26 5 53t17 55q6 14 14.5 27t20.5 24q22 19 45 19q5 0 22 -3.5t33 -34.5q10 -18 13 -34.5t3 -31.5v-9q0 -38 -0.5 -74.5
t-0.5 -73.5v-10q0 -28 5 -60q2 -11 5.5 -20.5t10.5 -18.5q13 -17 31 -17q7 0 15 2q35 11 35 42l3 183q0 29 4.5 57t15.5 55q7 16 16 29.5t23 24.5q19 13 38 13q2 0 13 -0.5t30 -15.5q14 -11 22 -25.5t13 -31.5q5 -16 8 -32.5t3 -33.5v-21q0 -26 1.5 -49.5t1.5 -43.5
q0 -17 -1 -33q-3 -57 -3.5 -112.5t-3.5 -112.5q-3 -51 -10.5 -100t-27.5 -97q-27 -65 -75 -100t-117 -45q-12 -1 -23 -1q-20 0 -44 5.5t-51 19.5q-24 12 -36.5 34.5t-13 36t-0.5 16.5q0 22 9.5 45.5t30.5 39.5q14 11 24.5 11.5t14.5 0.5q12 0 25 -2q6 -2 11.5 -3t10.5 -3
q10 -2 19 -2q38 0 54 41q11 26 14 50.5t3 46.5v13z" />
    <glyph glyph-name="s" unicode="s" horiz-adv-x="424" 
d="M215 -48q-61 0 -114 24.5t-83 80.5q-23 47 15 82q27 25 62 25q27 0 51 -15q5 -3 10 -7t10 -7q14 -8 25 4q11 11 0 24q-6 8 -13.5 14.5t-15.5 12.5q-29 18 -52 36.5t-39 50.5q-23 43 -16.5 85.5t41.5 76.5q29 28 63 43t72 15q43 0 87.5 -17.5t73.5 -48.5q17 -17 24 -36.5
t2 -42.5q-6 -32 -29.5 -50.5t-52.5 -18.5q-25 0 -48 15q-8 5 -14.5 10.5t-13.5 10.5q-14 9 -23 -1q-5 -5 -4 -11t6 -11q11 -14 26 -24.5t29 -21.5q34 -27 55.5 -61t27.5 -77q3 -25 -3 -49t-19 -44t-33 -35t-44 -22q-16 -5 -32 -7.5t-31 -2.5z" />
    <glyph glyph-name="v" unicode="v" horiz-adv-x="421" 
d="M217 310q6 3 8.5 9t4.5 12q12 23 25 45.5t30 43.5q13 14 29 26.5t37 12.5q15 0 27.5 -8t20.5 -24q9 -18 9.5 -29t0.5 -15q0 -15 -2 -30q-5 -39 -18.5 -83t-31.5 -87.5t-39.5 -83.5t-42.5 -72l-1 -1l-1 -2l-1 -1q-10 -18 -24 -27t-29 -9q-16 0 -30.5 9t-25.5 26
q-45 72 -80.5 150.5t-51.5 162.5q-3 24 -3 48v12q2 23 16 43.5t40 20.5q20 0 36.5 -12.5t29.5 -26.5q17 -20 29.5 -42t24.5 -45q3 -6 5.5 -12t7.5 -11z" />
    <glyph glyph-name="l" unicode="l" horiz-adv-x="294" 
d="M43 370q0 29 1.5 70t8.5 84q5 31 19 57q13 22 32 32.5t39 10.5t39 -11t32 -33q8 -12 12 -25.5t8 -27.5q6 -25 8.5 -49.5t4.5 -49.5q7 -81 7.5 -160t-5.5 -160q-2 -15 -5 -30.5t-10 -29.5q-16 -33 -45 -42.5t-61 7.5q-17 9 -29.5 23t-20.5 31q-14 29 -20 58.5t-9 59.5
q-5 42 -6 85t0 100z" />
    <glyph glyph-name="a" unicode="a" horiz-adv-x="537" 
d="M326 425q8 8 13.5 15t11.5 13q24 21 47 21q24 0 47 -22q15 -14 24 -31.5t15 -37.5q5 -17 8 -35t5 -36q5 -57 6 -89t1 -40q0 -48 -10 -97q-3 -14 -6.5 -28t-8.5 -28q-7 -18 -17 -30q-21 -29 -36.5 -29.5l-15.5 -0.5q-29 0 -52 27q-5 7 -8 15t-11 10q-2 1 -4 1
q-6 0 -12 -4.5t-14 -7.5q-23 -8 -46 -13t-47 -5q-93 0 -147 75q-36 51 -40.5 88t-4.5 54q0 37 12.5 80t45 84t75.5 63q29 15 48.5 18.5t30.5 3.5q19 0 39 -6q29 -8 51 -28zM314 210v10q-1 15 -12.5 30t-24.5 19q-7 2 -14 2q-8 0 -19.5 -4.5t-22.5 -19.5q-6 -7 -9 -15
q-4 -13 -4 -25q0 -5 1.5 -16t14.5 -25q11 -12 20.5 -13.5t14.5 -1.5q10 0 21 3q19 6 26.5 18.5t7.5 37.5z" />
    <glyph glyph-name="z" unicode="z" horiz-adv-x="416" 
d="M273 136q14 -2 27 -4l26 -4q28 -5 50 -21q15 -11 25.5 -25.5t7.5 -34.5q-3 -18 -14 -30t-27 -19t-34 -10.5t-33 -4.5q-29 -2 -59 -2.5t-60 1.5q-19 1 -37.5 1t-37.5 -3q-19 -4 -34.5 7t-22.5 31q-6 20 -4 38.5t8 37.5q9 28 22.5 54t27.5 52l28 50t29 51q-13 2 -24.5 3.5
t-22.5 3.5q-14 2 -28 6t-27 11q-19 10 -29 24.5t-11 30.5t7.5 31t26.5 27q20 14 43 20t46 11q29 5 58.5 5t59.5 -2q17 0 34.5 -1t34.5 -3q32 -2 50 -23.5t15 -52.5q-2 -22 -15 -54t-30 -65.5t-34.5 -64t-28.5 -48.5q-4 -5 -7.5 -10.5t-5.5 -13.5z" />
    <glyph glyph-name="k" unicode="k" horiz-adv-x="431" 
d="M234 358q14 17 28 34.5t31 33.5t41 32t49 16q8 0 15.5 -2.5t14.5 -9.5q14 -13 12.5 -28t-6.5 -30q-10 -29 -25.5 -54.5t-32.5 -50.5q-8 -11 -16.5 -21.5t-17.5 -21.5q-11 -12 -2 -26q12 -20 24 -41t23 -42q10 -20 19 -39.5t15 -40.5t4 -45q-3 -23 -18 -37t-36 -14
q-23 0 -39.5 13.5t-29.5 30.5q-15 20 -26.5 42t-22.5 45q-2 4 -3.5 8t-6.5 8q-4 -4 -4 -8.5v-9.5q-1 -20 -4 -43.5t-12 -44t-25.5 -34.5t-42.5 -14q-21 0 -36.5 10.5t-26 27t-16 36t-6.5 37.5q-1 86 -5 171t-2 171q1 25 3 50t7.5 48.5t16.5 45.5t29 40q22 22 47 22
q20 0 33.5 -13.5t21.5 -32.5t12.5 -40t5.5 -36q4 -29 4.5 -58.5t0.5 -59.5v-24q3 0 5 -1z" />
    <glyph glyph-name="one" unicode="1" 
d="M391 511l84 85q3 4 7 0q6 -8 7 -13q1 -4 -1.5 -6.5l-11.5 -11.5q-19 -21 -32 -46l1 2q12 10 25 22.5t24 24t19 21.5t10 15q1 2 5 1q2 -1 2.5 -3t5.5 -10q5 -6 0 -14q-17 -21 -29.5 -42t-25 -37.5t-27 -27.5t-36.5 -13q-14 -2 -27 2t-23 14q-1 2 -2 3.5l-3 4.5q2 2 5 -1
q14 -6 26 -6q28 0 49 17t34 40q-2 0 -2 -0.5t-1 -0.5q-5 -6 -13.5 -14t-15.5 -13q-2 -2 -4 0q-10 10 -14 19q-2 2 -1 3.5t1 3.5q-1 0 -6 -4.5t-10 -10.5t-9.5 -11t-5.5 -6q-1 -2 -7 -1q-10 3 -15 15q-4 5 -1 11q-13 -13 -18 -18.5t-6.5 -7t-1.5 -1t-3 -1.5q-3 -4 -11 5
t-12 19q-2 4 0 6.5t7 10.5l-30 -33t-15 -16l-6 -6t-3 -2q-8 -2 -12 8q-10 13 -11.5 17.5t1.5 7.5q3 8 6.5 14t8.5 13q2 4 -1.5 4t-24.5 -2q-14 -2 -16.5 -2.5t-4.5 -2.5q-6 -7 -16.5 -19t-20.5 -26t-17 -27.5t-7 -22.5q0 -4 -3 -4q-4 0 -9.5 6.5t-8.5 14.5q-4 6 0 12
q8 15 15.5 27t22.5 29q1 2 1 3l-4.5 -1.5t-11 -3.5t-13.5 -4.5t-13 -5.5q-4 -2 -7.5 -4.5t-6.5 -6.5q-1 -1 -3 -1.5t-2 1.5q-1 5 -1 12.5t1 12.5q0 3 3.5 6t18.5 5q22 5 34 7l18 3t8 1.5t4 2.5q15 15 35 31t42.5 31t45 27.5t42.5 19.5q3 1 6 -2q4 -6 7 -21q0 -2 -4 -6
q-13 -12 -25.5 -24.5t-21.5 -23.5t-14.5 -18.5t-5.5 -8.5q1 -1 4 -1q2 -1 3 -0.5t1 -1.5q2 -5 -3 -7q-4 -2 -8 -1t-6 -3q-3 -3 -7 -10.5t-8.5 -15t-7.5 -13.5t-3 -7q2 1 28 28.5t83 84.5q-1 1 -2 1q-11 -1 -13 -1t-3 1q0 3 2 3q12 3 17 3.5t8.5 3t10.5 9.5t23 24q3 5 8 0
q7 -11 3.5 -15l-10.5 -12q-1 -2 -1 -3q11 0 17 0.5t8.5 1t3.5 1.5l2 2q2 1 11 10t11 10q2 2 6 -3q2 -2 2 -5t1 -5q0 -3 -6 -8q0 -2 2 -1.5t13 0.5q8 0 12 -5.5t0 -13.5q0 -1 -1 -1.5t-2 1.5q-10 6 -34 6q-1 0 -1.5 -0.5l-3.5 -3.5t-9 -10.5t-18 -21.5q-8 -8 -22.5 -26
t-28.5 -42zM334 623q-51 -26 -95 -67l2 -1q9 1 17.5 1.5t17.5 0.5q3 0 5.5 5t18.5 24q8 9 12 14t7.5 8.5l6.5 6.5zM342 510q26 26 51.5 52.5t51.5 52.5q-1 1 -9 0.5t-15 -0.5q-3 0 -7 -4q-19 -22 -35.5 -43t-36.5 -58zM612 538q-5 20 4 34.5t26 20.5q6 2 12.5 -0.5t11 -8.5
t6.5 -14.5t-1 -17.5q-7 -15 -21 -15q-5 0 -13 4q-5 3 -5 1q-1 -9 0 -18q0 -3 10 -3q7 0 16.5 3t19.5 11q19 15 26 36.5t-1 36.5q-2 2 -1 3h3q14 -9 16.5 -24.5t-2.5 -30.5q-10 -25 -28.5 -38t-37.5 -13q-14 0 -25.5 8t-15.5 25zM591 597l7 7t5 0q4 -1 6 -5t4 -7q2 -2 1 -2.5
t-1 -1.5q-9 -33 -25 -54.5t-31 -21.5q-8 0 -16 9q-3 -1 -3 -2q-5 -6 -14.5 -19.5t-11.5 -22.5q0 -4 -3.5 -4t-7.5 5q-5 8 -7.5 13t0.5 10q15 28 32 51.5t36 46.5q4 6 7 4q2 -4 3 -8t3 -9q1 -2 -2 -5q-5 -7 -9 -13t-9 -12q13 15 18 20.5t7.5 8t3.5 4t7 8.5zM546 530
q8 0 16.5 7.5t15 17t10 17.5t2.5 9q-11 -12 -22 -24.5t-22 -26.5zM638 558q7 0 13.5 6t4.5 11q-10 -6 -18 -17zM338 355q5 5 12 14.5t15.5 19.5t16 19.5t11.5 15.5q1 4 7 0q2 -2 4.5 -5.5t4.5 -8.5q0 -3 -1 -6q-4 -4 -9 -11t-9.5 -14.5t-7.5 -13t-4 -7.5q17 17 30 35
q5 6 10 13.5t11 14.5t12.5 10.5t12.5 0.5q10 -3 20 -10q1 -1 1.5 -1t3.5 3.5t11 14t24 30.5q3 3 5 0q6 -6 7 -14q2 -1 -1 -4q-6 -8 -13.5 -20t-15 -24.5t-14.5 -25t-10 -21.5q22 26 34 41t17.5 21.5t7.5 7t5 -2.5q5 -6 8 -13q1 -2 -1 -6q-4 -5 -6.5 -9.5t-6.5 -9.5
q-12 -19 -14 -23t-4 -11q15 18 21.5 26t9.5 11t3.5 4.5t3.5 6.5q10 16 20.5 28.5t24.5 4.5q3 -2 6.5 -4.5t4.5 -6.5q3 -3 -1 -3l-1 -1q2 -9 0.5 -13t1.5 -3q17 8 33 23t16 35q-2 1 -1 1.5t2 -0.5q11 -6 10.5 -18t-8.5 -24.5t-22 -23.5t-31 -15q-8 -1 -9 -3q-8 -20 -23 -33
q-7 -7 -12 -7q-8 0 -24 16q-4 5 -3.5 6t-8.5 -12q-4 -4 -6 -7q-5 -4 -10 -2t-11.5 6.5t-7.5 10.5q-1 0 -1 -2q-11 -14 -14 -18.5t-8 -2.5q-6 2 -11 6t-7 9q-4 5 -3 7l3 6q-10 -10 -20 -25q-3 -5 -11 -3q-5 2 -8 5.5t-6 5.5q-3 4 -3 7.5t1 6.5q-1 0 -2 -2q-14 -16 -19 -20.5
t-12 0.5q-3 3 -5 6t-4 5q-2 3 -1 4.5t2 6.5q-1 0 -1 -1v-1q-8 -10 -12.5 -16t-7 -8.5t-4.5 -2t-5 2.5q-4 2 -10 8.5t-6 10.5q-2 0 -2 -3q-14 -20 -17.5 -25.5t-8.5 -2.5q-4 3 -6.5 6t-6.5 7q-5 5 -6.5 7.5t-0.5 7.5q6 24 20 46t20 33q-14 -4 -27 -8.5t-24 -12.5
q-16 -11 -24.5 -23.5t-8.5 -17.5q-1 -5 -7.5 0.5t-8.5 19.5q-1 5 4.5 12.5t13 16.5t14.5 18t10 17q1 5 -3 6q-8 0 -19 -6t-21.5 -16.5t-19.5 -23.5t-12 -26q-2 -6 3 -10.5t14 -8t20.5 -7t22.5 -9.5q14 -7 17 -14.5t-4 -6.5q-11 3 -28 -1.5t-35.5 -11t-37.5 -13t-35 -8.5
q-9 -1 -23 0.5t-16 8.5q-1 4 2 3.5t5 -1.5q3 -2 7 -1t8 1q14 2 25.5 7t23 11.5t24.5 13t28 10.5l-2 2q-10 4 -19.5 10.5t-14.5 14.5q-7 12 -2 29t16.5 33.5t27.5 28t31 11.5q19 0 28 -16q6 -10 4.5 -16t-0.5 -8h2q16 9 38 12q14 2 17 2t6 4q2 3 8.5 11t11.5 13q1 3 4 0
q4 -2 6 -5t5 -6q1 -3 -0.5 -4.5t-6.5 -8.5v-1q-1 0 -1 -2h3h20t20 -1q5 0 3.5 -2.5t-5.5 -7.5q-1 -4 -15 -4q-9 -1 -17.5 -1t-16.5 -1q-2 0 -3.5 -0.5t-3.5 -3.5t-6 -10t-11 -19q-4 -7 -9 -16t-9 -17.5t-6.5 -14t-2.5 -6.5q1 0 5.5 6.5t10 15t11 15.5t6.5 9q17 27 22 33
t10 1q6 -6 10 -14q1 -4 -1 -6q-14 -17 -21.5 -32.5t-9.5 -20.5zM571 447q-11 -11 -14 -17t-5 -6t-10 11q-5 5 -1 9q10 14 14.5 19t7.5 5q2 0 9 -14q1 0 1 -3q0 -2 -2 -4zM598 423q-2 4 -7 -1q-5 -4 -9 -8.5t-7 -9.5q-2 -1 -1 -1.5t2 -0.5q2 -2 6 -2.5t11 1.5q1 0 3 2
q2 5 3 10t-1 10zM424 354q12 13 24 29t20 27q2 2 0 2q-6 4 -9 4q-5 0 -11 -8t-11.5 -18.5t-9 -20.5t-3.5 -15zM570 395q-2 -1 -9.5 -15t-9.5 -24q-2 -4 2 -2q5 1 10.5 5.5t10 9t7.5 9t3 5.5q-11 2 -14 12zM449 249h9v-62h-9v62zM115 212v-25h-9v59h20q11 0 16 -5.5t5 -12.5
q0 -6 -5 -11t-16 -5h-11zM492 246h10v-38q0 -13 13 -13q14 0 14 13v38h9v-37q0 -11 -6.5 -16.5t-16.5 -5.5q-9 0 -16 5.5t-7 16.5v37zM138 228q0 9 -7 9h-16v-18q9 0 16 0.5t7 8.5zM247 202q1 -7 9 -7t8 5q0 3 -4 4.5t-9.5 3t-9.5 4.5t-4 9t6 9.5t13 3.5t12.5 -3t5.5 -11
h-10q-1 7 -8.5 6.5t-7.5 -5.5q0 -3 4 -4.5t9 -3t9 -4.5t4 -9q0 -7 -5 -10t-12 -3t-13 3.5t-7 11.5h10zM558 202q0 -7 9 -7t9 5q0 3 -4 4.5t-9.5 3t-9.5 4.5t-4 9t5.5 9.5t12.5 3.5q6 0 11.5 -3t5.5 -11h-9q-2 7 -9.5 6.5t-7.5 -5.5q0 -3 4 -4.5t9 -3t9.5 -4.5t4.5 -9
q0 -7 -5.5 -10t-11.5 -3q-8 0 -13.5 3.5t-6.5 11.5h10zM427 234h9v-47h-9v7q-6 -7 -16 -7q-8 0 -15 6t-7 17q0 12 7 18t15 6q10 0 16 -7v7zM176 187q-23 0 -23 23q0 12 7 18t16 6t16 -6.5t5 -20.5h-35q2 -12 14 -12q8 0 11 6h10q-5 -14 -21 -14zM370 213q0 13 -12 13
q-10 0 -10 -13v-26h-11v47h11v-6q5 6 14 6q7 0 12.5 -4.5t5.5 -14.5v-28h-10v26zM304 187q-11 0 -16.5 7.5t-5.5 16t5.5 16t16.5 7.5q12 0 18 -7.5t6 -16t-6 -16t-18 -7.5zM217 187h-9v47h9v-7q4 7 15 7v-10q-5 0 -10 -1.5t-5 -10.5v-25zM615 187q-12 0 -17.5 7.5t-5.5 16
t5.5 16t17.5 7.5q11 0 17.5 -8t4.5 -19h-35q2 -13 13 -13q8 0 11 7h10q-5 -14 -21 -14zM628 215q0 5 -4 8.5t-9 3.5q-11 0 -13 -12h26zM188 215q0 12 -13 12q-11 0 -13 -12h26zM398 210q0 -8 4.5 -11.5t10.5 -3.5q5 0 9.5 3.5t4.5 11.5t-4.5 12.5t-9.5 4.5q-6 0 -10.5 -4.5
t-4.5 -12.5zM304 195q7 0 10.5 5t3.5 10.5t-3.5 10.5t-10.5 5q-6 0 -9.5 -5t-3.5 -10.5t3.5 -10.5t9.5 -5z" />
    <glyph glyph-name="two" unicode="2" 
d="M391 511l84 85q3 4 7 0q6 -8 7 -13q1 -4 -1.5 -6.5l-11.5 -11.5q-19 -21 -32 -46l1 2q12 10 25 22.5t24 24t19 21.5t10 15q1 2 5 1q2 -1 2.5 -3t5.5 -10q5 -6 0 -14q-17 -21 -29.5 -42t-25 -37.5t-27 -27.5t-36.5 -13q-14 -2 -27 2t-23 14q-1 2 -2 3.5l-3 4.5q2 2 5 -1
q14 -6 26 -6q28 0 49 17t34 40q-2 0 -2 -0.5t-1 -0.5q-5 -6 -13.5 -14t-15.5 -13q-2 -2 -4 0q-10 10 -14 19q-2 2 -1 3.5t1 3.5q-1 0 -6 -4.5t-10 -10.5t-9.5 -11t-5.5 -6q-1 -2 -7 -1q-10 3 -15 15q-4 5 -1 11q-13 -13 -18 -18.5t-6.5 -7t-1.5 -1t-3 -1.5q-3 -4 -11 5
t-12 19q-2 4 0 6.5t7 10.5l-30 -33t-15 -16l-6 -6t-3 -2q-8 -2 -12 8q-10 13 -11.5 17.5t1.5 7.5q3 8 6.5 14t8.5 13q2 4 -1.5 4t-24.5 -2q-14 -2 -16.5 -2.5t-4.5 -2.5q-6 -7 -16.5 -19t-20.5 -26t-17 -27.5t-7 -22.5q0 -4 -3 -4q-4 0 -9.5 6.5t-8.5 14.5q-4 6 0 12
q8 15 15.5 27t22.5 29q1 2 1 3l-4.5 -1.5t-11 -3.5t-13.5 -4.5t-13 -5.5q-4 -2 -7.5 -4.5t-6.5 -6.5q-1 -1 -3 -1.5t-2 1.5q-1 5 -1 12.5t1 12.5q0 3 3.5 6t18.5 5q22 5 34 7l18 3t8 1.5t4 2.5q15 15 35 31t42.5 31t45 27.5t42.5 19.5q3 1 6 -2q4 -6 7 -21q0 -2 -4 -6
q-13 -12 -25.5 -24.5t-21.5 -23.5t-14.5 -18.5t-5.5 -8.5q1 -1 4 -1q2 -1 3 -0.5t1 -1.5q2 -5 -3 -7q-4 -2 -8 -1t-6 -3q-3 -3 -7 -10.5t-8.5 -15t-7.5 -13.5t-3 -7q2 1 28 28.5t83 84.5q-1 1 -2 1q-11 -1 -13 -1t-3 1q0 3 2 3q12 3 17 3.5t8.5 3t10.5 9.5t23 24q3 5 8 0
q7 -11 3.5 -15l-10.5 -12q-1 -2 -1 -3q11 0 17 0.5t8.5 1t3.5 1.5l2 2q2 1 11 10t11 10q2 2 6 -3q2 -2 2 -5t1 -5q0 -3 -6 -8q0 -2 2 -1.5t13 0.5q8 0 12 -5.5t0 -13.5q0 -1 -1 -1.5t-2 1.5q-10 6 -34 6q-1 0 -1.5 -0.5l-3.5 -3.5t-9 -10.5t-18 -21.5q-8 -8 -22.5 -26
t-28.5 -42zM334 623q-51 -26 -95 -67l2 -1q9 1 17.5 1.5t17.5 0.5q3 0 5.5 5t18.5 24q8 9 12 14t7.5 8.5l6.5 6.5zM342 510q26 26 51.5 52.5t51.5 52.5q-1 1 -9 0.5t-15 -0.5q-3 0 -7 -4q-19 -22 -35.5 -43t-36.5 -58zM612 538q-5 20 4 34.5t26 20.5q6 2 12.5 -0.5t11 -8.5
t6.5 -14.5t-1 -17.5q-7 -15 -21 -15q-5 0 -13 4q-5 3 -5 1q-1 -9 0 -18q0 -3 10 -3q7 0 16.5 3t19.5 11q19 15 26 36.5t-1 36.5q-2 2 -1 3h3q14 -9 16.5 -24.5t-2.5 -30.5q-10 -25 -28.5 -38t-37.5 -13q-14 0 -25.5 8t-15.5 25zM591 597l7 7t5 0q4 -1 6 -5t4 -7q2 -2 1 -2.5
t-1 -1.5q-9 -33 -25 -54.5t-31 -21.5q-8 0 -16 9q-3 -1 -3 -2q-5 -6 -14.5 -19.5t-11.5 -22.5q0 -4 -3.5 -4t-7.5 5q-5 8 -7.5 13t0.5 10q15 28 32 51.5t36 46.5q4 6 7 4q2 -4 3 -8t3 -9q1 -2 -2 -5q-5 -7 -9 -13t-9 -12q13 15 18 20.5t7.5 8t3.5 4t7 8.5zM546 530
q8 0 16.5 7.5t15 17t10 17.5t2.5 9q-11 -12 -22 -24.5t-22 -26.5zM638 558q7 0 13.5 6t4.5 11q-10 -6 -18 -17zM338 355q5 5 12 14.5t15.5 19.5t16 19.5t11.5 15.5q1 4 7 0q2 -2 4.5 -5.5t4.5 -8.5q0 -3 -1 -6q-4 -4 -9 -11t-9.5 -14.5t-7.5 -13t-4 -7.5q17 17 30 35
q5 6 10 13.5t11 14.5t12.5 10.5t12.5 0.5q10 -3 20 -10q1 -1 1.5 -1t3.5 3.5t11 14t24 30.5q3 3 5 0q6 -6 7 -14q2 -1 -1 -4q-6 -8 -13.5 -20t-15 -24.5t-14.5 -25t-10 -21.5q22 26 34 41t17.5 21.5t7.5 7t5 -2.5q5 -6 8 -13q1 -2 -1 -6q-4 -5 -6.5 -9.5t-6.5 -9.5
q-12 -19 -14 -23t-4 -11q15 18 21.5 26t9.5 11t3.5 4.5t3.5 6.5q10 16 20.5 28.5t24.5 4.5q3 -2 6.5 -4.5t4.5 -6.5q3 -3 -1 -3l-1 -1q2 -9 0.5 -13t1.5 -3q17 8 33 23t16 35q-2 1 -1 1.5t2 -0.5q11 -6 10.5 -18t-8.5 -24.5t-22 -23.5t-31 -15q-8 -1 -9 -3q-8 -20 -23 -33
q-7 -7 -12 -7q-8 0 -24 16q-4 5 -3.5 6t-8.5 -12q-4 -4 -6 -7q-5 -4 -10 -2t-11.5 6.5t-7.5 10.5q-1 0 -1 -2q-11 -14 -14 -18.5t-8 -2.5q-6 2 -11 6t-7 9q-4 5 -3 7l3 6q-10 -10 -20 -25q-3 -5 -11 -3q-5 2 -8 5.5t-6 5.5q-3 4 -3 7.5t1 6.5q-1 0 -2 -2q-14 -16 -19 -20.5
t-12 0.5q-3 3 -5 6t-4 5q-2 3 -1 4.5t2 6.5q-1 0 -1 -1v-1q-8 -10 -12.5 -16t-7 -8.5t-4.5 -2t-5 2.5q-4 2 -10 8.5t-6 10.5q-2 0 -2 -3q-14 -20 -17.5 -25.5t-8.5 -2.5q-4 3 -6.5 6t-6.5 7q-5 5 -6.5 7.5t-0.5 7.5q6 24 20 46t20 33q-14 -4 -27 -8.5t-24 -12.5
q-16 -11 -24.5 -23.5t-8.5 -17.5q-1 -5 -7.5 0.5t-8.5 19.5q-1 5 4.5 12.5t13 16.5t14.5 18t10 17q1 5 -3 6q-8 0 -19 -6t-21.5 -16.5t-19.5 -23.5t-12 -26q-2 -6 3 -10.5t14 -8t20.5 -7t22.5 -9.5q14 -7 17 -14.5t-4 -6.5q-11 3 -28 -1.5t-35.5 -11t-37.5 -13t-35 -8.5
q-9 -1 -23 0.5t-16 8.5q-1 4 2 3.5t5 -1.5q3 -2 7 -1t8 1q14 2 25.5 7t23 11.5t24.5 13t28 10.5l-2 2q-10 4 -19.5 10.5t-14.5 14.5q-7 12 -2 29t16.5 33.5t27.5 28t31 11.5q19 0 28 -16q6 -10 4.5 -16t-0.5 -8h2q16 9 38 12q14 2 17 2t6 4q2 3 8.5 11t11.5 13q1 3 4 0
q4 -2 6 -5t5 -6q1 -3 -0.5 -4.5t-6.5 -8.5v-1q-1 0 -1 -2h3h20t20 -1q5 0 3.5 -2.5t-5.5 -7.5q-1 -4 -15 -4q-9 -1 -17.5 -1t-16.5 -1q-2 0 -3.5 -0.5t-3.5 -3.5t-6 -10t-11 -19q-4 -7 -9 -16t-9 -17.5t-6.5 -14t-2.5 -6.5q1 0 5.5 6.5t10 15t11 15.5t6.5 9q17 27 22 33
t10 1q6 -6 10 -14q1 -4 -1 -6q-14 -17 -21.5 -32.5t-9.5 -20.5zM571 447q-11 -11 -14 -17t-5 -6t-10 11q-5 5 -1 9q10 14 14.5 19t7.5 5q2 0 9 -14q1 0 1 -3q0 -2 -2 -4zM598 423q-2 4 -7 -1q-5 -4 -9 -8.5t-7 -9.5q-2 -1 -1 -1.5t2 -0.5q2 -2 6 -2.5t11 1.5q1 0 3 2
q2 5 3 10t-1 10zM424 354q12 13 24 29t20 27q2 2 0 2q-6 4 -9 4q-5 0 -11 -8t-11.5 -18.5t-9 -20.5t-3.5 -15zM570 395q-2 -1 -9.5 -15t-9.5 -24q-2 -4 2 -2q5 1 10.5 5.5t10 9t7.5 9t3 5.5q-11 2 -14 12zM449 249h9v-62h-9v62zM115 212v-25h-9v59h20q11 0 16 -5.5t5 -12.5
q0 -6 -5 -11t-16 -5h-11zM492 246h10v-38q0 -13 13 -13q14 0 14 13v38h9v-37q0 -11 -6.5 -16.5t-16.5 -5.5q-9 0 -16 5.5t-7 16.5v37zM138 228q0 9 -7 9h-16v-18q9 0 16 0.5t7 8.5zM247 202q1 -7 9 -7t8 5q0 3 -4 4.5t-9.5 3t-9.5 4.5t-4 9t6 9.5t13 3.5t12.5 -3t5.5 -11
h-10q-1 7 -8.5 6.5t-7.5 -5.5q0 -3 4 -4.5t9 -3t9 -4.5t4 -9q0 -7 -5 -10t-12 -3t-13 3.5t-7 11.5h10zM558 202q0 -7 9 -7t9 5q0 3 -4 4.5t-9.5 3t-9.5 4.5t-4 9t5.5 9.5t12.5 3.5q6 0 11.5 -3t5.5 -11h-9q-2 7 -9.5 6.5t-7.5 -5.5q0 -3 4 -4.5t9 -3t9.5 -4.5t4.5 -9
q0 -7 -5.5 -10t-11.5 -3q-8 0 -13.5 3.5t-6.5 11.5h10zM427 234h9v-47h-9v7q-6 -7 -16 -7q-8 0 -15 6t-7 17q0 12 7 18t15 6q10 0 16 -7v7zM176 187q-23 0 -23 23q0 12 7 18t16 6t16 -6.5t5 -20.5h-35q2 -12 14 -12q8 0 11 6h10q-5 -14 -21 -14zM370 213q0 13 -12 13
q-10 0 -10 -13v-26h-11v47h11v-6q5 6 14 6q7 0 12.5 -4.5t5.5 -14.5v-28h-10v26zM304 187q-11 0 -16.5 7.5t-5.5 16t5.5 16t16.5 7.5q12 0 18 -7.5t6 -16t-6 -16t-18 -7.5zM217 187h-9v47h9v-7q4 7 15 7v-10q-5 0 -10 -1.5t-5 -10.5v-25zM615 187q-12 0 -17.5 7.5t-5.5 16
t5.5 16t17.5 7.5q11 0 17.5 -8t4.5 -19h-35q2 -13 13 -13q8 0 11 7h10q-5 -14 -21 -14zM628 215q0 5 -4 8.5t-9 3.5q-11 0 -13 -12h26zM188 215q0 12 -13 12q-11 0 -13 -12h26zM398 210q0 -8 4.5 -11.5t10.5 -3.5q5 0 9.5 3.5t4.5 11.5t-4.5 12.5t-9.5 4.5q-6 0 -10.5 -4.5
t-4.5 -12.5zM304 195q7 0 10.5 5t3.5 10.5t-3.5 10.5t-10.5 5q-6 0 -9.5 -5t-3.5 -10.5t3.5 -10.5t9.5 -5z" />
    <glyph glyph-name="three" unicode="3" 
d="M391 511l84 85q3 4 7 0q6 -8 7 -13q1 -4 -1.5 -6.5l-11.5 -11.5q-19 -21 -32 -46l1 2q12 10 25 22.5t24 24t19 21.5t10 15q1 2 5 1q2 -1 2.5 -3t5.5 -10q5 -6 0 -14q-17 -21 -29.5 -42t-25 -37.5t-27 -27.5t-36.5 -13q-14 -2 -27 2t-23 14q-1 2 -2 3.5l-3 4.5q2 2 5 -1
q14 -6 26 -6q28 0 49 17t34 40q-2 0 -2 -0.5t-1 -0.5q-5 -6 -13.5 -14t-15.5 -13q-2 -2 -4 0q-10 10 -14 19q-2 2 -1 3.5t1 3.5q-1 0 -6 -4.5t-10 -10.5t-9.5 -11t-5.5 -6q-1 -2 -7 -1q-10 3 -15 15q-4 5 -1 11q-13 -13 -18 -18.5t-6.5 -7t-1.5 -1t-3 -1.5q-3 -4 -11 5
t-12 19q-2 4 0 6.5t7 10.5l-30 -33t-15 -16l-6 -6t-3 -2q-8 -2 -12 8q-10 13 -11.5 17.5t1.5 7.5q3 8 6.5 14t8.5 13q2 4 -1.5 4t-24.5 -2q-14 -2 -16.5 -2.5t-4.5 -2.5q-6 -7 -16.5 -19t-20.5 -26t-17 -27.5t-7 -22.5q0 -4 -3 -4q-4 0 -9.5 6.5t-8.5 14.5q-4 6 0 12
q8 15 15.5 27t22.5 29q1 2 1 3l-4.5 -1.5t-11 -3.5t-13.5 -4.5t-13 -5.5q-4 -2 -7.5 -4.5t-6.5 -6.5q-1 -1 -3 -1.5t-2 1.5q-1 5 -1 12.5t1 12.5q0 3 3.5 6t18.5 5q22 5 34 7l18 3t8 1.5t4 2.5q15 15 35 31t42.5 31t45 27.5t42.5 19.5q3 1 6 -2q4 -6 7 -21q0 -2 -4 -6
q-13 -12 -25.5 -24.5t-21.5 -23.5t-14.5 -18.5t-5.5 -8.5q1 -1 4 -1q2 -1 3 -0.5t1 -1.5q2 -5 -3 -7q-4 -2 -8 -1t-6 -3q-3 -3 -7 -10.5t-8.5 -15t-7.5 -13.5t-3 -7q2 1 28 28.5t83 84.5q-1 1 -2 1q-11 -1 -13 -1t-3 1q0 3 2 3q12 3 17 3.5t8.5 3t10.5 9.5t23 24q3 5 8 0
q7 -11 3.5 -15l-10.5 -12q-1 -2 -1 -3q11 0 17 0.5t8.5 1t3.5 1.5l2 2q2 1 11 10t11 10q2 2 6 -3q2 -2 2 -5t1 -5q0 -3 -6 -8q0 -2 2 -1.5t13 0.5q8 0 12 -5.5t0 -13.5q0 -1 -1 -1.5t-2 1.5q-10 6 -34 6q-1 0 -1.5 -0.5l-3.5 -3.5t-9 -10.5t-18 -21.5q-8 -8 -22.5 -26
t-28.5 -42zM334 623q-51 -26 -95 -67l2 -1q9 1 17.5 1.5t17.5 0.5q3 0 5.5 5t18.5 24q8 9 12 14t7.5 8.5l6.5 6.5zM342 510q26 26 51.5 52.5t51.5 52.5q-1 1 -9 0.5t-15 -0.5q-3 0 -7 -4q-19 -22 -35.5 -43t-36.5 -58zM612 538q-5 20 4 34.5t26 20.5q6 2 12.5 -0.5t11 -8.5
t6.5 -14.5t-1 -17.5q-7 -15 -21 -15q-5 0 -13 4q-5 3 -5 1q-1 -9 0 -18q0 -3 10 -3q7 0 16.5 3t19.5 11q19 15 26 36.5t-1 36.5q-2 2 -1 3h3q14 -9 16.5 -24.5t-2.5 -30.5q-10 -25 -28.5 -38t-37.5 -13q-14 0 -25.5 8t-15.5 25zM591 597l7 7t5 0q4 -1 6 -5t4 -7q2 -2 1 -2.5
t-1 -1.5q-9 -33 -25 -54.5t-31 -21.5q-8 0 -16 9q-3 -1 -3 -2q-5 -6 -14.5 -19.5t-11.5 -22.5q0 -4 -3.5 -4t-7.5 5q-5 8 -7.5 13t0.5 10q15 28 32 51.5t36 46.5q4 6 7 4q2 -4 3 -8t3 -9q1 -2 -2 -5q-5 -7 -9 -13t-9 -12q13 15 18 20.5t7.5 8t3.5 4t7 8.5zM546 530
q8 0 16.5 7.5t15 17t10 17.5t2.5 9q-11 -12 -22 -24.5t-22 -26.5zM638 558q7 0 13.5 6t4.5 11q-10 -6 -18 -17zM338 355q5 5 12 14.5t15.5 19.5t16 19.5t11.5 15.5q1 4 7 0q2 -2 4.5 -5.5t4.5 -8.5q0 -3 -1 -6q-4 -4 -9 -11t-9.5 -14.5t-7.5 -13t-4 -7.5q17 17 30 35
q5 6 10 13.5t11 14.5t12.5 10.5t12.5 0.5q10 -3 20 -10q1 -1 1.5 -1t3.5 3.5t11 14t24 30.5q3 3 5 0q6 -6 7 -14q2 -1 -1 -4q-6 -8 -13.5 -20t-15 -24.5t-14.5 -25t-10 -21.5q22 26 34 41t17.5 21.5t7.5 7t5 -2.5q5 -6 8 -13q1 -2 -1 -6q-4 -5 -6.5 -9.5t-6.5 -9.5
q-12 -19 -14 -23t-4 -11q15 18 21.5 26t9.5 11t3.5 4.5t3.5 6.5q10 16 20.5 28.5t24.5 4.5q3 -2 6.5 -4.5t4.5 -6.5q3 -3 -1 -3l-1 -1q2 -9 0.5 -13t1.5 -3q17 8 33 23t16 35q-2 1 -1 1.5t2 -0.5q11 -6 10.5 -18t-8.5 -24.5t-22 -23.5t-31 -15q-8 -1 -9 -3q-8 -20 -23 -33
q-7 -7 -12 -7q-8 0 -24 16q-4 5 -3.5 6t-8.5 -12q-4 -4 -6 -7q-5 -4 -10 -2t-11.5 6.5t-7.5 10.5q-1 0 -1 -2q-11 -14 -14 -18.5t-8 -2.5q-6 2 -11 6t-7 9q-4 5 -3 7l3 6q-10 -10 -20 -25q-3 -5 -11 -3q-5 2 -8 5.5t-6 5.5q-3 4 -3 7.5t1 6.5q-1 0 -2 -2q-14 -16 -19 -20.5
t-12 0.5q-3 3 -5 6t-4 5q-2 3 -1 4.5t2 6.5q-1 0 -1 -1v-1q-8 -10 -12.5 -16t-7 -8.5t-4.5 -2t-5 2.5q-4 2 -10 8.5t-6 10.5q-2 0 -2 -3q-14 -20 -17.5 -25.5t-8.5 -2.5q-4 3 -6.5 6t-6.5 7q-5 5 -6.5 7.5t-0.5 7.5q6 24 20 46t20 33q-14 -4 -27 -8.5t-24 -12.5
q-16 -11 -24.5 -23.5t-8.5 -17.5q-1 -5 -7.5 0.5t-8.5 19.5q-1 5 4.5 12.5t13 16.5t14.5 18t10 17q1 5 -3 6q-8 0 -19 -6t-21.5 -16.5t-19.5 -23.5t-12 -26q-2 -6 3 -10.5t14 -8t20.5 -7t22.5 -9.5q14 -7 17 -14.5t-4 -6.5q-11 3 -28 -1.5t-35.5 -11t-37.5 -13t-35 -8.5
q-9 -1 -23 0.5t-16 8.5q-1 4 2 3.5t5 -1.5q3 -2 7 -1t8 1q14 2 25.5 7t23 11.5t24.5 13t28 10.5l-2 2q-10 4 -19.5 10.5t-14.5 14.5q-7 12 -2 29t16.5 33.5t27.5 28t31 11.5q19 0 28 -16q6 -10 4.5 -16t-0.5 -8h2q16 9 38 12q14 2 17 2t6 4q2 3 8.5 11t11.5 13q1 3 4 0
q4 -2 6 -5t5 -6q1 -3 -0.5 -4.5t-6.5 -8.5v-1q-1 0 -1 -2h3h20t20 -1q5 0 3.5 -2.5t-5.5 -7.5q-1 -4 -15 -4q-9 -1 -17.5 -1t-16.5 -1q-2 0 -3.5 -0.5t-3.5 -3.5t-6 -10t-11 -19q-4 -7 -9 -16t-9 -17.5t-6.5 -14t-2.5 -6.5q1 0 5.5 6.5t10 15t11 15.5t6.5 9q17 27 22 33
t10 1q6 -6 10 -14q1 -4 -1 -6q-14 -17 -21.5 -32.5t-9.5 -20.5zM571 447q-11 -11 -14 -17t-5 -6t-10 11q-5 5 -1 9q10 14 14.5 19t7.5 5q2 0 9 -14q1 0 1 -3q0 -2 -2 -4zM598 423q-2 4 -7 -1q-5 -4 -9 -8.5t-7 -9.5q-2 -1 -1 -1.5t2 -0.5q2 -2 6 -2.5t11 1.5q1 0 3 2
q2 5 3 10t-1 10zM424 354q12 13 24 29t20 27q2 2 0 2q-6 4 -9 4q-5 0 -11 -8t-11.5 -18.5t-9 -20.5t-3.5 -15zM570 395q-2 -1 -9.5 -15t-9.5 -24q-2 -4 2 -2q5 1 10.5 5.5t10 9t7.5 9t3 5.5q-11 2 -14 12zM449 249h9v-62h-9v62zM115 212v-25h-9v59h20q11 0 16 -5.5t5 -12.5
q0 -6 -5 -11t-16 -5h-11zM492 246h10v-38q0 -13 13 -13q14 0 14 13v38h9v-37q0 -11 -6.5 -16.5t-16.5 -5.5q-9 0 -16 5.5t-7 16.5v37zM138 228q0 9 -7 9h-16v-18q9 0 16 0.5t7 8.5zM247 202q1 -7 9 -7t8 5q0 3 -4 4.5t-9.5 3t-9.5 4.5t-4 9t6 9.5t13 3.5t12.5 -3t5.5 -11
h-10q-1 7 -8.5 6.5t-7.5 -5.5q0 -3 4 -4.5t9 -3t9 -4.5t4 -9q0 -7 -5 -10t-12 -3t-13 3.5t-7 11.5h10zM558 202q0 -7 9 -7t9 5q0 3 -4 4.5t-9.5 3t-9.5 4.5t-4 9t5.5 9.5t12.5 3.5q6 0 11.5 -3t5.5 -11h-9q-2 7 -9.5 6.5t-7.5 -5.5q0 -3 4 -4.5t9 -3t9.5 -4.5t4.5 -9
q0 -7 -5.5 -10t-11.5 -3q-8 0 -13.5 3.5t-6.5 11.5h10zM427 234h9v-47h-9v7q-6 -7 -16 -7q-8 0 -15 6t-7 17q0 12 7 18t15 6q10 0 16 -7v7zM176 187q-23 0 -23 23q0 12 7 18t16 6t16 -6.5t5 -20.5h-35q2 -12 14 -12q8 0 11 6h10q-5 -14 -21 -14zM370 213q0 13 -12 13
q-10 0 -10 -13v-26h-11v47h11v-6q5 6 14 6q7 0 12.5 -4.5t5.5 -14.5v-28h-10v26zM304 187q-11 0 -16.5 7.5t-5.5 16t5.5 16t16.5 7.5q12 0 18 -7.5t6 -16t-6 -16t-18 -7.5zM217 187h-9v47h9v-7q4 7 15 7v-10q-5 0 -10 -1.5t-5 -10.5v-25zM615 187q-12 0 -17.5 7.5t-5.5 16
t5.5 16t17.5 7.5q11 0 17.5 -8t4.5 -19h-35q2 -13 13 -13q8 0 11 7h10q-5 -14 -21 -14zM628 215q0 5 -4 8.5t-9 3.5q-11 0 -13 -12h26zM188 215q0 12 -13 12q-11 0 -13 -12h26zM398 210q0 -8 4.5 -11.5t10.5 -3.5q5 0 9.5 3.5t4.5 11.5t-4.5 12.5t-9.5 4.5q-6 0 -10.5 -4.5
t-4.5 -12.5zM304 195q7 0 10.5 5t3.5 10.5t-3.5 10.5t-10.5 5q-6 0 -9.5 -5t-3.5 -10.5t3.5 -10.5t9.5 -5z" />
    <glyph glyph-name="four" unicode="4" 
d="M391 511l84 85q3 4 7 0q6 -8 7 -13q1 -4 -1.5 -6.5l-11.5 -11.5q-19 -21 -32 -46l1 2q12 10 25 22.5t24 24t19 21.5t10 15q1 2 5 1q2 -1 2.5 -3t5.5 -10q5 -6 0 -14q-17 -21 -29.5 -42t-25 -37.5t-27 -27.5t-36.5 -13q-14 -2 -27 2t-23 14q-1 2 -2 3.5l-3 4.5q2 2 5 -1
q14 -6 26 -6q28 0 49 17t34 40q-2 0 -2 -0.5t-1 -0.5q-5 -6 -13.5 -14t-15.5 -13q-2 -2 -4 0q-10 10 -14 19q-2 2 -1 3.5t1 3.5q-1 0 -6 -4.5t-10 -10.5t-9.5 -11t-5.5 -6q-1 -2 -7 -1q-10 3 -15 15q-4 5 -1 11q-13 -13 -18 -18.5t-6.5 -7t-1.5 -1t-3 -1.5q-3 -4 -11 5
t-12 19q-2 4 0 6.5t7 10.5l-30 -33t-15 -16l-6 -6t-3 -2q-8 -2 -12 8q-10 13 -11.5 17.5t1.5 7.5q3 8 6.5 14t8.5 13q2 4 -1.5 4t-24.5 -2q-14 -2 -16.5 -2.5t-4.5 -2.5q-6 -7 -16.5 -19t-20.5 -26t-17 -27.5t-7 -22.5q0 -4 -3 -4q-4 0 -9.5 6.5t-8.5 14.5q-4 6 0 12
q8 15 15.5 27t22.5 29q1 2 1 3l-4.5 -1.5t-11 -3.5t-13.5 -4.5t-13 -5.5q-4 -2 -7.5 -4.5t-6.5 -6.5q-1 -1 -3 -1.5t-2 1.5q-1 5 -1 12.5t1 12.5q0 3 3.5 6t18.5 5q22 5 34 7l18 3t8 1.5t4 2.5q15 15 35 31t42.5 31t45 27.5t42.5 19.5q3 1 6 -2q4 -6 7 -21q0 -2 -4 -6
q-13 -12 -25.5 -24.5t-21.5 -23.5t-14.5 -18.5t-5.5 -8.5q1 -1 4 -1q2 -1 3 -0.5t1 -1.5q2 -5 -3 -7q-4 -2 -8 -1t-6 -3q-3 -3 -7 -10.5t-8.5 -15t-7.5 -13.5t-3 -7q2 1 28 28.5t83 84.5q-1 1 -2 1q-11 -1 -13 -1t-3 1q0 3 2 3q12 3 17 3.5t8.5 3t10.5 9.5t23 24q3 5 8 0
q7 -11 3.5 -15l-10.5 -12q-1 -2 -1 -3q11 0 17 0.5t8.5 1t3.5 1.5l2 2q2 1 11 10t11 10q2 2 6 -3q2 -2 2 -5t1 -5q0 -3 -6 -8q0 -2 2 -1.5t13 0.5q8 0 12 -5.5t0 -13.5q0 -1 -1 -1.5t-2 1.5q-10 6 -34 6q-1 0 -1.5 -0.5l-3.5 -3.5t-9 -10.5t-18 -21.5q-8 -8 -22.5 -26
t-28.5 -42zM334 623q-51 -26 -95 -67l2 -1q9 1 17.5 1.5t17.5 0.5q3 0 5.5 5t18.5 24q8 9 12 14t7.5 8.5l6.5 6.5zM342 510q26 26 51.5 52.5t51.5 52.5q-1 1 -9 0.5t-15 -0.5q-3 0 -7 -4q-19 -22 -35.5 -43t-36.5 -58zM612 538q-5 20 4 34.5t26 20.5q6 2 12.5 -0.5t11 -8.5
t6.5 -14.5t-1 -17.5q-7 -15 -21 -15q-5 0 -13 4q-5 3 -5 1q-1 -9 0 -18q0 -3 10 -3q7 0 16.5 3t19.5 11q19 15 26 36.5t-1 36.5q-2 2 -1 3h3q14 -9 16.5 -24.5t-2.5 -30.5q-10 -25 -28.5 -38t-37.5 -13q-14 0 -25.5 8t-15.5 25zM591 597l7 7t5 0q4 -1 6 -5t4 -7q2 -2 1 -2.5
t-1 -1.5q-9 -33 -25 -54.5t-31 -21.5q-8 0 -16 9q-3 -1 -3 -2q-5 -6 -14.5 -19.5t-11.5 -22.5q0 -4 -3.5 -4t-7.5 5q-5 8 -7.5 13t0.5 10q15 28 32 51.5t36 46.5q4 6 7 4q2 -4 3 -8t3 -9q1 -2 -2 -5q-5 -7 -9 -13t-9 -12q13 15 18 20.5t7.5 8t3.5 4t7 8.5zM546 530
q8 0 16.5 7.5t15 17t10 17.5t2.5 9q-11 -12 -22 -24.5t-22 -26.5zM638 558q7 0 13.5 6t4.5 11q-10 -6 -18 -17zM338 355q5 5 12 14.5t15.5 19.5t16 19.5t11.5 15.5q1 4 7 0q2 -2 4.5 -5.5t4.5 -8.5q0 -3 -1 -6q-4 -4 -9 -11t-9.5 -14.5t-7.5 -13t-4 -7.5q17 17 30 35
q5 6 10 13.5t11 14.5t12.5 10.5t12.5 0.5q10 -3 20 -10q1 -1 1.5 -1t3.5 3.5t11 14t24 30.5q3 3 5 0q6 -6 7 -14q2 -1 -1 -4q-6 -8 -13.5 -20t-15 -24.5t-14.5 -25t-10 -21.5q22 26 34 41t17.5 21.5t7.5 7t5 -2.5q5 -6 8 -13q1 -2 -1 -6q-4 -5 -6.5 -9.5t-6.5 -9.5
q-12 -19 -14 -23t-4 -11q15 18 21.5 26t9.5 11t3.5 4.5t3.5 6.5q10 16 20.5 28.5t24.5 4.5q3 -2 6.5 -4.5t4.5 -6.5q3 -3 -1 -3l-1 -1q2 -9 0.5 -13t1.5 -3q17 8 33 23t16 35q-2 1 -1 1.5t2 -0.5q11 -6 10.5 -18t-8.5 -24.5t-22 -23.5t-31 -15q-8 -1 -9 -3q-8 -20 -23 -33
q-7 -7 -12 -7q-8 0 -24 16q-4 5 -3.5 6t-8.5 -12q-4 -4 -6 -7q-5 -4 -10 -2t-11.5 6.5t-7.5 10.5q-1 0 -1 -2q-11 -14 -14 -18.5t-8 -2.5q-6 2 -11 6t-7 9q-4 5 -3 7l3 6q-10 -10 -20 -25q-3 -5 -11 -3q-5 2 -8 5.5t-6 5.5q-3 4 -3 7.5t1 6.5q-1 0 -2 -2q-14 -16 -19 -20.5
t-12 0.5q-3 3 -5 6t-4 5q-2 3 -1 4.5t2 6.5q-1 0 -1 -1v-1q-8 -10 -12.5 -16t-7 -8.5t-4.5 -2t-5 2.5q-4 2 -10 8.5t-6 10.5q-2 0 -2 -3q-14 -20 -17.5 -25.5t-8.5 -2.5q-4 3 -6.5 6t-6.5 7q-5 5 -6.5 7.5t-0.5 7.5q6 24 20 46t20 33q-14 -4 -27 -8.5t-24 -12.5
q-16 -11 -24.5 -23.5t-8.5 -17.5q-1 -5 -7.5 0.5t-8.5 19.5q-1 5 4.5 12.5t13 16.5t14.5 18t10 17q1 5 -3 6q-8 0 -19 -6t-21.5 -16.5t-19.5 -23.5t-12 -26q-2 -6 3 -10.5t14 -8t20.5 -7t22.5 -9.5q14 -7 17 -14.5t-4 -6.5q-11 3 -28 -1.5t-35.5 -11t-37.5 -13t-35 -8.5
q-9 -1 -23 0.5t-16 8.5q-1 4 2 3.5t5 -1.5q3 -2 7 -1t8 1q14 2 25.5 7t23 11.5t24.5 13t28 10.5l-2 2q-10 4 -19.5 10.5t-14.5 14.5q-7 12 -2 29t16.5 33.5t27.5 28t31 11.5q19 0 28 -16q6 -10 4.5 -16t-0.5 -8h2q16 9 38 12q14 2 17 2t6 4q2 3 8.5 11t11.5 13q1 3 4 0
q4 -2 6 -5t5 -6q1 -3 -0.5 -4.5t-6.5 -8.5v-1q-1 0 -1 -2h3h20t20 -1q5 0 3.5 -2.5t-5.5 -7.5q-1 -4 -15 -4q-9 -1 -17.5 -1t-16.5 -1q-2 0 -3.5 -0.5t-3.5 -3.5t-6 -10t-11 -19q-4 -7 -9 -16t-9 -17.5t-6.5 -14t-2.5 -6.5q1 0 5.5 6.5t10 15t11 15.5t6.5 9q17 27 22 33
t10 1q6 -6 10 -14q1 -4 -1 -6q-14 -17 -21.5 -32.5t-9.5 -20.5zM571 447q-11 -11 -14 -17t-5 -6t-10 11q-5 5 -1 9q10 14 14.5 19t7.5 5q2 0 9 -14q1 0 1 -3q0 -2 -2 -4zM598 423q-2 4 -7 -1q-5 -4 -9 -8.5t-7 -9.5q-2 -1 -1 -1.5t2 -0.5q2 -2 6 -2.5t11 1.5q1 0 3 2
q2 5 3 10t-1 10zM424 354q12 13 24 29t20 27q2 2 0 2q-6 4 -9 4q-5 0 -11 -8t-11.5 -18.5t-9 -20.5t-3.5 -15zM570 395q-2 -1 -9.5 -15t-9.5 -24q-2 -4 2 -2q5 1 10.5 5.5t10 9t7.5 9t3 5.5q-11 2 -14 12zM449 249h9v-62h-9v62zM115 212v-25h-9v59h20q11 0 16 -5.5t5 -12.5
q0 -6 -5 -11t-16 -5h-11zM492 246h10v-38q0 -13 13 -13q14 0 14 13v38h9v-37q0 -11 -6.5 -16.5t-16.5 -5.5q-9 0 -16 5.5t-7 16.5v37zM138 228q0 9 -7 9h-16v-18q9 0 16 0.5t7 8.5zM247 202q1 -7 9 -7t8 5q0 3 -4 4.5t-9.5 3t-9.5 4.5t-4 9t6 9.5t13 3.5t12.5 -3t5.5 -11
h-10q-1 7 -8.5 6.5t-7.5 -5.5q0 -3 4 -4.5t9 -3t9 -4.5t4 -9q0 -7 -5 -10t-12 -3t-13 3.5t-7 11.5h10zM558 202q0 -7 9 -7t9 5q0 3 -4 4.5t-9.5 3t-9.5 4.5t-4 9t5.5 9.5t12.5 3.5q6 0 11.5 -3t5.5 -11h-9q-2 7 -9.5 6.5t-7.5 -5.5q0 -3 4 -4.5t9 -3t9.5 -4.5t4.5 -9
q0 -7 -5.5 -10t-11.5 -3q-8 0 -13.5 3.5t-6.5 11.5h10zM427 234h9v-47h-9v7q-6 -7 -16 -7q-8 0 -15 6t-7 17q0 12 7 18t15 6q10 0 16 -7v7zM176 187q-23 0 -23 23q0 12 7 18t16 6t16 -6.5t5 -20.5h-35q2 -12 14 -12q8 0 11 6h10q-5 -14 -21 -14zM370 213q0 13 -12 13
q-10 0 -10 -13v-26h-11v47h11v-6q5 6 14 6q7 0 12.5 -4.5t5.5 -14.5v-28h-10v26zM304 187q-11 0 -16.5 7.5t-5.5 16t5.5 16t16.5 7.5q12 0 18 -7.5t6 -16t-6 -16t-18 -7.5zM217 187h-9v47h9v-7q4 7 15 7v-10q-5 0 -10 -1.5t-5 -10.5v-25zM615 187q-12 0 -17.5 7.5t-5.5 16
t5.5 16t17.5 7.5q11 0 17.5 -8t4.5 -19h-35q2 -13 13 -13q8 0 11 7h10q-5 -14 -21 -14zM628 215q0 5 -4 8.5t-9 3.5q-11 0 -13 -12h26zM188 215q0 12 -13 12q-11 0 -13 -12h26zM398 210q0 -8 4.5 -11.5t10.5 -3.5q5 0 9.5 3.5t4.5 11.5t-4.5 12.5t-9.5 4.5q-6 0 -10.5 -4.5
t-4.5 -12.5zM304 195q7 0 10.5 5t3.5 10.5t-3.5 10.5t-10.5 5q-6 0 -9.5 -5t-3.5 -10.5t3.5 -10.5t9.5 -5z" />
    <glyph glyph-name="five" unicode="5" 
d="M391 511l84 85q3 4 7 0q6 -8 7 -13q1 -4 -1.5 -6.5l-11.5 -11.5q-19 -21 -32 -46l1 2q12 10 25 22.5t24 24t19 21.5t10 15q1 2 5 1q2 -1 2.5 -3t5.5 -10q5 -6 0 -14q-17 -21 -29.5 -42t-25 -37.5t-27 -27.5t-36.5 -13q-14 -2 -27 2t-23 14q-1 2 -2 3.5l-3 4.5q2 2 5 -1
q14 -6 26 -6q28 0 49 17t34 40q-2 0 -2 -0.5t-1 -0.5q-5 -6 -13.5 -14t-15.5 -13q-2 -2 -4 0q-10 10 -14 19q-2 2 -1 3.5t1 3.5q-1 0 -6 -4.5t-10 -10.5t-9.5 -11t-5.5 -6q-1 -2 -7 -1q-10 3 -15 15q-4 5 -1 11q-13 -13 -18 -18.5t-6.5 -7t-1.5 -1t-3 -1.5q-3 -4 -11 5
t-12 19q-2 4 0 6.5t7 10.5l-30 -33t-15 -16l-6 -6t-3 -2q-8 -2 -12 8q-10 13 -11.5 17.5t1.5 7.5q3 8 6.5 14t8.5 13q2 4 -1.5 4t-24.5 -2q-14 -2 -16.5 -2.5t-4.5 -2.5q-6 -7 -16.5 -19t-20.5 -26t-17 -27.5t-7 -22.5q0 -4 -3 -4q-4 0 -9.5 6.5t-8.5 14.5q-4 6 0 12
q8 15 15.5 27t22.5 29q1 2 1 3l-4.5 -1.5t-11 -3.5t-13.5 -4.5t-13 -5.5q-4 -2 -7.5 -4.5t-6.5 -6.5q-1 -1 -3 -1.5t-2 1.5q-1 5 -1 12.5t1 12.5q0 3 3.5 6t18.5 5q22 5 34 7l18 3t8 1.5t4 2.5q15 15 35 31t42.5 31t45 27.5t42.5 19.5q3 1 6 -2q4 -6 7 -21q0 -2 -4 -6
q-13 -12 -25.5 -24.5t-21.5 -23.5t-14.5 -18.5t-5.5 -8.5q1 -1 4 -1q2 -1 3 -0.5t1 -1.5q2 -5 -3 -7q-4 -2 -8 -1t-6 -3q-3 -3 -7 -10.5t-8.5 -15t-7.5 -13.5t-3 -7q2 1 28 28.5t83 84.5q-1 1 -2 1q-11 -1 -13 -1t-3 1q0 3 2 3q12 3 17 3.5t8.5 3t10.5 9.5t23 24q3 5 8 0
q7 -11 3.5 -15l-10.5 -12q-1 -2 -1 -3q11 0 17 0.5t8.5 1t3.5 1.5l2 2q2 1 11 10t11 10q2 2 6 -3q2 -2 2 -5t1 -5q0 -3 -6 -8q0 -2 2 -1.5t13 0.5q8 0 12 -5.5t0 -13.5q0 -1 -1 -1.5t-2 1.5q-10 6 -34 6q-1 0 -1.5 -0.5l-3.5 -3.5t-9 -10.5t-18 -21.5q-8 -8 -22.5 -26
t-28.5 -42zM334 623q-51 -26 -95 -67l2 -1q9 1 17.5 1.5t17.5 0.5q3 0 5.5 5t18.5 24q8 9 12 14t7.5 8.5l6.5 6.5zM342 510q26 26 51.5 52.5t51.5 52.5q-1 1 -9 0.5t-15 -0.5q-3 0 -7 -4q-19 -22 -35.5 -43t-36.5 -58zM612 538q-5 20 4 34.5t26 20.5q6 2 12.5 -0.5t11 -8.5
t6.5 -14.5t-1 -17.5q-7 -15 -21 -15q-5 0 -13 4q-5 3 -5 1q-1 -9 0 -18q0 -3 10 -3q7 0 16.5 3t19.5 11q19 15 26 36.5t-1 36.5q-2 2 -1 3h3q14 -9 16.5 -24.5t-2.5 -30.5q-10 -25 -28.5 -38t-37.5 -13q-14 0 -25.5 8t-15.5 25zM591 597l7 7t5 0q4 -1 6 -5t4 -7q2 -2 1 -2.5
t-1 -1.5q-9 -33 -25 -54.5t-31 -21.5q-8 0 -16 9q-3 -1 -3 -2q-5 -6 -14.5 -19.5t-11.5 -22.5q0 -4 -3.5 -4t-7.5 5q-5 8 -7.5 13t0.5 10q15 28 32 51.5t36 46.5q4 6 7 4q2 -4 3 -8t3 -9q1 -2 -2 -5q-5 -7 -9 -13t-9 -12q13 15 18 20.5t7.5 8t3.5 4t7 8.5zM546 530
q8 0 16.5 7.5t15 17t10 17.5t2.5 9q-11 -12 -22 -24.5t-22 -26.5zM638 558q7 0 13.5 6t4.5 11q-10 -6 -18 -17zM338 355q5 5 12 14.5t15.5 19.5t16 19.5t11.5 15.5q1 4 7 0q2 -2 4.5 -5.5t4.5 -8.5q0 -3 -1 -6q-4 -4 -9 -11t-9.5 -14.5t-7.5 -13t-4 -7.5q17 17 30 35
q5 6 10 13.5t11 14.5t12.5 10.5t12.5 0.5q10 -3 20 -10q1 -1 1.5 -1t3.5 3.5t11 14t24 30.5q3 3 5 0q6 -6 7 -14q2 -1 -1 -4q-6 -8 -13.5 -20t-15 -24.5t-14.5 -25t-10 -21.5q22 26 34 41t17.5 21.5t7.5 7t5 -2.5q5 -6 8 -13q1 -2 -1 -6q-4 -5 -6.5 -9.5t-6.5 -9.5
q-12 -19 -14 -23t-4 -11q15 18 21.5 26t9.5 11t3.5 4.5t3.5 6.5q10 16 20.5 28.5t24.5 4.5q3 -2 6.5 -4.5t4.5 -6.5q3 -3 -1 -3l-1 -1q2 -9 0.5 -13t1.5 -3q17 8 33 23t16 35q-2 1 -1 1.5t2 -0.5q11 -6 10.5 -18t-8.5 -24.5t-22 -23.5t-31 -15q-8 -1 -9 -3q-8 -20 -23 -33
q-7 -7 -12 -7q-8 0 -24 16q-4 5 -3.5 6t-8.5 -12q-4 -4 -6 -7q-5 -4 -10 -2t-11.5 6.5t-7.5 10.5q-1 0 -1 -2q-11 -14 -14 -18.5t-8 -2.5q-6 2 -11 6t-7 9q-4 5 -3 7l3 6q-10 -10 -20 -25q-3 -5 -11 -3q-5 2 -8 5.5t-6 5.5q-3 4 -3 7.5t1 6.5q-1 0 -2 -2q-14 -16 -19 -20.5
t-12 0.5q-3 3 -5 6t-4 5q-2 3 -1 4.5t2 6.5q-1 0 -1 -1v-1q-8 -10 -12.5 -16t-7 -8.5t-4.5 -2t-5 2.5q-4 2 -10 8.5t-6 10.5q-2 0 -2 -3q-14 -20 -17.5 -25.5t-8.5 -2.5q-4 3 -6.5 6t-6.5 7q-5 5 -6.5 7.5t-0.5 7.5q6 24 20 46t20 33q-14 -4 -27 -8.5t-24 -12.5
q-16 -11 -24.5 -23.5t-8.5 -17.5q-1 -5 -7.5 0.5t-8.5 19.5q-1 5 4.5 12.5t13 16.5t14.5 18t10 17q1 5 -3 6q-8 0 -19 -6t-21.5 -16.5t-19.5 -23.5t-12 -26q-2 -6 3 -10.5t14 -8t20.5 -7t22.5 -9.5q14 -7 17 -14.5t-4 -6.5q-11 3 -28 -1.5t-35.5 -11t-37.5 -13t-35 -8.5
q-9 -1 -23 0.5t-16 8.5q-1 4 2 3.5t5 -1.5q3 -2 7 -1t8 1q14 2 25.5 7t23 11.5t24.5 13t28 10.5l-2 2q-10 4 -19.5 10.5t-14.5 14.5q-7 12 -2 29t16.5 33.5t27.5 28t31 11.5q19 0 28 -16q6 -10 4.5 -16t-0.5 -8h2q16 9 38 12q14 2 17 2t6 4q2 3 8.5 11t11.5 13q1 3 4 0
q4 -2 6 -5t5 -6q1 -3 -0.5 -4.5t-6.5 -8.5v-1q-1 0 -1 -2h3h20t20 -1q5 0 3.5 -2.5t-5.5 -7.5q-1 -4 -15 -4q-9 -1 -17.5 -1t-16.5 -1q-2 0 -3.5 -0.5t-3.5 -3.5t-6 -10t-11 -19q-4 -7 -9 -16t-9 -17.5t-6.5 -14t-2.5 -6.5q1 0 5.5 6.5t10 15t11 15.5t6.5 9q17 27 22 33
t10 1q6 -6 10 -14q1 -4 -1 -6q-14 -17 -21.5 -32.5t-9.5 -20.5zM571 447q-11 -11 -14 -17t-5 -6t-10 11q-5 5 -1 9q10 14 14.5 19t7.5 5q2 0 9 -14q1 0 1 -3q0 -2 -2 -4zM598 423q-2 4 -7 -1q-5 -4 -9 -8.5t-7 -9.5q-2 -1 -1 -1.5t2 -0.5q2 -2 6 -2.5t11 1.5q1 0 3 2
q2 5 3 10t-1 10zM424 354q12 13 24 29t20 27q2 2 0 2q-6 4 -9 4q-5 0 -11 -8t-11.5 -18.5t-9 -20.5t-3.5 -15zM570 395q-2 -1 -9.5 -15t-9.5 -24q-2 -4 2 -2q5 1 10.5 5.5t10 9t7.5 9t3 5.5q-11 2 -14 12zM449 249h9v-62h-9v62zM115 212v-25h-9v59h20q11 0 16 -5.5t5 -12.5
q0 -6 -5 -11t-16 -5h-11zM492 246h10v-38q0 -13 13 -13q14 0 14 13v38h9v-37q0 -11 -6.5 -16.5t-16.5 -5.5q-9 0 -16 5.5t-7 16.5v37zM138 228q0 9 -7 9h-16v-18q9 0 16 0.5t7 8.5zM247 202q1 -7 9 -7t8 5q0 3 -4 4.5t-9.5 3t-9.5 4.5t-4 9t6 9.5t13 3.5t12.5 -3t5.5 -11
h-10q-1 7 -8.5 6.5t-7.5 -5.5q0 -3 4 -4.5t9 -3t9 -4.5t4 -9q0 -7 -5 -10t-12 -3t-13 3.5t-7 11.5h10zM558 202q0 -7 9 -7t9 5q0 3 -4 4.5t-9.5 3t-9.5 4.5t-4 9t5.5 9.5t12.5 3.5q6 0 11.5 -3t5.5 -11h-9q-2 7 -9.5 6.5t-7.5 -5.5q0 -3 4 -4.5t9 -3t9.5 -4.5t4.5 -9
q0 -7 -5.5 -10t-11.5 -3q-8 0 -13.5 3.5t-6.5 11.5h10zM427 234h9v-47h-9v7q-6 -7 -16 -7q-8 0 -15 6t-7 17q0 12 7 18t15 6q10 0 16 -7v7zM176 187q-23 0 -23 23q0 12 7 18t16 6t16 -6.5t5 -20.5h-35q2 -12 14 -12q8 0 11 6h10q-5 -14 -21 -14zM370 213q0 13 -12 13
q-10 0 -10 -13v-26h-11v47h11v-6q5 6 14 6q7 0 12.5 -4.5t5.5 -14.5v-28h-10v26zM304 187q-11 0 -16.5 7.5t-5.5 16t5.5 16t16.5 7.5q12 0 18 -7.5t6 -16t-6 -16t-18 -7.5zM217 187h-9v47h9v-7q4 7 15 7v-10q-5 0 -10 -1.5t-5 -10.5v-25zM615 187q-12 0 -17.5 7.5t-5.5 16
t5.5 16t17.5 7.5q11 0 17.5 -8t4.5 -19h-35q2 -13 13 -13q8 0 11 7h10q-5 -14 -21 -14zM628 215q0 5 -4 8.5t-9 3.5q-11 0 -13 -12h26zM188 215q0 12 -13 12q-11 0 -13 -12h26zM398 210q0 -8 4.5 -11.5t10.5 -3.5q5 0 9.5 3.5t4.5 11.5t-4.5 12.5t-9.5 4.5q-6 0 -10.5 -4.5
t-4.5 -12.5zM304 195q7 0 10.5 5t3.5 10.5t-3.5 10.5t-10.5 5q-6 0 -9.5 -5t-3.5 -10.5t3.5 -10.5t9.5 -5z" />
    <glyph glyph-name="six" unicode="6" 
d="M391 511l84 86q3 3 7 -1q6 -8 7 -13q1 -4 -1.5 -6.5l-11.5 -11.5q-19 -21 -32 -46q12 11 25 23.5t24.5 24.5t19.5 22t10 15q1 2 5 1q2 -1 3 -3t6 -10q3 -7 -1 -14q-17 -21 -29.5 -42t-25 -37.5t-27 -27.5t-36.5 -13q-13 -2 -26.5 2t-23.5 14q-1 2 -2 3.5l-3 4.5q2 2 5 -1
q10 -6 26 -6q28 0 48.5 17t34.5 40q-2 0 -2 -0.5t-1 -0.5q-5 -6 -13.5 -14t-15.5 -13q-2 -2 -4 0q-10 10 -14 19v7q-1 0 -5.5 -4.5t-10 -10.5t-10 -11t-4.5 -6q-2 -2 -8 -1q-10 3 -15 15q-1 3 -2 5.5t1 5.5q-13 -13 -18 -18.5t-6.5 -6.5t-1.5 -0.5t-3 -2.5q-3 -4 -11 5
t-12 19q-2 4 0 6.5t7 10.5l-30 -33t-15 -16l-6 -6t-3 -2q-8 -2 -12 8q-10 13 -11 17.5t1 9.5q3 6 6.5 12.5t8.5 12.5q2 4 -1 4t-25 -2q-14 -2 -16.5 -2.5t-4.5 -2.5q-7 -7 -17 -19t-20 -26t-17 -27.5t-7 -22.5q0 -4 -3 -4q-4 0 -9.5 6.5t-8.5 15.5q-4 5 0 11q8 15 15.5 27
t22.5 29q1 2 1 3q-3 0 -11 -3t-17 -7t-17 -8.5t-11 -7.5q-1 -1 -3 -1.5t-2 1.5q-1 5 -1 12.5t1 12.5q0 3 4 6t18 5q22 5 34 7l18 3t8 1.5t4 2.5q15 15 35 31t42.5 31t45 27.5t42.5 19.5q3 1 6 -2q2 -2 3.5 -7.5t3.5 -13.5q0 -2 -4 -6q-13 -12 -25.5 -24.5t-21.5 -23.5
t-14.5 -18.5t-5.5 -8.5q1 -1 2 -1q6 0 6 -2q2 -6 -3 -6q-4 -2 -8 -1.5t-6 -3.5q-3 -3 -7 -10.5t-8.5 -15t-7.5 -13.5t-3 -7q2 1 28 28.5t83 85.5h-2q-11 -1 -13 -1t-3 1q0 3 2 3q12 3 17 3.5t8.5 3t10.5 9.5t23 24q3 5 8 0q7 -11 3.5 -15l-10.5 -12q-1 -2 -1 -3t0.5 -1
t0.5 1q22 1 25 1.5t5 3.5q2 1 11 10t11 10q2 2 6 -3q2 -2 2 -5t1 -5q0 -3 -6 -8q0 -1 2 -0.5t13 -0.5q8 0 12 -5.5t0 -13.5q0 -1 -1 -1.5t-2 1.5q-10 6 -34 6q-1 0 -1.5 -0.5l-3.5 -3.5t-9 -10.5t-18 -21.5q-8 -8 -22.5 -26t-28.5 -42zM334 623q-51 -26 -95 -67h11l17 1h9
q3 0 5.5 5t18.5 24q8 9 12 14t7.5 8.5l6.5 6.5zM414 611q-19 -22 -35.5 -43t-36.5 -58q26 26 51.5 52.5t51.5 52.5q-1 1 -9 0.5t-15 -0.5q-3 0 -7 -4zM612 538q-5 20 4 34.5t26 20.5q6 2 12.5 -0.5t11 -8.5t6.5 -14t-1 -17q-7 -16 -21 -16q-5 0 -13 4q-5 3 -5 1q-1 -9 0 -18
q0 -3 10 -3q7 0 16.5 3t19.5 11q19 15 26 36.5t-1 36.5q-2 2 -1 3h3q14 -9 16.5 -24.5t-2.5 -30.5q-10 -25 -29 -38t-37 -13q-15 0 -26 8t-15 25zM555 556q13 15 18 20.5t7.5 8l4 4t7.5 8.5q5 5 6.5 7t4.5 0q4 -1 6 -5t4 -7q3 -3 0 -4q-8 -33 -25 -54.5t-32 -21.5
q-8 0 -16 8q-2 0 -2 -1q-5 -6 -14 -19.5t-10 -22.5q-3 -9 -13 1q-5 8 -7.5 13t0.5 10q15 28 32 51.5t36 46.5q4 6 7 4q2 -4 3 -8t3 -9q2 -1 -2 -5q-5 -7 -9 -13t-9 -12zM546 530q8 0 16.5 7.5t15 17t10 17.5t2.5 9q-11 -12 -22 -24.5t-22 -26.5zM639 558q6 0 12.5 6t4.5 11
q-11 -6 -17 -17zM338 355q5 5 12 14.5t15.5 19.5t16 19.5t11.5 15.5q2 5 7 0q6 -6 9 -13q0 -4 -1 -7q-4 -4 -9 -11t-9.5 -14.5t-7.5 -13t-4 -7.5q17 17 30 35q5 6 10 13.5t11 14.5t12.5 10.5t12.5 0.5q10 -3 20 -10q1 -1 1.5 -1t3.5 3.5t11 14t24 30.5q3 3 5 0q6 -6 7 -14
q2 -1 -1 -4q-6 -8 -13.5 -20t-15 -24.5t-14.5 -25t-10 -21.5q23 26 34.5 41t17.5 21.5t7.5 7t4.5 -2.5q5 -6 8 -13q1 -2 -1 -6q-4 -5 -6.5 -9.5t-6.5 -9.5q-12 -19 -14 -23t-5 -11q15 18 22 26t10 11t3.5 4.5t3.5 6.5q10 16 20.5 28.5t24.5 4.5q3 -2 6.5 -4.5t4.5 -6.5
q3 -3 -1 -3l-1 -1q2 -9 0.5 -13t1.5 -3q18 8 33.5 23t15.5 35q-2 1 -1 1.5t2 -0.5q11 -6 10.5 -18t-8.5 -24.5t-22 -23.5t-31 -15q-8 -1 -9 -3q-1 -4 -5 -10.5t-8.5 -13t-10 -11t-10.5 -4.5t-10.5 3t-13.5 12q-5 5 -4.5 6t-8.5 -12l-6 -6q-5 -5 -10 -3t-11.5 6.5t-7.5 10.5
q-1 0 -1 -2q-11 -14 -14 -18.5t-8 -2.5q-6 2 -11 7t-7 8q-4 5 -3 7l3 6q-10 -10 -20 -25q-4 -6 -11 -2q-5 2 -8 5t-6 5q-3 4 -3 7.5t1 6.5q-1 0 -2 -2q-14 -16 -19 -20.5t-12 0.5q-3 3 -5 6t-4 5q-2 3 -1 4.5t2 6.5l-1 -2q-8 -10 -12.5 -16t-7 -8.5t-4.5 -2t-5 2.5
q-4 2 -10 8.5t-6 10.5q-2 0 -2 -3q-14 -20 -17.5 -25.5t-8.5 -1.5q-4 2 -6.5 5t-6.5 7q-5 5 -6.5 7.5t-0.5 7.5q6 24 20 46l21 33q-14 -4 -27.5 -8.5t-24.5 -12.5q-16 -11 -24.5 -23.5t-8.5 -17.5q-1 -5 -7.5 0.5t-8.5 19.5q-1 5 4.5 12.5t13 16.5t14.5 18t10 17q1 5 -3 6
q-8 0 -19 -6t-21.5 -16.5t-19.5 -23.5t-12 -26q-2 -6 3 -10.5t14 -8t20.5 -7t22.5 -9.5q14 -7 17 -14.5t-4 -6.5q-11 3 -28 -1.5t-35.5 -11t-37.5 -13t-35 -8.5q-9 -1 -23 0.5t-16 8.5q-1 4 2 3.5t5 -1.5q3 -2 7 -1t8 1q14 2 25.5 7t23 11.5t24.5 13t28 10.5l-2 2
q-10 4 -19.5 10.5t-14.5 14.5q-7 11 -2 28.5t17 34t28 28t31 11.5q17 0 27 -16q6 -10 4.5 -16t-0.5 -8q19 9 40 12q14 2 17 2t6 4q2 3 8.5 11.5t11.5 12.5q1 3 4 0q4 -2 6 -5t5 -6q1 -3 -0.5 -4.5t-6.5 -8.5v-1q-1 0 -1 -2h3h20.5t19.5 -1q5 0 3.5 -2.5t-5.5 -7.5
q-1 -4 -15 -4q-9 0 -17.5 -0.5t-16.5 -1.5q-1 0 -2.5 -0.5t-4 -3.5t-6.5 -10t-11 -19q-4 -7 -9 -16t-9 -17.5t-6.5 -14t-2.5 -6.5q1 0 5.5 6.5t10 15t11 15.5t6.5 9q17 27 22 33t10 1q6 -6 10 -14q1 -4 -1 -6q-14 -17 -21.5 -32.5t-9.5 -20.5zM551 423l-9 12q-5 5 -1 9
q9 14 14 19t8 5q2 0 9 -14q1 0 1 -3q0 -1 -3.5 -5.5t-7.5 -9.5t-7.5 -9zM598 423q-2 4 -7 -1q-5 -4 -9 -8.5t-7 -9.5q-2 -1 -1 -1.5t2 -0.5q2 -2 6 -2.5t11 1.5q3 0 3 2q2 5 3 10t-1 10zM458 416q-5 0 -11 -8t-11 -18.5t-8.5 -21t-3.5 -14.5q12 13 24 29t20 27q2 2 0 2
q-4 4 -10 4zM570 395q-2 -1 -9.5 -15t-9.5 -24q-2 -4 2 -2q5 1 10.5 5.5t10 9t7.5 9t3 5.5q-11 2 -14 12zM449 249h9v-61h-9v61zM115 212v-24h-9v58h20q11 0 16 -5.5t5 -12.5q0 -6 -5 -11t-16 -5h-11zM492 246h10v-38q0 -13 14 -13q13 0 13 13v38h9v-37q0 -11 -6.5 -16.5
t-16.5 -5.5q-9 0 -16 5.5t-7 16.5v37zM138 228q0 9 -7 9h-16v-18q9 0 16 0.5t7 8.5zM247 202q1 -7 9 -7t8 5q0 3 -4 4.5t-8.5 3t-8.5 4.5t-4 9t5.5 10t11.5 4t12 -3.5t6 -11.5h-10q-1 7 -8.5 6.5t-7.5 -5.5q0 -3 4 -4.5t9 -3t9 -4.5t4 -9t-5 -9.5t-12 -3.5t-12.5 3.5
t-7.5 11.5h10zM558 202q0 -7 9 -7t9 5q0 3 -4 4.5t-9.5 3t-9.5 4.5t-4 9t5.5 10t11.5 4q7 0 12.5 -3.5t5.5 -11.5h-9q-2 7 -9.5 6.5t-7.5 -5.5q0 -3 4 -4.5t9 -3t9.5 -4.5t4.5 -9t-5 -9.5t-12 -3.5q-8 0 -13.5 3.5t-6.5 11.5h10zM176 187q-23 0 -23 23q0 13 7 18.5t15 5.5
q10 0 17.5 -7t4.5 -20h-35q2 -12 14 -12q8 0 11 6h10q-5 -14 -21 -14zM427 234h9v-46h-9v6q-6 -7 -16 -7q-8 0 -15 5.5t-7 17.5q0 13 7 18.5t15 5.5q10 0 16 -7v7zM370 213q0 13 -10 13q-12 0 -12 -13v-25h-11v46h11v-6q5 6 14 6q6 0 12 -4.5t6 -14.5v-27h-10v25zM615 187
q-12 0 -17.5 7.5t-5.5 16t5.5 16t17.5 7.5t18 -8t4 -19h-35q2 -12 13 -12q7 0 11 6h10q-5 -14 -21 -14zM217 188h-9v46h9v-7q4 7 15 7v-10q-5 0 -10 -1.5t-5 -10.5v-24zM304 187q-11 0 -16.5 7.5t-5.5 16t5.5 16t16.5 7.5q12 0 18 -7.5t6 -16t-6 -16t-18 -7.5zM398 210
q0 -7 4.5 -11t9.5 -4q6 0 10.5 4t4.5 11q0 8 -4.5 12.5t-10.5 4.5q-5 0 -9.5 -4.5t-4.5 -12.5zM628 215q0 12 -13 12q-11 0 -13 -12h26zM188 215q0 12 -13 12q-5 0 -8.5 -3t-3.5 -9h25zM304 195q7 0 10.5 5t3.5 10.5t-3.5 10.5t-10.5 5q-6 0 -9.5 -5t-3.5 -10.5t3.5 -10.5
t9.5 -5z" />
    <glyph glyph-name="eight" unicode="8" 
d="M391 511l84 85q3 4 7 0q6 -8 7 -13q1 -4 -1.5 -6.5l-11.5 -11.5q-19 -21 -32 -46l1 2q12 10 25 22.5t24 24t19 21.5t10 15q1 2 5 1q2 -1 2.5 -3t5.5 -10q5 -6 0 -14q-17 -21 -29.5 -42t-25 -37.5t-27 -27.5t-36.5 -13q-14 -2 -27 2t-23 14q-1 2 -2 3.5l-3 4.5q2 2 5 -1
q14 -6 26 -6q28 0 49 17t34 40q-2 0 -2 -0.5t-1 -0.5q-5 -6 -13.5 -14t-15.5 -13q-2 -2 -4 0q-10 10 -14 19q-2 2 -1 3.5t1 3.5q-1 0 -6 -4.5t-10 -10.5t-9.5 -11t-5.5 -6q-1 -2 -7 -1q-10 3 -15 15q-4 5 -1 11q-13 -13 -18 -18.5t-6.5 -7t-1.5 -1t-3 -1.5q-3 -4 -11 5
t-12 19q-2 4 0 6.5t7 10.5l-30 -33t-15 -16l-6 -6t-3 -2q-8 -2 -12 8q-10 13 -11.5 17.5t1.5 7.5q3 8 6.5 14t8.5 13q2 4 -1.5 4t-24.5 -2q-14 -2 -16.5 -2.5t-4.5 -2.5q-6 -7 -16.5 -19t-20.5 -26t-17 -27.5t-7 -22.5q0 -4 -3 -4q-4 0 -9.5 6.5t-8.5 14.5q-4 6 0 12
q8 15 15.5 27t22.5 29q1 2 1 3l-4.5 -1.5t-11 -3.5t-13.5 -4.5t-13 -5.5q-4 -2 -7.5 -4.5t-6.5 -6.5q-1 -1 -3 -1.5t-2 1.5q-1 5 -1 12.5t1 12.5q0 3 3.5 6t18.5 5q22 5 34 7l18 3t8 1.5t4 2.5q15 15 35 31t42.5 31t45 27.5t42.5 19.5q3 1 6 -2q4 -6 7 -21q0 -2 -4 -6
q-13 -12 -25.5 -24.5t-21.5 -23.5t-14.5 -18.5t-5.5 -8.5q1 -1 4 -1q2 -1 3 -0.5t1 -1.5q2 -5 -3 -7q-4 -2 -8 -1t-6 -3q-3 -3 -7 -10.5t-8.5 -15t-7.5 -13.5t-3 -7q2 1 28 28.5t83 84.5q-1 1 -2 1q-11 -1 -13 -1t-3 1q0 3 2 3q12 3 17 3.5t8.5 3t10.5 9.5t23 24q3 5 8 0
q7 -11 3.5 -15l-10.5 -12q-1 -2 -1 -3q11 0 17 0.5t8.5 1t3.5 1.5l2 2q2 1 11 10t11 10q2 2 6 -3q2 -2 2 -5t1 -5q0 -3 -6 -8q0 -2 2 -1.5t13 0.5q8 0 12 -5.5t0 -13.5q0 -1 -1 -1.5t-2 1.5q-10 6 -34 6q-1 0 -1.5 -0.5l-3.5 -3.5t-9 -10.5t-18 -21.5q-8 -8 -22.5 -26
t-28.5 -42zM334 623q-51 -26 -95 -67l2 -1q9 1 17.5 1.5t17.5 0.5q3 0 5.5 5t18.5 24q8 9 12 14t7.5 8.5l6.5 6.5zM342 510q26 26 51.5 52.5t51.5 52.5q-1 1 -9 0.5t-15 -0.5q-3 0 -7 -4q-19 -22 -35.5 -43t-36.5 -58zM612 538q-5 20 4 34.5t26 20.5q6 2 12.5 -0.5t11 -8.5
t6.5 -14.5t-1 -17.5q-7 -15 -21 -15q-5 0 -13 4q-5 3 -5 1q-1 -9 0 -18q0 -3 10 -3q7 0 16.5 3t19.5 11q19 15 26 36.5t-1 36.5q-2 2 -1 3h3q14 -9 16.5 -24.5t-2.5 -30.5q-10 -25 -28.5 -38t-37.5 -13q-14 0 -25.5 8t-15.5 25zM591 597l7 7t5 0q4 -1 6 -5t4 -7q2 -2 1 -2.5
t-1 -1.5q-9 -33 -25 -54.5t-31 -21.5q-8 0 -16 9q-3 -1 -3 -2q-5 -6 -14.5 -19.5t-11.5 -22.5q0 -4 -3.5 -4t-7.5 5q-5 8 -7.5 13t0.5 10q15 28 32 51.5t36 46.5q4 6 7 4q2 -4 3 -8t3 -9q1 -2 -2 -5q-5 -7 -9 -13t-9 -12q13 15 18 20.5t7.5 8t3.5 4t7 8.5zM546 530
q8 0 16.5 7.5t15 17t10 17.5t2.5 9q-11 -12 -22 -24.5t-22 -26.5zM638 558q7 0 13.5 6t4.5 11q-10 -6 -18 -17zM338 355q5 5 12 14.5t15.5 19.5t16 19.5t11.5 15.5q1 4 7 0q2 -2 4.5 -5.5t4.5 -8.5q0 -3 -1 -6q-4 -4 -9 -11t-9.5 -14.5t-7.5 -13t-4 -7.5q17 17 30 35
q5 6 10 13.5t11 14.5t12.5 10.5t12.5 0.5q10 -3 20 -10q1 -1 1.5 -1t3.5 3.5t11 14t24 30.5q3 3 5 0q6 -6 7 -14q2 -1 -1 -4q-6 -8 -13.5 -20t-15 -24.5t-14.5 -25t-10 -21.5q22 26 34 41t17.5 21.5t7.5 7t5 -2.5q5 -6 8 -13q1 -2 -1 -6q-4 -5 -6.5 -9.5t-6.5 -9.5
q-12 -19 -14 -23t-4 -11q15 18 21.5 26t9.5 11t3.5 4.5t3.5 6.5q10 16 20.5 28.5t24.5 4.5q3 -2 6.5 -4.5t4.5 -6.5q3 -3 -1 -3l-1 -1q2 -9 0.5 -13t1.5 -3q17 8 33 23t16 35q-2 1 -1 1.5t2 -0.5q11 -6 10.5 -18t-8.5 -24.5t-22 -23.5t-31 -15q-8 -1 -9 -3q-8 -20 -23 -33
q-7 -7 -12 -7q-8 0 -24 16q-4 5 -3.5 6t-8.5 -12q-4 -4 -6 -7q-5 -4 -10 -2t-11.5 6.5t-7.5 10.5q-1 0 -1 -2q-11 -14 -14 -18.5t-8 -2.5q-6 2 -11 6t-7 9q-4 5 -3 7l3 6q-10 -10 -20 -25q-3 -5 -11 -3q-5 2 -8 5.5t-6 5.5q-3 4 -3 7.5t1 6.5q-1 0 -2 -2q-14 -16 -19 -20.5
t-12 0.5q-3 3 -5 6t-4 5q-2 3 -1 4.5t2 6.5q-1 0 -1 -1v-1q-8 -10 -12.5 -16t-7 -8.5t-4.5 -2t-5 2.5q-4 2 -10 8.5t-6 10.5q-2 0 -2 -3q-14 -20 -17.5 -25.5t-8.5 -2.5q-4 3 -6.5 6t-6.5 7q-5 5 -6.5 7.5t-0.5 7.5q6 24 20 46t20 33q-14 -4 -27 -8.5t-24 -12.5
q-16 -11 -24.5 -23.5t-8.5 -17.5q-1 -5 -7.5 0.5t-8.5 19.5q-1 5 4.5 12.5t13 16.5t14.5 18t10 17q1 5 -3 6q-8 0 -19 -6t-21.5 -16.5t-19.5 -23.5t-12 -26q-2 -6 3 -10.5t14 -8t20.5 -7t22.5 -9.5q14 -7 17 -14.5t-4 -6.5q-11 3 -28 -1.5t-35.5 -11t-37.5 -13t-35 -8.5
q-9 -1 -23 0.5t-16 8.5q-1 4 2 3.5t5 -1.5q3 -2 7 -1t8 1q14 2 25.5 7t23 11.5t24.5 13t28 10.5l-2 2q-10 4 -19.5 10.5t-14.5 14.5q-7 12 -2 29t16.5 33.5t27.5 28t31 11.5q19 0 28 -16q6 -10 4.5 -16t-0.5 -8h2q16 9 38 12q14 2 17 2t6 4q2 3 8.5 11t11.5 13q1 3 4 0
q4 -2 6 -5t5 -6q1 -3 -0.5 -4.5t-6.5 -8.5v-1q-1 0 -1 -2h3h20t20 -1q5 0 3.5 -2.5t-5.5 -7.5q-1 -4 -15 -4q-9 -1 -17.5 -1t-16.5 -1q-2 0 -3.5 -0.5t-3.5 -3.5t-6 -10t-11 -19q-4 -7 -9 -16t-9 -17.5t-6.5 -14t-2.5 -6.5q1 0 5.5 6.5t10 15t11 15.5t6.5 9q17 27 22 33
t10 1q6 -6 10 -14q1 -4 -1 -6q-14 -17 -21.5 -32.5t-9.5 -20.5zM571 447q-11 -11 -14 -17t-5 -6t-10 11q-5 5 -1 9q10 14 14.5 19t7.5 5q2 0 9 -14q1 0 1 -3q0 -2 -2 -4zM598 423q-2 4 -7 -1q-5 -4 -9 -8.5t-7 -9.5q-2 -1 -1 -1.5t2 -0.5q2 -2 6 -2.5t11 1.5q1 0 3 2
q2 5 3 10t-1 10zM424 354q12 13 24 29t20 27q2 2 0 2q-6 4 -9 4q-5 0 -11 -8t-11.5 -18.5t-9 -20.5t-3.5 -15zM570 395q-2 -1 -9.5 -15t-9.5 -24q-2 -4 2 -2q5 1 10.5 5.5t10 9t7.5 9t3 5.5q-11 2 -14 12zM449 249h9v-62h-9v62zM115 212v-25h-9v59h20q11 0 16 -5.5t5 -12.5
q0 -6 -5 -11t-16 -5h-11zM492 246h10v-38q0 -13 13 -13q14 0 14 13v38h9v-37q0 -11 -6.5 -16.5t-16.5 -5.5q-9 0 -16 5.5t-7 16.5v37zM138 228q0 9 -7 9h-16v-18q9 0 16 0.5t7 8.5zM247 202q1 -7 9 -7t8 5q0 3 -4 4.5t-9.5 3t-9.5 4.5t-4 9t6 9.5t13 3.5t12.5 -3t5.5 -11
h-10q-1 7 -8.5 6.5t-7.5 -5.5q0 -3 4 -4.5t9 -3t9 -4.5t4 -9q0 -7 -5 -10t-12 -3t-13 3.5t-7 11.5h10zM558 202q0 -7 9 -7t9 5q0 3 -4 4.5t-9.5 3t-9.5 4.5t-4 9t5.5 9.5t12.5 3.5q6 0 11.5 -3t5.5 -11h-9q-2 7 -9.5 6.5t-7.5 -5.5q0 -3 4 -4.5t9 -3t9.5 -4.5t4.5 -9
q0 -7 -5.5 -10t-11.5 -3q-8 0 -13.5 3.5t-6.5 11.5h10zM427 234h9v-47h-9v7q-6 -7 -16 -7q-8 0 -15 6t-7 17q0 12 7 18t15 6q10 0 16 -7v7zM176 187q-23 0 -23 23q0 12 7 18t16 6t16 -6.5t5 -20.5h-35q2 -12 14 -12q8 0 11 6h10q-5 -14 -21 -14zM370 213q0 13 -12 13
q-10 0 -10 -13v-26h-11v47h11v-6q5 6 14 6q7 0 12.5 -4.5t5.5 -14.5v-28h-10v26zM304 187q-11 0 -16.5 7.5t-5.5 16t5.5 16t16.5 7.5q12 0 18 -7.5t6 -16t-6 -16t-18 -7.5zM217 187h-9v47h9v-7q4 7 15 7v-10q-5 0 -10 -1.5t-5 -10.5v-25zM615 187q-12 0 -17.5 7.5t-5.5 16
t5.5 16t17.5 7.5q11 0 17.5 -8t4.5 -19h-35q2 -13 13 -13q8 0 11 7h10q-5 -14 -21 -14zM628 215q0 5 -4 8.5t-9 3.5q-11 0 -13 -12h26zM188 215q0 12 -13 12q-11 0 -13 -12h26zM398 210q0 -8 4.5 -11.5t10.5 -3.5q5 0 9.5 3.5t4.5 11.5t-4.5 12.5t-9.5 4.5q-6 0 -10.5 -4.5
t-4.5 -12.5zM304 195q7 0 10.5 5t3.5 10.5t-3.5 10.5t-10.5 5q-6 0 -9.5 -5t-3.5 -10.5t3.5 -10.5t9.5 -5z" />
    <glyph glyph-name="nine" unicode="9" 
d="M391 511l84 85q3 4 7 0q6 -8 7 -13q1 -4 -1.5 -6.5l-11.5 -11.5q-19 -21 -32 -46l1 2q12 10 25 22.5t24 24t19 21.5t10 15q1 2 5 1q2 -1 2.5 -3t5.5 -10q5 -6 0 -14q-17 -21 -29.5 -42t-25 -37.5t-27 -27.5t-36.5 -13q-14 -2 -27 2t-23 14q-1 2 -2 3.5l-3 4.5q2 2 5 -1
q14 -6 26 -6q28 0 49 17t34 40q-2 0 -2 -0.5t-1 -0.5q-5 -6 -13.5 -14t-15.5 -13q-2 -2 -4 0q-10 10 -14 19q-2 2 -1 3.5t1 3.5q-1 0 -6 -4.5t-10 -10.5t-9.5 -11t-5.5 -6q-1 -2 -7 -1q-10 3 -15 15q-4 5 -1 11q-13 -13 -18 -18.5t-6.5 -7t-1.5 -1t-3 -1.5q-3 -4 -11 5
t-12 19q-2 4 0 6.5t7 10.5l-30 -33t-15 -16l-6 -6t-3 -2q-8 -2 -12 8q-10 13 -11.5 17.5t1.5 7.5q3 8 6.5 14t8.5 13q2 4 -1.5 4t-24.5 -2q-14 -2 -16.5 -2.5t-4.5 -2.5q-6 -7 -16.5 -19t-20.5 -26t-17 -27.5t-7 -22.5q0 -4 -3 -4q-4 0 -9.5 6.5t-8.5 14.5q-4 6 0 12
q8 15 15.5 27t22.5 29q1 2 1 3l-4.5 -1.5t-11 -3.5t-13.5 -4.5t-13 -5.5q-4 -2 -7.5 -4.5t-6.5 -6.5q-1 -1 -3 -1.5t-2 1.5q-1 5 -1 12.5t1 12.5q0 3 3.5 6t18.5 5q22 5 34 7l18 3t8 1.5t4 2.5q15 15 35 31t42.5 31t45 27.5t42.5 19.5q3 1 6 -2q4 -6 7 -21q0 -2 -4 -6
q-13 -12 -25.5 -24.5t-21.5 -23.5t-14.5 -18.5t-5.5 -8.5q1 -1 4 -1q2 -1 3 -0.5t1 -1.5q2 -5 -3 -7q-4 -2 -8 -1t-6 -3q-3 -3 -7 -10.5t-8.5 -15t-7.5 -13.5t-3 -7q2 1 28 28.5t83 84.5q-1 1 -2 1q-11 -1 -13 -1t-3 1q0 3 2 3q12 3 17 3.5t8.5 3t10.5 9.5t23 24q3 5 8 0
q7 -11 3.5 -15l-10.5 -12q-1 -2 -1 -3q11 0 17 0.5t8.5 1t3.5 1.5l2 2q2 1 11 10t11 10q2 2 6 -3q2 -2 2 -5t1 -5q0 -3 -6 -8q0 -2 2 -1.5t13 0.5q8 0 12 -5.5t0 -13.5q0 -1 -1 -1.5t-2 1.5q-10 6 -34 6q-1 0 -1.5 -0.5l-3.5 -3.5t-9 -10.5t-18 -21.5q-8 -8 -22.5 -26
t-28.5 -42zM334 623q-51 -26 -95 -67l2 -1q9 1 17.5 1.5t17.5 0.5q3 0 5.5 5t18.5 24q8 9 12 14t7.5 8.5l6.5 6.5zM342 510q26 26 51.5 52.5t51.5 52.5q-1 1 -9 0.5t-15 -0.5q-3 0 -7 -4q-19 -22 -35.5 -43t-36.5 -58zM612 538q-5 20 4 34.5t26 20.5q6 2 12.5 -0.5t11 -8.5
t6.5 -14.5t-1 -17.5q-7 -15 -21 -15q-5 0 -13 4q-5 3 -5 1q-1 -9 0 -18q0 -3 10 -3q7 0 16.5 3t19.5 11q19 15 26 36.5t-1 36.5q-2 2 -1 3h3q14 -9 16.5 -24.5t-2.5 -30.5q-10 -25 -28.5 -38t-37.5 -13q-14 0 -25.5 8t-15.5 25zM591 597l7 7t5 0q4 -1 6 -5t4 -7q2 -2 1 -2.5
t-1 -1.5q-9 -33 -25 -54.5t-31 -21.5q-8 0 -16 9q-3 -1 -3 -2q-5 -6 -14.5 -19.5t-11.5 -22.5q0 -4 -3.5 -4t-7.5 5q-5 8 -7.5 13t0.5 10q15 28 32 51.5t36 46.5q4 6 7 4q2 -4 3 -8t3 -9q1 -2 -2 -5q-5 -7 -9 -13t-9 -12q13 15 18 20.5t7.5 8t3.5 4t7 8.5zM546 530
q8 0 16.5 7.5t15 17t10 17.5t2.5 9q-11 -12 -22 -24.5t-22 -26.5zM638 558q7 0 13.5 6t4.5 11q-10 -6 -18 -17zM338 355q5 5 12 14.5t15.5 19.5t16 19.5t11.5 15.5q1 4 7 0q2 -2 4.5 -5.5t4.5 -8.5q0 -3 -1 -6q-4 -4 -9 -11t-9.5 -14.5t-7.5 -13t-4 -7.5q17 17 30 35
q5 6 10 13.5t11 14.5t12.5 10.5t12.5 0.5q10 -3 20 -10q1 -1 1.5 -1t3.5 3.5t11 14t24 30.5q3 3 5 0q6 -6 7 -14q2 -1 -1 -4q-6 -8 -13.5 -20t-15 -24.5t-14.5 -25t-10 -21.5q22 26 34 41t17.5 21.5t7.5 7t5 -2.5q5 -6 8 -13q1 -2 -1 -6q-4 -5 -6.5 -9.5t-6.5 -9.5
q-12 -19 -14 -23t-4 -11q15 18 21.5 26t9.5 11t3.5 4.5t3.5 6.5q10 16 20.5 28.5t24.5 4.5q3 -2 6.5 -4.5t4.5 -6.5q3 -3 -1 -3l-1 -1q2 -9 0.5 -13t1.5 -3q17 8 33 23t16 35q-2 1 -1 1.5t2 -0.5q11 -6 10.5 -18t-8.5 -24.5t-22 -23.5t-31 -15q-8 -1 -9 -3q-8 -20 -23 -33
q-7 -7 -12 -7q-8 0 -24 16q-4 5 -3.5 6t-8.5 -12q-4 -4 -6 -7q-5 -4 -10 -2t-11.5 6.5t-7.5 10.5q-1 0 -1 -2q-11 -14 -14 -18.5t-8 -2.5q-6 2 -11 6t-7 9q-4 5 -3 7l3 6q-10 -10 -20 -25q-3 -5 -11 -3q-5 2 -8 5.5t-6 5.5q-3 4 -3 7.5t1 6.5q-1 0 -2 -2q-14 -16 -19 -20.5
t-12 0.5q-3 3 -5 6t-4 5q-2 3 -1 4.5t2 6.5q-1 0 -1 -1v-1q-8 -10 -12.5 -16t-7 -8.5t-4.5 -2t-5 2.5q-4 2 -10 8.5t-6 10.5q-2 0 -2 -3q-14 -20 -17.5 -25.5t-8.5 -2.5q-4 3 -6.5 6t-6.5 7q-5 5 -6.5 7.5t-0.5 7.5q6 24 20 46t20 33q-14 -4 -27 -8.5t-24 -12.5
q-16 -11 -24.5 -23.5t-8.5 -17.5q-1 -5 -7.5 0.5t-8.5 19.5q-1 5 4.5 12.5t13 16.5t14.5 18t10 17q1 5 -3 6q-8 0 -19 -6t-21.5 -16.5t-19.5 -23.5t-12 -26q-2 -6 3 -10.5t14 -8t20.5 -7t22.5 -9.5q14 -7 17 -14.5t-4 -6.5q-11 3 -28 -1.5t-35.5 -11t-37.5 -13t-35 -8.5
q-9 -1 -23 0.5t-16 8.5q-1 4 2 3.5t5 -1.5q3 -2 7 -1t8 1q14 2 25.5 7t23 11.5t24.5 13t28 10.5l-2 2q-10 4 -19.5 10.5t-14.5 14.5q-7 12 -2 29t16.5 33.5t27.5 28t31 11.5q19 0 28 -16q6 -10 4.5 -16t-0.5 -8h2q16 9 38 12q14 2 17 2t6 4q2 3 8.5 11t11.5 13q1 3 4 0
q4 -2 6 -5t5 -6q1 -3 -0.5 -4.5t-6.5 -8.5v-1q-1 0 -1 -2h3h20t20 -1q5 0 3.5 -2.5t-5.5 -7.5q-1 -4 -15 -4q-9 -1 -17.5 -1t-16.5 -1q-2 0 -3.5 -0.5t-3.5 -3.5t-6 -10t-11 -19q-4 -7 -9 -16t-9 -17.5t-6.5 -14t-2.5 -6.5q1 0 5.5 6.5t10 15t11 15.5t6.5 9q17 27 22 33
t10 1q6 -6 10 -14q1 -4 -1 -6q-14 -17 -21.5 -32.5t-9.5 -20.5zM571 447q-11 -11 -14 -17t-5 -6t-10 11q-5 5 -1 9q10 14 14.5 19t7.5 5q2 0 9 -14q1 0 1 -3q0 -2 -2 -4zM598 423q-2 4 -7 -1q-5 -4 -9 -8.5t-7 -9.5q-2 -1 -1 -1.5t2 -0.5q2 -2 6 -2.5t11 1.5q1 0 3 2
q2 5 3 10t-1 10zM424 354q12 13 24 29t20 27q2 2 0 2q-6 4 -9 4q-5 0 -11 -8t-11.5 -18.5t-9 -20.5t-3.5 -15zM570 395q-2 -1 -9.5 -15t-9.5 -24q-2 -4 2 -2q5 1 10.5 5.5t10 9t7.5 9t3 5.5q-11 2 -14 12zM449 249h9v-62h-9v62zM115 212v-25h-9v59h20q11 0 16 -5.5t5 -12.5
q0 -6 -5 -11t-16 -5h-11zM492 246h10v-38q0 -13 13 -13q14 0 14 13v38h9v-37q0 -11 -6.5 -16.5t-16.5 -5.5q-9 0 -16 5.5t-7 16.5v37zM138 228q0 9 -7 9h-16v-18q9 0 16 0.5t7 8.5zM247 202q1 -7 9 -7t8 5q0 3 -4 4.5t-9.5 3t-9.5 4.5t-4 9t6 9.5t13 3.5t12.5 -3t5.5 -11
h-10q-1 7 -8.5 6.5t-7.5 -5.5q0 -3 4 -4.5t9 -3t9 -4.5t4 -9q0 -7 -5 -10t-12 -3t-13 3.5t-7 11.5h10zM558 202q0 -7 9 -7t9 5q0 3 -4 4.5t-9.5 3t-9.5 4.5t-4 9t5.5 9.5t12.5 3.5q6 0 11.5 -3t5.5 -11h-9q-2 7 -9.5 6.5t-7.5 -5.5q0 -3 4 -4.5t9 -3t9.5 -4.5t4.5 -9
q0 -7 -5.5 -10t-11.5 -3q-8 0 -13.5 3.5t-6.5 11.5h10zM427 234h9v-47h-9v7q-6 -7 -16 -7q-8 0 -15 6t-7 17q0 12 7 18t15 6q10 0 16 -7v7zM176 187q-23 0 -23 23q0 12 7 18t16 6t16 -6.5t5 -20.5h-35q2 -12 14 -12q8 0 11 6h10q-5 -14 -21 -14zM370 213q0 13 -12 13
q-10 0 -10 -13v-26h-11v47h11v-6q5 6 14 6q7 0 12.5 -4.5t5.5 -14.5v-28h-10v26zM304 187q-11 0 -16.5 7.5t-5.5 16t5.5 16t16.5 7.5q12 0 18 -7.5t6 -16t-6 -16t-18 -7.5zM217 187h-9v47h9v-7q4 7 15 7v-10q-5 0 -10 -1.5t-5 -10.5v-25zM615 187q-12 0 -17.5 7.5t-5.5 16
t5.5 16t17.5 7.5q11 0 17.5 -8t4.5 -19h-35q2 -13 13 -13q8 0 11 7h10q-5 -14 -21 -14zM628 215q0 5 -4 8.5t-9 3.5q-11 0 -13 -12h26zM188 215q0 12 -13 12q-11 0 -13 -12h26zM398 210q0 -8 4.5 -11.5t10.5 -3.5q5 0 9.5 3.5t4.5 11.5t-4.5 12.5t-9.5 4.5q-6 0 -10.5 -4.5
t-4.5 -12.5zM304 195q7 0 10.5 5t3.5 10.5t-3.5 10.5t-10.5 5q-6 0 -9.5 -5t-3.5 -10.5t3.5 -10.5t9.5 -5z" />
    <glyph glyph-name="zero" unicode="0" 
d="M391 511l84 85q3 4 7 0q6 -8 7 -13q1 -4 -1.5 -6.5l-11.5 -11.5q-19 -21 -32 -46l1 2q12 10 25 22.5t24 24t19 21.5t10 15q1 2 5 1q2 -1 2.5 -3t5.5 -10q5 -6 0 -14q-17 -21 -29.5 -42t-25 -37.5t-27 -27.5t-36.5 -13q-14 -2 -27 2t-23 14q-1 2 -2 3.5l-3 4.5q2 2 5 -1
q14 -6 26 -6q28 0 49 17t34 40q-2 0 -2 -0.5t-1 -0.5q-5 -6 -13.5 -14t-15.5 -13q-2 -2 -4 0q-10 10 -14 19q-2 2 -1 3.5t1 3.5q-1 0 -6 -4.5t-10 -10.5t-9.5 -11t-5.5 -6q-1 -2 -7 -1q-10 3 -15 15q-4 5 -1 11q-13 -13 -18 -18.5t-6.5 -7t-1.5 -1t-3 -1.5q-3 -4 -11 5
t-12 19q-2 4 0 6.5t7 10.5l-30 -33t-15 -16l-6 -6t-3 -2q-8 -2 -12 8q-10 13 -11.5 17.5t1.5 7.5q3 8 6.5 14t8.5 13q2 4 -1.5 4t-24.5 -2q-14 -2 -16.5 -2.5t-4.5 -2.5q-6 -7 -16.5 -19t-20.5 -26t-17 -27.5t-7 -22.5q0 -4 -3 -4q-4 0 -9.5 6.5t-8.5 14.5q-4 6 0 12
q8 15 15.5 27t22.5 29q1 2 1 3l-4.5 -1.5t-11 -3.5t-13.5 -4.5t-13 -5.5q-4 -2 -7.5 -4.5t-6.5 -6.5q-1 -1 -3 -1.5t-2 1.5q-1 5 -1 12.5t1 12.5q0 3 3.5 6t18.5 5q22 5 34 7l18 3t8 1.5t4 2.5q15 15 35 31t42.5 31t45 27.5t42.5 19.5q3 1 6 -2q4 -6 7 -21q0 -2 -4 -6
q-13 -12 -25.5 -24.5t-21.5 -23.5t-14.5 -18.5t-5.5 -8.5q1 -1 4 -1q2 -1 3 -0.5t1 -1.5q2 -5 -3 -7q-4 -2 -8 -1t-6 -3q-3 -3 -7 -10.5t-8.5 -15t-7.5 -13.5t-3 -7q2 1 28 28.5t83 84.5q-1 1 -2 1q-11 -1 -13 -1t-3 1q0 3 2 3q12 3 17 3.5t8.5 3t10.5 9.5t23 24q3 5 8 0
q7 -11 3.5 -15l-10.5 -12q-1 -2 -1 -3q11 0 17 0.5t8.5 1t3.5 1.5l2 2q2 1 11 10t11 10q2 2 6 -3q2 -2 2 -5t1 -5q0 -3 -6 -8q0 -2 2 -1.5t13 0.5q8 0 12 -5.5t0 -13.5q0 -1 -1 -1.5t-2 1.5q-10 6 -34 6q-1 0 -1.5 -0.5l-3.5 -3.5t-9 -10.5t-18 -21.5q-8 -8 -22.5 -26
t-28.5 -42zM334 623q-51 -26 -95 -67l2 -1q9 1 17.5 1.5t17.5 0.5q3 0 5.5 5t18.5 24q8 9 12 14t7.5 8.5l6.5 6.5zM342 510q26 26 51.5 52.5t51.5 52.5q-1 1 -9 0.5t-15 -0.5q-3 0 -7 -4q-19 -22 -35.5 -43t-36.5 -58zM612 538q-5 20 4 34.5t26 20.5q6 2 12.5 -0.5t11 -8.5
t6.5 -14.5t-1 -17.5q-7 -15 -21 -15q-5 0 -13 4q-5 3 -5 1q-1 -9 0 -18q0 -3 10 -3q7 0 16.5 3t19.5 11q19 15 26 36.5t-1 36.5q-2 2 -1 3h3q14 -9 16.5 -24.5t-2.5 -30.5q-10 -25 -28.5 -38t-37.5 -13q-14 0 -25.5 8t-15.5 25zM591 597l7 7t5 0q4 -1 6 -5t4 -7q2 -2 1 -2.5
t-1 -1.5q-9 -33 -25 -54.5t-31 -21.5q-8 0 -16 9q-3 -1 -3 -2q-5 -6 -14.5 -19.5t-11.5 -22.5q0 -4 -3.5 -4t-7.5 5q-5 8 -7.5 13t0.5 10q15 28 32 51.5t36 46.5q4 6 7 4q2 -4 3 -8t3 -9q1 -2 -2 -5q-5 -7 -9 -13t-9 -12q13 15 18 20.5t7.5 8t3.5 4t7 8.5zM546 530
q8 0 16.5 7.5t15 17t10 17.5t2.5 9q-11 -12 -22 -24.5t-22 -26.5zM638 558q7 0 13.5 6t4.5 11q-10 -6 -18 -17zM338 355q5 5 12 14.5t15.5 19.5t16 19.5t11.5 15.5q1 4 7 0q2 -2 4.5 -5.5t4.5 -8.5q0 -3 -1 -6q-4 -4 -9 -11t-9.5 -14.5t-7.5 -13t-4 -7.5q17 17 30 35
q5 6 10 13.5t11 14.5t12.5 10.5t12.5 0.5q10 -3 20 -10q1 -1 1.5 -1t3.5 3.5t11 14t24 30.5q3 3 5 0q6 -6 7 -14q2 -1 -1 -4q-6 -8 -13.5 -20t-15 -24.5t-14.5 -25t-10 -21.5q22 26 34 41t17.5 21.5t7.5 7t5 -2.5q5 -6 8 -13q1 -2 -1 -6q-4 -5 -6.5 -9.5t-6.5 -9.5
q-12 -19 -14 -23t-4 -11q15 18 21.5 26t9.5 11t3.5 4.5t3.5 6.5q10 16 20.5 28.5t24.5 4.5q3 -2 6.5 -4.5t4.5 -6.5q3 -3 -1 -3l-1 -1q2 -9 0.5 -13t1.5 -3q17 8 33 23t16 35q-2 1 -1 1.5t2 -0.5q11 -6 10.5 -18t-8.5 -24.5t-22 -23.5t-31 -15q-8 -1 -9 -3q-8 -20 -23 -33
q-7 -7 -12 -7q-8 0 -24 16q-4 5 -3.5 6t-8.5 -12q-4 -4 -6 -7q-5 -4 -10 -2t-11.5 6.5t-7.5 10.5q-1 0 -1 -2q-11 -14 -14 -18.5t-8 -2.5q-6 2 -11 6t-7 9q-4 5 -3 7l3 6q-10 -10 -20 -25q-3 -5 -11 -3q-5 2 -8 5.5t-6 5.5q-3 4 -3 7.5t1 6.5q-1 0 -2 -2q-14 -16 -19 -20.5
t-12 0.5q-3 3 -5 6t-4 5q-2 3 -1 4.5t2 6.5q-1 0 -1 -1v-1q-8 -10 -12.5 -16t-7 -8.5t-4.5 -2t-5 2.5q-4 2 -10 8.5t-6 10.5q-2 0 -2 -3q-14 -20 -17.5 -25.5t-8.5 -2.5q-4 3 -6.5 6t-6.5 7q-5 5 -6.5 7.5t-0.5 7.5q6 24 20 46t20 33q-14 -4 -27 -8.5t-24 -12.5
q-16 -11 -24.5 -23.5t-8.5 -17.5q-1 -5 -7.5 0.5t-8.5 19.5q-1 5 4.5 12.5t13 16.5t14.5 18t10 17q1 5 -3 6q-8 0 -19 -6t-21.5 -16.5t-19.5 -23.5t-12 -26q-2 -6 3 -10.5t14 -8t20.5 -7t22.5 -9.5q14 -7 17 -14.5t-4 -6.5q-11 3 -28 -1.5t-35.5 -11t-37.5 -13t-35 -8.5
q-9 -1 -23 0.5t-16 8.5q-1 4 2 3.5t5 -1.5q3 -2 7 -1t8 1q14 2 25.5 7t23 11.5t24.5 13t28 10.5l-2 2q-10 4 -19.5 10.5t-14.5 14.5q-7 12 -2 29t16.5 33.5t27.5 28t31 11.5q19 0 28 -16q6 -10 4.5 -16t-0.5 -8h2q16 9 38 12q14 2 17 2t6 4q2 3 8.5 11t11.5 13q1 3 4 0
q4 -2 6 -5t5 -6q1 -3 -0.5 -4.5t-6.5 -8.5v-1q-1 0 -1 -2h3h20t20 -1q5 0 3.5 -2.5t-5.5 -7.5q-1 -4 -15 -4q-9 -1 -17.5 -1t-16.5 -1q-2 0 -3.5 -0.5t-3.5 -3.5t-6 -10t-11 -19q-4 -7 -9 -16t-9 -17.5t-6.5 -14t-2.5 -6.5q1 0 5.5 6.5t10 15t11 15.5t6.5 9q17 27 22 33
t10 1q6 -6 10 -14q1 -4 -1 -6q-14 -17 -21.5 -32.5t-9.5 -20.5zM571 447q-11 -11 -14 -17t-5 -6t-10 11q-5 5 -1 9q10 14 14.5 19t7.5 5q2 0 9 -14q1 0 1 -3q0 -2 -2 -4zM598 423q-2 4 -7 -1q-5 -4 -9 -8.5t-7 -9.5q-2 -1 -1 -1.5t2 -0.5q2 -2 6 -2.5t11 1.5q1 0 3 2
q2 5 3 10t-1 10zM424 354q12 13 24 29t20 27q2 2 0 2q-6 4 -9 4q-5 0 -11 -8t-11.5 -18.5t-9 -20.5t-3.5 -15zM570 395q-2 -1 -9.5 -15t-9.5 -24q-2 -4 2 -2q5 1 10.5 5.5t10 9t7.5 9t3 5.5q-11 2 -14 12zM449 249h9v-62h-9v62zM115 212v-25h-9v59h20q11 0 16 -5.5t5 -12.5
q0 -6 -5 -11t-16 -5h-11zM492 246h10v-38q0 -13 13 -13q14 0 14 13v38h9v-37q0 -11 -6.5 -16.5t-16.5 -5.5q-9 0 -16 5.5t-7 16.5v37zM138 228q0 9 -7 9h-16v-18q9 0 16 0.5t7 8.5zM247 202q1 -7 9 -7t8 5q0 3 -4 4.5t-9.5 3t-9.5 4.5t-4 9t6 9.5t13 3.5t12.5 -3t5.5 -11
h-10q-1 7 -8.5 6.5t-7.5 -5.5q0 -3 4 -4.5t9 -3t9 -4.5t4 -9q0 -7 -5 -10t-12 -3t-13 3.5t-7 11.5h10zM558 202q0 -7 9 -7t9 5q0 3 -4 4.5t-9.5 3t-9.5 4.5t-4 9t5.5 9.5t12.5 3.5q6 0 11.5 -3t5.5 -11h-9q-2 7 -9.5 6.5t-7.5 -5.5q0 -3 4 -4.5t9 -3t9.5 -4.5t4.5 -9
q0 -7 -5.5 -10t-11.5 -3q-8 0 -13.5 3.5t-6.5 11.5h10zM427 234h9v-47h-9v7q-6 -7 -16 -7q-8 0 -15 6t-7 17q0 12 7 18t15 6q10 0 16 -7v7zM176 187q-23 0 -23 23q0 12 7 18t16 6t16 -6.5t5 -20.5h-35q2 -12 14 -12q8 0 11 6h10q-5 -14 -21 -14zM370 213q0 13 -12 13
q-10 0 -10 -13v-26h-11v47h11v-6q5 6 14 6q7 0 12.5 -4.5t5.5 -14.5v-28h-10v26zM304 187q-11 0 -16.5 7.5t-5.5 16t5.5 16t16.5 7.5q12 0 18 -7.5t6 -16t-6 -16t-18 -7.5zM217 187h-9v47h9v-7q4 7 15 7v-10q-5 0 -10 -1.5t-5 -10.5v-25zM615 187q-12 0 -17.5 7.5t-5.5 16
t5.5 16t17.5 7.5q11 0 17.5 -8t4.5 -19h-35q2 -13 13 -13q8 0 11 7h10q-5 -14 -21 -14zM628 215q0 5 -4 8.5t-9 3.5q-11 0 -13 -12h26zM188 215q0 12 -13 12q-11 0 -13 -12h26zM398 210q0 -8 4.5 -11.5t10.5 -3.5q5 0 9.5 3.5t4.5 11.5t-4.5 12.5t-9.5 4.5q-6 0 -10.5 -4.5
t-4.5 -12.5zM304 195q7 0 10.5 5t3.5 10.5t-3.5 10.5t-10.5 5q-6 0 -9.5 -5t-3.5 -10.5t3.5 -10.5t9.5 -5z" />
    <glyph glyph-name="asciitilde" unicode="~" 
d="M391 511l84 85q3 4 7 0q6 -8 7 -13q1 -4 -1.5 -6.5l-11.5 -11.5q-19 -21 -32 -46l1 2q12 10 25 22.5t24 24t19 21.5t10 15q1 2 5 1q2 -1 2.5 -3t5.5 -10q5 -6 0 -14q-17 -21 -29.5 -42t-25 -37.5t-27 -27.5t-36.5 -13q-14 -2 -27 2t-23 14q-1 2 -2 3.5l-3 4.5q2 2 5 -1
q14 -6 26 -6q28 0 49 17t34 40q-2 0 -2 -0.5t-1 -0.5q-5 -6 -13.5 -14t-15.5 -13q-2 -2 -4 0q-10 10 -14 19q-2 2 -1 3.5t1 3.5q-1 0 -6 -4.5t-10 -10.5t-9.5 -11t-5.5 -6q-1 -2 -7 -1q-10 3 -15 15q-4 5 -1 11q-13 -13 -18 -18.5t-6.5 -7t-1.5 -1t-3 -1.5q-3 -4 -11 5
t-12 19q-2 4 0 6.5t7 10.5l-30 -33t-15 -16l-6 -6t-3 -2q-8 -2 -12 8q-10 13 -11.5 17.5t1.5 7.5q3 8 6.5 14t8.5 13q2 4 -1.5 4t-24.5 -2q-14 -2 -16.5 -2.5t-4.5 -2.5q-6 -7 -16.5 -19t-20.5 -26t-17 -27.5t-7 -22.5q0 -4 -3 -4q-4 0 -9.5 6.5t-8.5 14.5q-4 6 0 12
q8 15 15.5 27t22.5 29q1 2 1 3l-4.5 -1.5t-11 -3.5t-13.5 -4.5t-13 -5.5q-4 -2 -7.5 -4.5t-6.5 -6.5q-1 -1 -3 -1.5t-2 1.5q-1 5 -1 12.5t1 12.5q0 3 3.5 6t18.5 5q22 5 34 7l18 3t8 1.5t4 2.5q15 15 35 31t42.5 31t45 27.5t42.5 19.5q3 1 6 -2q4 -6 7 -21q0 -2 -4 -6
q-13 -12 -25.5 -24.5t-21.5 -23.5t-14.5 -18.5t-5.5 -8.5q1 -1 4 -1q2 -1 3 -0.5t1 -1.5q2 -5 -3 -7q-4 -2 -8 -1t-6 -3q-3 -3 -7 -10.5t-8.5 -15t-7.5 -13.5t-3 -7q2 1 28 28.5t83 84.5q-1 1 -2 1q-11 -1 -13 -1t-3 1q0 3 2 3q12 3 17 3.5t8.5 3t10.5 9.5t23 24q3 5 8 0
q7 -11 3.5 -15l-10.5 -12q-1 -2 -1 -3q11 0 17 0.5t8.5 1t3.5 1.5l2 2q2 1 11 10t11 10q2 2 6 -3q2 -2 2 -5t1 -5q0 -3 -6 -8q0 -2 2 -1.5t13 0.5q8 0 12 -5.5t0 -13.5q0 -1 -1 -1.5t-2 1.5q-10 6 -34 6q-1 0 -1.5 -0.5l-3.5 -3.5t-9 -10.5t-18 -21.5q-8 -8 -22.5 -26
t-28.5 -42zM334 623q-51 -26 -95 -67l2 -1q9 1 17.5 1.5t17.5 0.5q3 0 5.5 5t18.5 24q8 9 12 14t7.5 8.5l6.5 6.5zM342 510q26 26 51.5 52.5t51.5 52.5q-1 1 -9 0.5t-15 -0.5q-3 0 -7 -4q-19 -22 -35.5 -43t-36.5 -58zM612 538q-5 20 4 34.5t26 20.5q6 2 12.5 -0.5t11 -8.5
t6.5 -14.5t-1 -17.5q-7 -15 -21 -15q-5 0 -13 4q-5 3 -5 1q-1 -9 0 -18q0 -3 10 -3q7 0 16.5 3t19.5 11q19 15 26 36.5t-1 36.5q-2 2 -1 3h3q14 -9 16.5 -24.5t-2.5 -30.5q-10 -25 -28.5 -38t-37.5 -13q-14 0 -25.5 8t-15.5 25zM591 597l7 7t5 0q4 -1 6 -5t4 -7q2 -2 1 -2.5
t-1 -1.5q-9 -33 -25 -54.5t-31 -21.5q-8 0 -16 9q-3 -1 -3 -2q-5 -6 -14.5 -19.5t-11.5 -22.5q0 -4 -3.5 -4t-7.5 5q-5 8 -7.5 13t0.5 10q15 28 32 51.5t36 46.5q4 6 7 4q2 -4 3 -8t3 -9q1 -2 -2 -5q-5 -7 -9 -13t-9 -12q13 15 18 20.5t7.5 8t3.5 4t7 8.5zM546 530
q8 0 16.5 7.5t15 17t10 17.5t2.5 9q-11 -12 -22 -24.5t-22 -26.5zM638 558q7 0 13.5 6t4.5 11q-10 -6 -18 -17zM338 355q5 5 12 14.5t15.5 19.5t16 19.5t11.5 15.5q1 4 7 0q2 -2 4.5 -5.5t4.5 -8.5q0 -3 -1 -6q-4 -4 -9 -11t-9.5 -14.5t-7.5 -13t-4 -7.5q17 17 30 35
q5 6 10 13.5t11 14.5t12.5 10.5t12.5 0.5q10 -3 20 -10q1 -1 1.5 -1t3.5 3.5t11 14t24 30.5q3 3 5 0q6 -6 7 -14q2 -1 -1 -4q-6 -8 -13.5 -20t-15 -24.5t-14.5 -25t-10 -21.5q22 26 34 41t17.5 21.5t7.5 7t5 -2.5q5 -6 8 -13q1 -2 -1 -6q-4 -5 -6.5 -9.5t-6.5 -9.5
q-12 -19 -14 -23t-4 -11q15 18 21.5 26t9.5 11t3.5 4.5t3.5 6.5q10 16 20.5 28.5t24.5 4.5q3 -2 6.5 -4.5t4.5 -6.5q3 -3 -1 -3l-1 -1q2 -9 0.5 -13t1.5 -3q17 8 33 23t16 35q-2 1 -1 1.5t2 -0.5q11 -6 10.5 -18t-8.5 -24.5t-22 -23.5t-31 -15q-8 -1 -9 -3q-8 -20 -23 -33
q-7 -7 -12 -7q-8 0 -24 16q-4 5 -3.5 6t-8.5 -12q-4 -4 -6 -7q-5 -4 -10 -2t-11.5 6.5t-7.5 10.5q-1 0 -1 -2q-11 -14 -14 -18.5t-8 -2.5q-6 2 -11 6t-7 9q-4 5 -3 7l3 6q-10 -10 -20 -25q-3 -5 -11 -3q-5 2 -8 5.5t-6 5.5q-3 4 -3 7.5t1 6.5q-1 0 -2 -2q-14 -16 -19 -20.5
t-12 0.5q-3 3 -5 6t-4 5q-2 3 -1 4.5t2 6.5q-1 0 -1 -1v-1q-8 -10 -12.5 -16t-7 -8.5t-4.5 -2t-5 2.5q-4 2 -10 8.5t-6 10.5q-2 0 -2 -3q-14 -20 -17.5 -25.5t-8.5 -2.5q-4 3 -6.5 6t-6.5 7q-5 5 -6.5 7.5t-0.5 7.5q6 24 20 46t20 33q-14 -4 -27 -8.5t-24 -12.5
q-16 -11 -24.5 -23.5t-8.5 -17.5q-1 -5 -7.5 0.5t-8.5 19.5q-1 5 4.5 12.5t13 16.5t14.5 18t10 17q1 5 -3 6q-8 0 -19 -6t-21.5 -16.5t-19.5 -23.5t-12 -26q-2 -6 3 -10.5t14 -8t20.5 -7t22.5 -9.5q14 -7 17 -14.5t-4 -6.5q-11 3 -28 -1.5t-35.5 -11t-37.5 -13t-35 -8.5
q-9 -1 -23 0.5t-16 8.5q-1 4 2 3.5t5 -1.5q3 -2 7 -1t8 1q14 2 25.5 7t23 11.5t24.5 13t28 10.5l-2 2q-10 4 -19.5 10.5t-14.5 14.5q-7 12 -2 29t16.5 33.5t27.5 28t31 11.5q19 0 28 -16q6 -10 4.5 -16t-0.5 -8h2q16 9 38 12q14 2 17 2t6 4q2 3 8.5 11t11.5 13q1 3 4 0
q4 -2 6 -5t5 -6q1 -3 -0.5 -4.5t-6.5 -8.5v-1q-1 0 -1 -2h3h20t20 -1q5 0 3.5 -2.5t-5.5 -7.5q-1 -4 -15 -4q-9 -1 -17.5 -1t-16.5 -1q-2 0 -3.5 -0.5t-3.5 -3.5t-6 -10t-11 -19q-4 -7 -9 -16t-9 -17.5t-6.5 -14t-2.5 -6.5q1 0 5.5 6.5t10 15t11 15.5t6.5 9q17 27 22 33
t10 1q6 -6 10 -14q1 -4 -1 -6q-14 -17 -21.5 -32.5t-9.5 -20.5zM571 447q-11 -11 -14 -17t-5 -6t-10 11q-5 5 -1 9q10 14 14.5 19t7.5 5q2 0 9 -14q1 0 1 -3q0 -2 -2 -4zM598 423q-2 4 -7 -1q-5 -4 -9 -8.5t-7 -9.5q-2 -1 -1 -1.5t2 -0.5q2 -2 6 -2.5t11 1.5q1 0 3 2
q2 5 3 10t-1 10zM424 354q12 13 24 29t20 27q2 2 0 2q-6 4 -9 4q-5 0 -11 -8t-11.5 -18.5t-9 -20.5t-3.5 -15zM570 395q-2 -1 -9.5 -15t-9.5 -24q-2 -4 2 -2q5 1 10.5 5.5t10 9t7.5 9t3 5.5q-11 2 -14 12zM449 249h9v-62h-9v62zM115 212v-25h-9v59h20q11 0 16 -5.5t5 -12.5
q0 -6 -5 -11t-16 -5h-11zM492 246h10v-38q0 -13 13 -13q14 0 14 13v38h9v-37q0 -11 -6.5 -16.5t-16.5 -5.5q-9 0 -16 5.5t-7 16.5v37zM138 228q0 9 -7 9h-16v-18q9 0 16 0.5t7 8.5zM247 202q1 -7 9 -7t8 5q0 3 -4 4.5t-9.5 3t-9.5 4.5t-4 9t6 9.5t13 3.5t12.5 -3t5.5 -11
h-10q-1 7 -8.5 6.5t-7.5 -5.5q0 -3 4 -4.5t9 -3t9 -4.5t4 -9q0 -7 -5 -10t-12 -3t-13 3.5t-7 11.5h10zM558 202q0 -7 9 -7t9 5q0 3 -4 4.5t-9.5 3t-9.5 4.5t-4 9t5.5 9.5t12.5 3.5q6 0 11.5 -3t5.5 -11h-9q-2 7 -9.5 6.5t-7.5 -5.5q0 -3 4 -4.5t9 -3t9.5 -4.5t4.5 -9
q0 -7 -5.5 -10t-11.5 -3q-8 0 -13.5 3.5t-6.5 11.5h10zM427 234h9v-47h-9v7q-6 -7 -16 -7q-8 0 -15 6t-7 17q0 12 7 18t15 6q10 0 16 -7v7zM176 187q-23 0 -23 23q0 12 7 18t16 6t16 -6.5t5 -20.5h-35q2 -12 14 -12q8 0 11 6h10q-5 -14 -21 -14zM370 213q0 13 -12 13
q-10 0 -10 -13v-26h-11v47h11v-6q5 6 14 6q7 0 12.5 -4.5t5.5 -14.5v-28h-10v26zM304 187q-11 0 -16.5 7.5t-5.5 16t5.5 16t16.5 7.5q12 0 18 -7.5t6 -16t-6 -16t-18 -7.5zM217 187h-9v47h9v-7q4 7 15 7v-10q-5 0 -10 -1.5t-5 -10.5v-25zM615 187q-12 0 -17.5 7.5t-5.5 16
t5.5 16t17.5 7.5q11 0 17.5 -8t4.5 -19h-35q2 -13 13 -13q8 0 11 7h10q-5 -14 -21 -14zM628 215q0 5 -4 8.5t-9 3.5q-11 0 -13 -12h26zM188 215q0 12 -13 12q-11 0 -13 -12h26zM398 210q0 -8 4.5 -11.5t10.5 -3.5q5 0 9.5 3.5t4.5 11.5t-4.5 12.5t-9.5 4.5q-6 0 -10.5 -4.5
t-4.5 -12.5zM304 195q7 0 10.5 5t3.5 10.5t-3.5 10.5t-10.5 5q-6 0 -9.5 -5t-3.5 -10.5t3.5 -10.5t9.5 -5z" />
    <glyph glyph-name="exclam" unicode="!" horiz-adv-x="229" 
d="M23 539q0 33 -0.5 66t0.5 66q0 15 2 31.5t8 30.5t17.5 23t30.5 9q29 0 51.5 -18.5t34.5 -42.5q9 -18 15 -40.5t10 -47t5.5 -49t2.5 -44.5q2 -57 5.5 -112.5t1.5 -112.5q-1 -19 -4.5 -42.5t-12.5 -44t-24.5 -34.5t-39.5 -14q-29 0 -47.5 20.5t-29 49t-15.5 59.5t-7 52
q-4 49 -5 97.5t1 97.5zM193 64q0 -28 -13.5 -47t-39.5 -26q-14 -4 -32 1q-15 5 -24.5 16.5t-14 25.5t-4.5 28.5t4 25.5q8 20 24 31t36 11q29 0 46.5 -18.5t17.5 -47.5z" />
    <glyph glyph-name="question" unicode="?" horiz-adv-x="447" 
d="M20 507q0 48 15.5 93.5t44.5 82t69.5 60.5t90.5 29q44 5 78 -12t60 -52q27 -37 37 -78.5t5 -86.5q-12 -94 -62 -178q-11 -19 -22.5 -37.5t-20.5 -38.5q-11 -24 -16 -48.5t1 -50.5q3 -12 1 -28q-1 -42 -42 -51q-18 -5 -35.5 2t-26.5 23q-24 41 -18 82q5 38 15.5 74.5
t24.5 71.5q10 25 20 49l20 48q14 37 13 71q-2 23 -15 44t-39 21q-15 0 -25.5 -7.5t-17 -19.5t-9.5 -26t-3 -26q0 -8 0.5 -17t0.5 -18q1 -14 -1 -28t-9 -27q-11 -21 -28.5 -32t-37.5 -9q-23 3 -36.5 15t-20.5 29.5t-9 37.5t-2 38zM182 35q0 26 18 43.5t44 17.5
q27 -1 44.5 -18t17.5 -43q0 -11 -6 -22t-15 -19.5t-20.5 -14t-23.5 -5.5q-24 0 -42 18t-17 43z" />
    <glyph glyph-name="questiondown" unicode="&#xbf;" horiz-adv-x="451" 
d="M202 650q-26 2 -43 20t-15 44q0 11 6 21.5t15 19t20.5 13t22.5 4.5q25 -1 42.5 -19t16.5 -44q-2 -26 -20.5 -43t-44.5 -16zM284 250v28q0 12 5 27q8 25 27 40.5t42 14.5q23 -2 42 -19.5t24 -43.5q11 -58 -1 -114q-8 -40 -26 -75.5t-44.5 -63t-61.5 -46t-77 -23.5
q-89 -12 -143 62q-31 42 -39.5 88.5t0.5 97.5q13 84 59 158q12 20 24 40.5t22 42.5q9 20 13 40t0 42q-3 21 -2 38q1 42 41 51q20 5 37 -2.5t27 -24.5q25 -44 14 -97q-7 -41 -19.5 -80t-29.5 -77q-8 -18 -15 -36.5t-15 -37.5q-5 -12 -7 -24.5t-4 -26.5q-3 -20 5 -41
q7 -17 18 -27t30 -12q14 -1 27.5 9.5t20.5 27.5q7 16 7.5 32t-1.5 32z" />
    <glyph glyph-name="exclamdown" unicode="&#xa1;" horiz-adv-x="229" 
d="M164 682q0 -27 -18 -45.5t-46 -19.5q-29 0 -47 19t-18 48q0 31 20.5 52.5t48.5 20.5q26 -1 43 -22t17 -53zM206 179v-56.5t-1 -55.5q0 -23 -4 -40q-6 -22 -20 -33.5t-33 -11.5q-29 0 -52 19.5t-36 44.5q-11 26 -17 52.5t-8 53.5q-7 64 -9.5 127.5t-4.5 127.5
q-1 25 1 49.5t7 49.5q4 14 10 27.5t15 25t21 18.5t29 7q21 0 36 -11t25.5 -28.5t17.5 -39.5t11 -44.5t6 -43.5t3 -36q2 -28 3 -52.5t1 -48.5t-0.5 -48t-0.5 -53z" />
    <glyph glyph-name="at" unicode="@" horiz-adv-x="726" 
d="M439 151q-52 -43 -111 -43q-54 0 -92.5 28.5t-42.5 86.5q-9 121 88 193q17 13 36 20t39 7q19 0 37 -6t32 -20q5 5 6 10.5t2 10.5q12 38 48 41q16 1 24 -4t14 -20q7 -19 10 -37.5t5 -38.5q3 -24 3 -48.5t2 -48.5q0 -8 0.5 -16t8.5 -10q11 -2 14 6t5 15q14 38 17.5 77
t-7.5 78q-12 46 -46 75t-84 36q-60 9 -115 -18q-66 -31 -105.5 -83t-56.5 -123q-9 -35 -10.5 -70t8.5 -70q9 -31 27.5 -52t43 -34t53.5 -19.5t58 -9.5q22 -2 43.5 -2t43.5 4q17 2 31 -2t23 -20q9 -17 6.5 -33t-13.5 -30q-14 -18 -32 -28t-39 -15t-42 -5h-43q-37 2 -72 7
t-66 17.5t-58 33.5t-49 55q-36 55 -48 114.5t-2 124.5q16 100 64.5 176.5t135.5 128.5q88 52 187 52q52 0 99.5 -14t84.5 -42t62 -69.5t32 -97.5q6 -48 2 -94t-22 -91q-9 -23 -23 -46.5t-33.5 -42t-42.5 -30.5t-50 -12q-33 0 -68 21q-8 5 -11.5 12.5t-10.5 14.5zM367 234
q17 1 31.5 11t14.5 21q0 6 -4 13t-9 13.5t-10.5 11t-9.5 4.5q-15 -1 -28.5 -16t-12.5 -30q0 -28 28 -28z" />
    <glyph glyph-name="numbersign" unicode="#" horiz-adv-x="744" 
d="M508 27q-31 0 -50 17t-24 46q-2 12 -3.5 19t-5 10t-10.5 3.5t-19 0.5q-16 1 -31.5 0.5t-30.5 1.5q-21 2 -25 -18q-3 -16 -12 -30.5t-22.5 -25.5t-29.5 -17.5t-32 -6.5q-26 0 -44.5 16t-23.5 45q-1 2 -1 5q2 23 -8 34.5t-33 17.5q-27 6 -44.5 25.5t-24.5 46.5
q-8 30 5 53.5t43 32.5q8 2 16 3l16 2t11.5 3.5t3.5 11.5v92q0 8 -3.5 10.5t-9.5 3.5q-27 7 -48 25t-32 44q-12 35 2 61.5t49 34.5q13 3 25 4t25 2q15 1 19 16q3 14 11 30.5t19 30.5t25.5 23.5t31.5 9.5q16 0 28 -7.5t20 -19.5t13.5 -26t7.5 -28q2 -10 6 -14t15 -4
q24 1 47.5 1t47.5 -2q17 0 21 16q5 13 12.5 28t18 27.5t24 20.5t29.5 8t27.5 -8t19.5 -20t13.5 -26t8.5 -27q2 -5 3 -11t1 -11q0 -12 6 -17t17 -8q17 -6 38 -17.5t32 -27.5q19 -23 15.5 -47t-28.5 -41q-22 -15 -51 -20q-18 -3 -18 -22q0 -23 -0.5 -45t-1.5 -45
q-1 -11 2.5 -17.5t14.5 -9.5q20 -5 41 -19t32 -31q13 -21 9.5 -41t-22.5 -35q-12 -11 -26.5 -16.5t-29.5 -8.5q-16 -2 -25.5 -9t-12.5 -25q-2 -14 -10.5 -28t-21.5 -25t-28 -18t-30 -7zM387 322h9t9 -1q14 0 14 13v67q0 14 -14 12q-16 0 -32 0.5t-33 0.5q-13 0 -13 -13
v-33.5t-1 -33.5q0 -12 12 -12h49z" />
    <glyph glyph-name="dollar" unicode="$" horiz-adv-x="663" 
d="M372 584q-3 -29 -5.5 -55t-4.5 -52q-1 -11 12 -14q27 -5 53.5 -12t52.5 -16q61 -21 95 -64t45 -106q9 -52 -1.5 -100t-37 -88t-67.5 -69t-94 -43q-12 -4 -26 -5t-24 -8q-9 -8 -6.5 -22t-0.5 -26q-2 -10 -6 -22.5t-10.5 -24t-15.5 -19t-21 -7.5q-21 0 -33 24
q-8 17 -13 35.5t-1 39.5q3 14 -1.5 19.5t-19.5 8.5q-26 5 -51 14.5t-47 25.5q-31 22 -48.5 50.5t-16.5 67.5q2 41 31 65.5t71 19.5q11 -2 21.5 -5t21.5 -8q5 -2 9.5 -5t9.5 -2v109q0 7 -4 9.5t-10 4.5q-68 18 -112 61.5t-68 107.5q-44 118 38 212q35 42 78.5 72t97.5 44
q14 4 18 18q4 10 9.5 22.5t13.5 23t18 17.5t23 7q27 0 39 -33q3 -9 5.5 -18t1.5 -18q-2 -14 4.5 -21t18.5 -11q41 -12 74.5 -39.5t59.5 -60.5q20 -28 27 -58.5t5 -62.5q-2 -33 -26.5 -54t-58.5 -21q-30 0 -53 15.5t-40 40.5q-6 9 -12 18.5t-18 17.5zM241 529q5 18 5 36.5
t-5 30.5q-31 -33 0 -67zM355 159q20 9 28.5 23t9.5 31q1 37 -40 57q-2 -29 -0.5 -55.5t2.5 -55.5z" />
    <glyph glyph-name="percent" unicode="%" horiz-adv-x="552" 
d="M38 36q0 11 3.5 22t11.5 21q7 9 11.5 19t9.5 21q45 115 96.5 225t113.5 216q13 23 32.5 52.5t43.5 56.5t52 47.5t56 24.5q23 5 37.5 -7t16.5 -36q0 -26 -10.5 -53.5t-21.5 -50.5q-129 -255 -285 -495q-9 -14 -23.5 -33.5t-31.5 -37t-36 -30t-39 -12.5q-17 0 -27.5 13
t-9.5 37zM134 723q36 3 58 -13.5t36 -45.5q23 -51 12.5 -104t-49.5 -91q-17 -16 -34.5 -23t-35.5 -7q-26 0 -48.5 15t-36.5 44q-17 36 -14 75q2 33 14 62.5t33 55.5q13 16 28 27.5t37 4.5zM531 155q-2 -47 -21 -85.5t-59 -65.5q-14 -10 -29 -14.5t-30 -4.5q-36 0 -66.5 23
t-38.5 62q-5 17 -3 34.5t8 34.5q7 21 21 44.5t32.5 43t41 32.5t47.5 13q19 0 35.5 -7.5t29.5 -20.5t21 -28.5t9 -32.5q1 -8 1.5 -14.5t0.5 -13.5z" />
    <glyph glyph-name="perthousand" unicode="&#x2030;" horiz-adv-x="802" 
d="M37 36q0 22 14 42q8 11 13 22t10 23q45 113 96 221.5t112 214.5q14 23 33.5 53t43.5 57.5t52 48t57 24.5q22 4 36.5 -8t15.5 -34q1 -11 -1 -20.5t-4 -19.5q-10 -34 -26 -67q-128 -253 -285 -493q-9 -14 -23.5 -33.5t-31.5 -37.5t-36.5 -30.5t-38.5 -12.5q-17 0 -28 13
t-9 37zM243 592q-2 -75 -56 -125q-32 -29 -67 -29q-25 0 -47 14t-36 42q-19 34 -17 77q5 71 51 125q12 14 26.5 22t36.5 6q17 -2 33 -4.5t30 -13.5q23 -20 34 -52t12 -62zM530 156q-2 -47 -21 -85.5t-58 -65.5q-28 -19 -61 -19q-36 0 -66.5 23t-38.5 62q-7 32 6 69
q7 21 21 44t32.5 42.5t41 32.5t46.5 13q19 0 36 -7.5t29.5 -20t20.5 -28.5t10 -32q1 -7 1 -13.5t1 -14.5zM560 105q6 84 71 147q9 9 19 12.5t24 -1.5q8 -3 15.5 -4t15.5 -3q35 -13 56 -44t20 -69q-1 -24 -8 -47.5t-20 -43t-32 -34t-43 -20.5q-24 -5 -45.5 1t-37.5 20.5
t-25.5 36t-9.5 49.5z" />
    <glyph glyph-name="asciicircum" unicode="^" horiz-adv-x="400" 
d="M219 579q-8 -12 -13.5 -21.5t-10.5 -18.5q-9 -14 -21.5 -33t-28 -36.5t-33 -30t-36.5 -12.5q-15 0 -28 10q-30 23 -23 60q6 29 18 58.5t27.5 58t34 55.5t36.5 49q14 18 35 35t47 17q28 0 46 -27q29 -43 52 -88t43 -93q15 -33 15 -68q1 -15 -4 -27.5t-20 -20.5
q-12 -5 -21 -5q-16 0 -33 12q-12 8 -20.5 18.5t-16.5 21.5q-13 20 -23.5 41t-21.5 45z" />
    <glyph glyph-name="ampersand" unicode="&#x26;" horiz-adv-x="567" 
d="M402 207q9 9 16.5 16t15.5 14q15 15 34 15q5 0 9.5 -1t9.5 -3q20 -6 33 -20t21 -32q4 -9 1 -17t-8 -16q-12 -17 -24.5 -32.5t-26.5 -29.5q-8 -8 -8 -14.5t7 -14.5q9 -11 17.5 -23t17.5 -23q5 -8 10 -15.5t9 -16.5q9 -24 -1 -43.5t-35 -27.5q-10 -3 -21 -3q-15 0 -28.5 6
t-26 16t-23 21t-19.5 22q-11 14 -16 14q-3 0 -6.5 -2.5t-9.5 -6.5q-28 -16 -57.5 -27.5t-61.5 -16.5q-23 -3 -45 -3t-44 8q-27 9 -49 24.5t-36 37.5t-18 49.5t5 61.5q6 23 18 48t27 49t32 45.5t33 39.5q10 10 10 19t-6 20q-20 40 -35.5 81t-23.5 86q-6 38 -4.5 74.5
t12.5 73.5q9 30 29.5 60t49.5 53t64 37.5t73 12.5q42 -2 76.5 -17.5t60.5 -48.5q36 -48 48 -99.5t-4 -110.5q-8 -31 -23 -62.5t-34 -61.5t-40.5 -58t-42.5 -51q-13 -13 -5 -28q11 -20 20.5 -39.5t22.5 -39.5zM286 457q31 40 56 79t36 87q2 12 3.5 24.5t0.5 24.5
q-1 13 -5.5 26t-13 23t-19.5 16.5t-26 6.5q-34 0 -51 -33q-8 -20 -11 -38q-9 -55 0.5 -107.5t29.5 -108.5zM247 185q-38 -40 -63 -85q-15 -27 5 -53q14 -20 40 -20q11 0 23 5q18 8 30.5 22t24.5 28q4 4 2.5 7t-3.5 6q-14 22 -28.5 44t-30.5 46z" />
    <glyph glyph-name="asterisk" unicode="*" horiz-adv-x="330" 
d="M112 512q-12 -2 -22.5 -6t-21.5 -3q-23 0 -33 15t-2 37q7 17 22 30q6 6 12 11.5t12 10.5q11 9 1 19q-8 8 -14.5 15.5t-13.5 15.5q-11 14 -18 28q-11 25 2 42.5t41 15.5q12 -2 22.5 -6.5t21.5 -7.5q5 3 6.5 7.5t3.5 9.5q7 16 16 25q14 17 33 17q21 0 29.5 -17.5
t13.5 -34.5q8 -2 13.5 0.5t11.5 4.5q14 3 27 0.5t23 -14.5q9 -12 7 -24.5t-9 -24.5q-8 -14 -18.5 -27t-21.5 -24q-13 -11 1 -22q6 -6 12.5 -11.5t13.5 -11.5q7 -8 12.5 -16t7.5 -18q5 -18 -4 -30.5t-28 -14.5q-12 -1 -22.5 1.5t-21.5 7.5q-12 5 -14 5q-4 0 -10 -14
q-4 -8 -7.5 -16t-9.5 -15q-8 -9 -17 -14.5t-21 -3.5q-14 2 -21 11t-11 21q-2 6 -2.5 12t-1.5 14z" />
    <glyph glyph-name="parenleft" unicode="(" horiz-adv-x="374" 
d="M21 408q2 67 18.5 131t58.5 122q22 31 48.5 57t61.5 43q38 19 77 12q32 -5 50 -29t10 -53q-4 -12 -11 -22t-16 -20q-13 -14 -26 -26.5t-26 -26.5q-69 -67 -87 -163q-8 -39 -5 -76.5t17 -75.5q13 -32 30.5 -60.5t37.5 -55.5q20 -23 40 -50t28 -56q6 -20 4 -39.5t-20 -33.5
q-20 -16 -43 -16q-16 0 -35 8q-49 23 -84 58t-58.5 78t-37.5 92t-23 99q-4 25 -6.5 50t-2.5 53z" />
    <glyph glyph-name="parenright" unicode=")" horiz-adv-x="386" 
d="M365 404q-2 -72 -17 -141.5t-46 -135.5q-48 -101 -149 -149q-18 -8 -34 -8q-6 0 -12.5 1t-12.5 3q-18 6 -29 22t-10 36q0 17 5.5 33t14.5 30q8 16 19 29.5t22 27.5q22 26 40.5 54.5t32.5 60.5q34 81 21.5 154.5t-62.5 142.5q-14 19 -30 34.5t-33 32.5q-8 8 -15 16t-13 16
q-13 18 -16 36t4 34t22 27t37 14q32 5 63 -8q43 -18 76.5 -50.5t57.5 -73t39 -86t21 -89.5q2 -16 3.5 -31.5t0.5 -31.5z" />
    <glyph glyph-name="bracketleft" unicode="[" horiz-adv-x="439" 
d="M23 294q-2 66 2.5 118.5t7.5 103.5q2 38 4.5 75t8.5 74q3 35 22.5 64t57.5 33q23 3 46 5t46 2q18 0 39.5 -1.5t44 -5t43.5 -10t36 -15.5q18 -11 27.5 -26.5t7.5 -37.5q-2 -20 -15 -32t-31 -19q-15 -6 -31 -8.5t-32 -4.5q-14 -2 -26.5 -3t-25.5 -3q-29 -5 -41.5 -16.5
t-17.5 -40.5q-4 -20 -6 -39.5t-2 -39.5q0 -59 -3 -117t-8 -117q-1 -9 -1.5 -18t0.5 -17q0 -21 7.5 -29.5t28.5 -10.5q16 -2 31.5 -2.5t31.5 1.5t31 0.5t31 -5.5q25 -5 44 -27.5t23 -48.5q3 -23 -8.5 -44.5t-35.5 -35.5q-15 -9 -37.5 -14.5t-47 -8.5t-48 -4t-41.5 -1
q-20 0 -44 1.5t-46 9t-37.5 22t-18.5 39.5q-4 29 -4 58.5t-5 58.5q-6 39 -6 76t-2 61z" />
    <glyph glyph-name="bracketright" unicode="]" horiz-adv-x="449" 
d="M427 311q2 -52 -3 -102.5t-10 -101.5q-1 -14 -1.5 -26.5t-1.5 -26.5q-1 -26 -11.5 -42.5t-27 -25.5t-37 -12.5t-42.5 -4.5q-39 -2 -77.5 1t-77.5 9q-38 6 -65 29q-26 23 -27.5 54t19.5 58q21 26 48.5 32.5t57.5 4.5q17 -1 32.5 -1t32.5 2q23 2 31 11t8 32q-1 14 -1.5 29
t-2.5 29q-5 54 -7.5 107t-1.5 107q0 20 -2.5 39t-6.5 38q-6 27 -17.5 38t-39.5 15q-20 3 -40.5 5.5t-40.5 4.5q-24 3 -43 12q-17 8 -27 21t-11.5 28t4.5 29.5t21 26.5q21 16 50 23q42 11 84.5 14t86.5 0q9 -1 18.5 -1.5t18.5 -2.5q62 -6 80 -65q8 -23 10 -47t4 -49
q4 -41 6 -81t6 -81q3 -32 3.5 -64.5t0.5 -64.5z" />
    <glyph glyph-name="braceleft" unicode="{" horiz-adv-x="463" 
d="M301 792q16 2 31 1.5t30 -5.5q43 -14 62 -51q14 -28 5.5 -57t-35.5 -45q-20 -12 -41 -18t-44 -8q-14 -1 -17.5 -4t-7.5 -17q-2 -9 -2 -17.5v-17.5q0 -10 0.5 -20t-0.5 -20q-2 -23 -12 -42.5t-30 -33.5q-2 -2 -8 -6q-17 -14 -15.5 -27t21.5 -24q1 -1 2 -1
q36 -18 46.5 -40.5t0.5 -62.5q-3 -12 -6.5 -24t-6.5 -25q-5 -23 2 -41q5 -15 13 -21t24 -6q4 0 8 0.5t9 0.5q26 1 48 -7t35 -33q26 -53 -11 -101q-25 -34 -68 -36q-64 -3 -132 11q-38 11 -64 34.5t-28 66.5q0 39 14 78q7 19 10 38.5t4 39.5q1 32 -13.5 52.5t-41.5 34.5
q-25 14 -43.5 31t-18.5 49q-2 43 37 59q9 5 18 8t19 7q37 13 37 53q0 20 -0.5 39t-1.5 38q0 53 25 96q23 39 56.5 59.5t81.5 15.5q2 0 4 -0.5t4 -0.5z" />
    <glyph glyph-name="braceright" unicode="}" horiz-adv-x="477" 
d="M333 590v-42q-1 -43 39 -57q7 -3 14 -5.5t14 -5.5q33 -14 42.5 -43t-10.5 -59q-14 -22 -39 -34q-26 -13 -43 -28.5t-22 -46.5q-5 -51 13 -96q14 -37 14 -76q-1 -41 -24.5 -64t-57 -34.5t-72 -14t-68.5 -2.5q-18 0 -36.5 9t-32 24.5t-19.5 38t0 50.5q6 26 29.5 41.5
t52.5 15.5q5 0 10 -1t10 -1q20 -1 29.5 6.5t14.5 27.5q3 14 1 28t-6 28q-3 11 -6 20.5t-5 20.5q-6 32 7 55.5t38 31.5q7 2 11 6q32 19 5 45q-3 3 -11 9q-20 14 -30 33.5t-12 42.5q-1 11 -0.5 21t0.5 21q0 9 -0.5 18t-2.5 17q-4 19 -24 20q-23 0 -43 6.5t-40 17.5
q-30 17 -38.5 47.5t8.5 59.5t42 41t57 12q11 0 22 -0.5t22 0.5q24 2 44.5 -6t38.5 -23q29 -23 44.5 -54t19.5 -69q2 -13 1 -25.5t-1 -26.5z" />
    <glyph glyph-name="period" unicode="." horiz-adv-x="181" 
d="M160 63q0 -14 -6 -28.5t-16 -26.5t-23 -20t-28 -8q-22 0 -39 15t-22 41q-5 27 8.5 54t38.5 39q14 6 26 6q25 0 43 -19.5t18 -52.5z" />
    <glyph glyph-name="comma" unicode="," horiz-adv-x="200" 
d="M79 -18q-22 2 -33 14.5t-16 30.5q-15 49 20 89q23 24 54 24q16 0 33.5 -7t22.5 -24q15 -50 6 -94t-40 -85q-15 -21 -43 -28q-7 -3 -17 -3q-21 0 -31 18q-5 10 -2 18t9 16q7 9 17 15t20 16z" />
    <glyph glyph-name="colon" unicode=":" horiz-adv-x="183" 
d="M162 453q0 -17 -6 -32.5t-17 -28.5q-13 -15 -28.5 -22.5t-35.5 -2.5t-31 18.5t-16 33.5q-6 27 8.5 55.5t39.5 40.5q12 6 25 6q25 0 43.5 -19.5t17.5 -48.5zM162 70q0 -34 -24 -64q-11 -14 -26 -22t-35 -3q-41 10 -49 54q-6 27 8.5 55t40.5 40q12 6 25 6q24 0 42 -18.5
t18 -47.5z" />
    <glyph glyph-name="semicolon" unicode=";" horiz-adv-x="200" 
d="M44 433q0 14 5.5 29.5t15 28.5t23 21t29.5 8q10 0 20 -4t19 -9q16 -9 20.5 -25t3.5 -34q-1 -17 -7.5 -31t-17.5 -27q-12 -14 -27 -21t-35 -2q-36 9 -47 49q-1 5 -1 9t-1 8zM82 -18q-23 2 -34 14t-16 29q-17 56 23 94q21 21 49 21q17 0 34.5 -7.5t23.5 -24.5
q28 -95 -33 -177q-9 -12 -22 -19.5t-28 -11.5q-13 -3 -24.5 1t-16.5 14q-13 21 11 42q7 6 14.5 11.5t18.5 13.5z" />
    <glyph glyph-name="quoteleft" unicode="&#x2018;" horiz-adv-x="206" 
d="M120 580q19 -1 29 -11t17 -24q8 -18 7 -36.5t-8 -35t-20 -29t-30 -18.5q-10 -3 -19 -3q-14 0 -26 5t-23 13q-5 2 -6.5 7t-3.5 10q-25 92 31 171q8 11 18.5 18.5t22.5 12.5q16 5 27 4q20 -2 27 -17t-4 -32q-4 -5 -8.5 -9t-9.5 -8t-10.5 -7t-10.5 -11z" />
    <glyph glyph-name="quoteright" unicode="&#x2019;" horiz-adv-x="201" 
d="M81 506q-32 9 -45.5 34t-5.5 59q6 29 27.5 47.5t48.5 18.5q14 0 32.5 -8t23.5 -23q29 -99 -35 -181q-9 -11 -22 -18t-27 -10q-13 -3 -24.5 1.5t-16.5 14.5q-10 21 11 40q7 6 15 11.5t18 13.5z" />
    <glyph glyph-name="quotesinglbase" unicode="&#x201a;" horiz-adv-x="120" 
d="M21 11q0 37 18 64q5 6 10 11t13 7q23 7 33 -14q5 -11 5 -27q-2 -29 -6 -57.5t-13 -55.5q-3 -10 -7.5 -17.5t-15.5 -8.5q-8 -2 -15 5.5t-11 20.5q-5 19 -7 37.5t-4 34.5z" />
    <glyph glyph-name="quotesingle" unicode="'" horiz-adv-x="120" 
d="M21 538q0 43 22 68q7 8 16 12.5t20 1.5t14.5 -11t5.5 -18q2 -12 0 -25q-1 -8 -3 -29t-6.5 -42.5t-12.5 -38.5t-20 -17q-10 0 -19 13q-2 5 -3.5 9t-3.5 9q-5 18 -6.5 35.5t-3.5 32.5z" />
    <glyph glyph-name="quotedbl" unicode="&#x22;" horiz-adv-x="205" 
d="M105 527q-7 -13 -8 -22.5t-3 -18.5q-2 -8 -4.5 -16.5t-7.5 -16.5q-8 -14 -19 -14q-10 0 -19 14q0 1 -0.5 1t-0.5 1q-9 31 -14.5 62t5.5 63q5 13 16 27t28 14q18 0 25 -21q2 -5 2 -10t5 -9q5 7 9 13.5t9 12.5q8 8 16.5 12.5t19.5 -0.5q11 -4 14 -11.5t5 -17.5
q2 -20 -0.5 -39t-6.5 -38q-2 -14 -5 -27t-8 -26q-3 -8 -8 -14.5t-14 -6.5q-10 0 -14.5 6.5t-8.5 14.5q-6 14 -7.5 30.5t-5.5 36.5z" />
    <glyph glyph-name="seven" unicode="7" horiz-adv-x="552" 
d="M311 576q-5 1 -24.5 0t-46.5 -2t-57.5 -2.5t-57 -2.5t-45 -1.5t-22.5 0.5q-18 4 -29.5 16t-16 28t-2 34t12.5 33q9 13 20.5 22t25.5 16q32 16 66.5 19.5t69.5 7.5q10 1 34 1.5t55 0.5t65.5 -0.5t65.5 -2.5t54 -5.5t32 -8.5q42 -24 44 -73q1 -19 -3 -36.5t-11 -34.5
q-4 -11 -9 -21.5t-10 -21.5q-29 -54 -63 -115.5t-69.5 -123.5t-71.5 -121.5t-70 -111.5q-16 -23 -39.5 -43.5t-52.5 -25.5q-22 -5 -42.5 0.5t-35 19t-22.5 33t-5 42.5t15 54t29 66t37 71.5t40 70.5t38 62.5l30 47.5q17 26 34 53t37 55z" />
    <glyph glyph-name="quotedblbase" unicode="&#x201e;" horiz-adv-x="359" 
d="M78 -19q-23 4 -34 17.5t-16 32.5q-12 45 17 80q23 29 58 29q19 0 34 -8t23 -25q14 -48 5 -91.5t-38 -83.5q-18 -26 -51 -32q-14 -3 -25 1.5t-16 14.5q-11 21 10 40q8 7 16 12.5t17 12.5zM240 -18q-23 2 -33.5 13.5t-16.5 27.5q-14 41 7 77q11 20 28 30t37 10q23 0 45 -14
q9 -7 12 -18q15 -49 6 -93t-39 -84q-17 -23 -49 -31q-14 -3 -25.5 1t-16.5 14t-2.5 21t13.5 21q8 6 15.5 11.5t18.5 13.5z" />
    <glyph glyph-name="quotedblleft" unicode="&#x201c;" horiz-adv-x="364" 
d="M276 581q24 -2 35 -13.5t17 -28.5q6 -18 4.5 -35.5t-8.5 -33t-19.5 -27t-28.5 -17.5q-10 -3 -20 -3q-13 0 -25 4.5t-24 12.5q-5 3 -6 7.5t-3 9.5q-27 93 31 173q14 20 42 30q13 6 27 4q19 -3 26 -17.5t-4 -30.5q-4 -5 -8.5 -9.5t-9.5 -8.5q-5 -3 -11 -7zM120 580
q20 -1 30.5 -12t16.5 -27q6 -18 5 -36t-8 -34t-19.5 -27.5t-29.5 -17.5q-10 -3 -19 -3q-15 0 -35 8.5t-23 25.5q-14 48 -5.5 91t36.5 82q7 10 16.5 17t20.5 12q12 5 22 5q27 2 35 -18q5 -11 2 -19.5t-10 -16.5q-4 -4 -8 -7l-8 -6q-4 -4 -9 -6.5t-10 -10.5z" />
    <glyph glyph-name="quotedblright" unicode="&#x201d;" horiz-adv-x="355" 
d="M234 505q-53 19 -52 76q1 29 17 51.5t42 29.5q18 5 34 1t32 -14q5 -3 7 -8.5t4 -10.5q13 -47 4.5 -89t-35.5 -81q-16 -24 -46 -33q-16 -5 -29.5 -1.5t-19.5 14.5q-12 23 16 46q6 5 12.5 9.5t13.5 9.5zM74 505q-56 20 -51 81q2 30 20.5 51.5t44.5 26.5q28 5 48 -8.5
t25 -40.5q16 -80 -31 -152q-19 -27 -49 -36q-5 -1 -9 -2t-8 -1q-11 0 -19.5 4t-13.5 15q-7 18 8 34q8 9 17.5 14.5t17.5 13.5z" />
    <glyph glyph-name="underscore" unicode="_" horiz-adv-x="462" 
d="M215 -67q-32 -1 -63 1t-60 10q-14 3 -27 8.5t-24 16.5q-30 32 3 62q14 12 37.5 19t49.5 10t51.5 4t42.5 1q18 0 45.5 -1.5t56 -5.5t54 -11.5t39.5 -19.5q17 -15 16 -32.5t-20 -30.5q-20 -12 -46.5 -17t-49.5 -8q-27 -3 -53 -5t-52 -1z" />
    <glyph glyph-name="minus" unicode="&#x2212;" horiz-adv-x="426" 
d="M41 369q-9 6 -14.5 13.5t-3.5 19.5q2 11 9 15.5t17 7.5q35 11 74 13.5t76 2.5q18 0 42 -1.5t49 -5t48.5 -10t38.5 -17.5q22 -15 20 -35t-26 -31q-26 -11 -58 -13q-26 0 -63 1.5t-76 5.5t-74.5 12.5t-58.5 21.5z" />
    <glyph glyph-name="plus" unicode="+" horiz-adv-x="423" 
d="M403 374q-1 -15 -11.5 -23.5t-25.5 -13.5t-30.5 -7t-26.5 -2q-9 -1 -18.5 0.5t-17.5 -3.5q-7 -6 -6.5 -15.5t-1.5 -18.5q-2 -12 -5 -24t-8 -24q-5 -14 -16 -29t-29 -15q-15 0 -23.5 11t-13.5 26t-7 31t-2 26q-1 11 1 22t-4 19q-7 8 -18.5 8t-21.5 3q-13 3 -25.5 6.5
t-24.5 7.5q-15 6 -27 15q-16 12 -13.5 27t21.5 22q22 8 44 10.5t45 4.5q4 1 8 1h9q15 0 18 16q3 23 10 52.5t21 49.5q5 8 12.5 13t18.5 3q10 -2 15 -8.5t7 -15.5q12 -48 15 -96q0 -16 15 -17q16 -2 31.5 -5t29.5 -8q19 -5 36 -16t19 -33z" />
    <glyph glyph-name="divide" unicode="&#xf7;" horiz-adv-x="415" 
d="M293 546q0 -30 -21.5 -51.5t-51.5 -21.5q-25 0 -41.5 20t-16.5 50q0 28 20.5 47.5t49.5 19.5q27 0 44 -18t17 -46zM191 440q10 0 29 -0.5t42 -2.5t46.5 -6t42.5 -11.5t31.5 -18.5t12.5 -27q-1 -13 -8.5 -21t-18.5 -13q-29 -11 -58 -12q-109 -4 -216 21q-14 3 -27.5 7.5
t-26.5 12.5q-8 5 -14.5 12.5t-5.5 18.5q2 12 9.5 17.5t18.5 7.5q35 10 71 12.5t72 2.5zM277 260q0 -31 -17 -52.5t-42 -25.5q-23 -4 -40.5 8.5t-21.5 35.5q-3 23 4.5 42.5t24.5 36.5q3 2 6 4.5t7 2.5q14 1 29 0t28 -10q13 -8 17.5 -19.5t4.5 -22.5z" />
    <glyph glyph-name="multiply" unicode="&#xd7;" horiz-adv-x="347" 
d="M268 237q-9 0 -21.5 6.5t-24.5 15.5t-22.5 18.5t-16.5 15.5q-7 9 -14 9q-5 0 -13 -6q-27 -23 -55 -35q-17 -10 -35 -11q-21 -2 -32.5 11.5t-6.5 34.5q7 20 22.5 40.5t29.5 34.5q15 15 15.5 20.5t-12.5 23.5l-16 26t-15 27q-4 8 -6.5 16.5t-4.5 17.5q-2 14 6 23t19 9
q10 0 24.5 -8t29.5 -19t28 -22.5t20 -17.5q12 -11 25 -1q18 14 45 29.5t50 20.5q20 3 31 -10q7 -8 6 -16.5t-6 -16.5q-10 -18 -21.5 -34.5t-25.5 -32.5q-3 -3 -6 -6.5t-6 -6.5q-11 -11 0 -23q7 -9 15.5 -20.5t15.5 -24.5t12 -26.5t5 -25.5q1 -17 -9.5 -26.5t-29.5 -9.5z" />
    <glyph glyph-name="plusminus" unicode="&#xb1;" horiz-adv-x="446" 
d="M214 179q-13 1 -21.5 9.5t-13.5 20.5t-7.5 25t-3.5 23q-1 12 -1 24t-1 23q0 15 -2.5 18t-17.5 6q-11 2 -25.5 4.5t-29 6.5t-27.5 10t-22 13q-17 12 -14 29q1 10 7 15.5t15 8.5q19 5 38 8.5t38 5.5q12 1 25 1t21 5q10 6 10 19.5t3 24.5q4 15 7.5 30.5t10.5 29.5l6 12t8 11
q11 11 23 11q17 0 26 -20q5 -12 7 -24.5t4 -25.5q2 -14 3 -26.5t3 -26.5q1 -14 3.5 -17t16.5 -6q19 -3 37.5 -6t35.5 -11q9 -4 17 -8t15 -11q14 -14 12.5 -30.5t-17.5 -27.5q-17 -11 -42 -14q-30 -6 -57 -5q-17 0 -20 -3.5t-6 -20.5q-1 -11 -4 -27t-8.5 -31.5t-13.5 -29
t-20 -18.5q-8 -5 -18 -5zM284 34q-22 0 -55 2.5t-67.5 7.5t-66.5 13t-52 20q-9 6 -16 13.5t-5 20.5t10 18t19 8q26 7 52 10t52 5q48 2 94.5 0t93.5 -13q14 -4 27.5 -9t25.5 -14q21 -15 19 -35.5t-25 -31.5q-17 -8 -35 -10.5t-36 -4.5q-8 -1 -17 -0.5t-18 0.5z" />
    <glyph glyph-name="equal" unicode="=" horiz-adv-x="436" 
d="M277 407q-10 0 -33.5 1t-52.5 4t-59.5 8.5t-55.5 14t-40.5 20.5t-14.5 28q2 12 10 18t19 8q28 8 55.5 11t55.5 4q44 2 86.5 0.5t85.5 -10.5q14 -3 27.5 -7.5t26.5 -11.5q11 -7 20 -16.5t7 -24.5q-1 -15 -10.5 -23t-22.5 -13q-22 -8 -44 -9.5t-45 -1.5h-15zM202 350
q19 0 43 -1t49 -4t48.5 -8.5t40.5 -14.5q14 -8 23.5 -17.5t7.5 -26.5q-1 -13 -10.5 -21.5t-23 -13.5t-27.5 -7t-25 -3q-118 -6 -232 21q-15 4 -29 9t-27 13q-8 6 -14.5 13.5t-4.5 19.5q2 11 9.5 16.5t18.5 8.5q38 10 76.5 13t76.5 3z" />
    <glyph glyph-name="notequal" unicode="&#x2260;" horiz-adv-x="445" 
d="M181 412q-14 5 -28.5 6.5t-28.5 4.5q-20 5 -39.5 10.5t-38.5 14.5q-10 5 -18 12.5t-7 21.5q2 14 12 19.5t22 8.5q37 9 74 12.5t74 1.5q18 -1 30 4.5t20 22.5q4 8 11.5 18t17 19.5t20 16t20.5 6.5q11 0 18 -7t7 -21q1 -7 0 -13.5t-3 -13.5l-4 -12l-4 -12
q-4 -13 -2.5 -15.5t13.5 -6.5q8 -3 16.5 -5.5t16.5 -6.5q9 -4 20 -13q17 -14 15 -32t-20 -29q-13 -8 -27 -10.5t-28 -4.5q-20 -3 -35 -2q-23 1 -29 -20q-4 -9 -8.5 -17.5t-6.5 -19.5q19 -3 37.5 -5.5t37.5 -6.5q15 -3 29.5 -8t27.5 -15q23 -16 21.5 -37t-27.5 -33
q-14 -6 -29.5 -8.5t-31.5 -3.5q-26 -2 -53 -1.5t-54 3.5q-11 1 -16.5 -3t-10.5 -13t-15.5 -28t-24 -37.5t-27.5 -32.5t-26 -14q-9 0 -14 14q-6 16 -2 31q6 24 15.5 47.5t20.5 45.5q-8 8 -16.5 9t-16.5 3q-14 5 -26.5 9.5t-23.5 13.5q-8 5 -12 12t-2 17q3 17 23 24
q23 6 46.5 10t47.5 5q22 0 28 21q2 11 7 21t7 22z" />
    <glyph glyph-name="lessequal" unicode="&#x2264;" horiz-adv-x="511" 
d="M213 300q27 -16 52.5 -31t51.5 -31q27 -17 53 -34t50 -37q11 -9 20 -19t17 -21q15 -24 7 -42t-35 -23q-16 -3 -31.5 -1t-30.5 5q-36 9 -79 29.5t-85.5 48t-80.5 58.5t-65 59q-21 23 -20.5 41t21.5 42q25 27 64.5 59t85 60.5t92 50t85.5 27.5q14 2 27 2.5t27 -4.5
q38 -14 24 -52q-6 -13 -19 -27t-28 -26.5t-30.5 -23.5t-27.5 -18q-30 -19 -61 -37.5t-62 -37.5q-5 -4 -11 -6.5t-11 -10.5zM214 29q45 0 89 -1t88 -10q15 -2 36 -8t34 -16q20 -14 19.5 -31.5t-22.5 -29.5q-19 -9 -46.5 -13.5t-48.5 -4.5q-66 -1 -130.5 2t-129.5 11
q-25 3 -50 14q-7 4 -13 8t-11 10q-9 12 -7 26t15 22q10 6 34 10t52 6.5t53.5 3.5t37.5 1z" />
    <glyph glyph-name="greaterequal" unicode="&#x2265;" horiz-adv-x="507" 
d="M300 301q-5 7 -10.5 9.5t-10.5 5.5q-35 22 -70.5 43t-69.5 44q-20 14 -44 33t-38 40q-15 24 -7 42.5t36 23.5q18 3 35 1t34 -7q34 -9 76.5 -30.5t85.5 -49.5t81 -58.5t63 -59.5q16 -20 16.5 -35.5t-16.5 -35.5q-23 -28 -65 -62t-90.5 -65t-99 -53t-89.5 -26
q-8 -1 -17 -0.5t-17 2.5q-26 5 -33.5 22t5.5 39q8 14 19 25t24 21q20 17 41.5 31.5t44.5 28.5q29 17 57.5 34.5t58.5 36.5zM300 28q37 0 73.5 -2.5t72.5 -7.5q41 -5 46 -32q4 -26 -33 -45q-18 -8 -37 -11.5t-38 -5.5q-55 -5 -109.5 -7.5t-110.5 -1.5q-20 0 -40.5 1.5
t-40.5 6.5q-10 3 -19 6.5t-17 9.5q-29 24 -2 50q12 11 34 18.5t46 11.5t47.5 6t39.5 3q22 1 44 0.5t44 -0.5z" />
    <glyph glyph-name="less" unicode="&#x3c;" horiz-adv-x="484" 
d="M200 300q25 -14 48.5 -28.5t47.5 -28.5q15 -9 36.5 -22.5t43 -29.5t40 -32.5t28.5 -31.5q15 -23 7 -41.5t-35 -23.5q-16 -3 -31 -1t-31 5q-20 4 -48 16t-59 28.5t-63 37t-61 42t-52 43t-36 39.5q-21 30 0 60q18 24 49 50.5t66.5 51t70.5 45t61 33.5q22 11 44 18t46 11
q13 2 26 2.5t26 -3.5q21 -7 27.5 -22t-3.5 -35q-7 -13 -20.5 -26.5t-28.5 -26t-30.5 -23.5t-28.5 -19q-29 -18 -59 -35.5t-59 -35.5q-5 -4 -11 -6.5t-11 -10.5z" />
    <glyph glyph-name="greater" unicode="&#x3e;" horiz-adv-x="487" 
d="M283 300q-5 8 -11.5 11t-12.5 7q-38 23 -75 45t-73 47q-17 12 -32.5 25t-29.5 29q-10 12 -17 25t1 29q8 17 22.5 21t30.5 4q37 0 87.5 -20t101.5 -50.5t95.5 -66t70.5 -66.5q19 -22 19.5 -39.5t-19.5 -37.5q-63 -64 -136 -112.5t-158 -79.5q-19 -7 -39 -10t-40 1
q-27 5 -35 23t6 41q8 13 18 23t21 19q29 24 60.5 44t63.5 40l40 24t41 24z" />
    <glyph glyph-name="guilsinglleft" unicode="&#x2039;" horiz-adv-x="291" 
d="M155 280q11 -9 28.5 -27t34.5 -39t30 -42t16 -36q5 -24 -8.5 -38t-36.5 -11q-24 2 -51.5 18t-52.5 38.5t-45.5 47.5t-31.5 44q-3 5 -5.5 11t-4.5 11q-12 27 3 53q15 22 34 48t41.5 50t48.5 42.5t53 24.5q29 7 45.5 -9.5t9.5 -45.5q-3 -16 -12.5 -33t-22 -33t-26 -30
t-25.5 -24q-5 -5 -10 -9.5t-12 -10.5z" />
    <glyph glyph-name="guilsinglright" unicode="&#x203a;" horiz-adv-x="292" 
d="M136 282q-13 10 -30 26t-33 34.5t-28 38t-15 37.5q-8 31 9 47.5t48 8.5q26 -6 51.5 -24.5t48.5 -43t42 -50.5t32 -47q15 -23 4 -52q-9 -22 -30.5 -50.5t-48.5 -54.5t-56.5 -44.5t-56.5 -20.5q-23 -3 -36 11t-8 38q3 14 15 34t27.5 40t31.5 37t26 26q2 2 3.5 4t3.5 5z" />
    <glyph glyph-name="backslash" unicode="\" horiz-adv-x="436" 
d="M20 611q0 26 14.5 39t39.5 8q29 -4 61 -33.5t64 -73t62.5 -96.5t56 -103.5t44.5 -93t29 -65.5q8 -20 12.5 -41t9.5 -43q2 -15 -2 -28t-18 -23q-11 -8 -26 -8q-14 0 -28 7t-26 17.5t-22 23t-18 23.5q-42 64 -81 129t-76 132q-21 38 -40.5 77t-36.5 80q-8 17 -13 34.5
t-6 37.5z" />
    <glyph glyph-name="bar" unicode="|" horiz-adv-x="206" 
d="M184 323q-3 -45 -2.5 -98t-4.5 -108q-2 -18 -7 -37t-14 -35q-8 -14 -20.5 -23.5t-29.5 -7.5q-18 2 -29 13t-17 28q-13 35 -19 72t-9 75q-5 61 -8.5 121.5t-1.5 122.5q0 23 1.5 51t5 57t10 56.5t17.5 48.5q8 17 22.5 32t34.5 15q13 0 22 -6.5t15.5 -16.5t10 -21.5
t5.5 -21.5q7 -29 9.5 -57t4.5 -57q2 -48 4 -96.5t0 -106.5z" />
    <glyph glyph-name="slash" unicode="/" horiz-adv-x="436" 
d="M414 599q0 -18 -14.5 -54.5t-37.5 -82t-51 -95t-54.5 -94.5t-48.5 -80.5t-33 -52.5q-7 -12 -17.5 -26.5t-23.5 -27.5t-27 -22.5t-29 -12.5q-20 -4 -35.5 6.5t-19.5 31.5q-3 14 -1 24q5 18 8.5 35.5t9.5 34.5q11 27 30.5 70.5t44.5 94t55 102.5t61.5 95.5t63.5 74t62 38.5
q27 5 43 -9.5t14 -49.5z" />
    <glyph glyph-name="sterling" unicode="&#xa3;" horiz-adv-x="598" 
d="M294 375q19 -5 30 -6q14 -3 28 -9q24 -12 27 -33.5t-17 -39.5q-14 -13 -31.5 -20t-35.5 -12q-12 -4 -18 -9.5t-6 -18.5q-1 -14 -3 -26.5t-4 -25.5q-2 -16 0.5 -19t18.5 -2q26 1 52 1t52 -2q23 -2 44 -4.5t42 -10.5q11 -3 21 -8t18 -13q29 -29 4 -58q-12 -16 -34.5 -26
t-48 -16t-51 -8.5t-43.5 -3.5q-23 -2 -46 -2t-46 1q-11 1 -21.5 0t-21.5 1q-28 2 -54.5 11t-46.5 30q-20 20 -16 43t28 37q18 9 15 29q-2 14 -2 27.5t-1 27.5q0 16 -2.5 18.5t-18.5 4.5q-31 3 -57 16q-13 8 -21 18t-8 26q1 15 9.5 24t20.5 16q16 7 33.5 11t34.5 6
q21 4 24 27q5 36 15.5 75.5t26 78t35 73.5t43.5 62q17 21 37.5 38t43.5 32q50 32 107 27q80 -6 106 -80q33 -94 -15 -186q-11 -20 -32 -38.5t-47 -18.5q-18 0 -30 13t-14 36q-1 19 2 42q5 20 2 37q-4 25 -28 17q-18 -6 -33 -27t-26.5 -46.5t-19.5 -51t-12 -41.5
q-2 -11 -4 -21.5t-5 -22.5z" />
    <glyph glyph-name="cent" unicode="&#xa2;" horiz-adv-x="490" 
d="M355 402v-87q10 2 19 3t18 1q31 -2 47 -24.5t8 -52.5q-15 -51 -64 -73q-40 -17 -39 -60q0 -31 -14 -61q-12 -24 -30 -22q-21 4 -26 27q-6 29 -9 59q-2 9 -5 14t-14 4q-38 0 -72.5 17t-57.5 46q-36 45 -47 100t0.5 108.5t45 100t85.5 75.5q8 5 16.5 9t17.5 7q20 6 20 26
q0 9 2.5 22t5.5 26.5t7.5 25.5t9.5 20t12 14t18 4t16 -8.5t9 -14.5q5 -13 7.5 -26.5t1.5 -27.5q-1 -25 8 -40t35 -22q23 -6 40 -22.5t28 -39.5q24 -52 -9 -97q-27 -35 -65 -35q-13 0 -25 4zM243 405q-15 -19 -20.5 -32.5t-3.5 -29.5q3 -21 17 -32q4 -3 7 -2t3 6
q-1 21 -1.5 42.5t-1.5 47.5z" />
    <glyph glyph-name="yen" unicode="&#xa5;" horiz-adv-x="488" 
d="M244 570q29 41 59.5 80.5t67.5 73.5q9 7 18 13.5t20 10.5q9 3 18 3q16 0 27 -10t13 -29q2 -11 0.5 -21t-3.5 -21q-7 -30 -21.5 -61t-33.5 -60.5t-41 -56t-43 -47.5q-15 -16 -11 -38q3 -14 4.5 -28.5t2.5 -28.5q1 -9 2 -14t3 -8t6.5 -4.5t12.5 -3.5q11 -2 21 -6t18 -10
q20 -13 19 -29.5t-21 -27.5q-9 -6 -19 -9t-21 -5q-15 -1 -15 -18q0 -11 0.5 -16.5t2.5 -8.5t6.5 -4t14.5 -3t19 -5t18 -8q23 -14 23 -31t-23 -30q-12 -8 -25 -12t-27 -6q-11 -1 -16 -6t-7 -15q-2 -11 -7 -23.5t-12.5 -23.5t-18 -18.5t-23.5 -7.5q-12 0 -22.5 6.5t-19 16
t-14 21.5t-7.5 22q-4 14 -11.5 19t-21.5 7q-11 1 -26.5 4t-30 9t-24.5 16t-11 24q0 14 10.5 22.5t25.5 14t31 7.5t26 3q14 0 14 16q0 14 -14 15q-14 2 -26.5 3t-25.5 6q-10 3 -18.5 7t-16.5 12q-16 16 -12.5 35t23.5 29q15 8 32 6q10 0 19.5 1t19.5 3q16 3 19 6t4 19t1 31.5
t1 30.5q1 19 -12 34q-21 21 -43 48t-41.5 57t-35 61t-21.5 61q-5 22 -2 42q5 39 39 39q21 0 45.5 -19t47.5 -44.5t43 -51.5t30 -41q4 -6 8 -11.5t9 -13.5z" />
    <glyph glyph-name="Euro" unicode="&#x20ac;" horiz-adv-x="647" 
d="M366 523q14 -4 24 -7t21 -6t21 -7.5t19 -11.5q20 -15 19.5 -34.5t-20.5 -34.5q-9 -7 -19.5 -11t-21.5 -7q-19 -6 -38.5 -8.5t-39.5 -4.5q-14 -2 -16.5 -5t-3.5 -17v-22.5t1 -22.5q2 -14 5 -17t18 -3q13 0 29.5 -1.5t34 -4.5t33.5 -7.5t27 -11.5q17 -11 18 -25.5
t-13 -28.5q-11 -11 -25 -16.5t-28 -10.5q-8 -2 -16 -3t-16 -9q47 -37 106 -25q17 4 34.5 7t34.5 1q38 -3 52.5 -29t-4.5 -60q-13 -22 -34 -39t-46.5 -28t-53 -16.5t-51.5 -5.5q-41 0 -80.5 11.5t-73 32.5t-60.5 51.5t-42 69.5q-5 11 -11.5 16.5t-19.5 5.5q-11 0 -28.5 3
t-34 9t-29 16t-13.5 25q-1 14 6.5 21.5t17.5 13.5q15 8 30.5 11t32.5 7q8 2 12.5 3t6.5 3.5t2.5 7t0.5 13.5q1 16 1.5 32t3.5 32q4 16 -13 19q-13 2 -27 6t-26.5 11t-22.5 17t-15 23q-8 21 0 36.5t30 21.5q21 6 42 10t44 5q29 1 40 29q18 41 44.5 79t61 69t75.5 51t87 24
q53 5 96.5 -20.5t62.5 -71.5q14 -35 8 -69q-4 -25 -19.5 -41.5t-39.5 -21.5q-38 -9 -60 24q-6 8 -10 13t-8.5 6.5t-11 1t-16.5 -2.5q-30 -8 -52.5 -26.5t-42.5 -44.5z" />
    <glyph glyph-name="registered" unicode="&#xae;" horiz-adv-x="431" 
d="M411 601q-3 -73 -35 -138.5t-101 -115.5q-20 -14 -41 -22.5t-44 -10.5q-50 -5 -88.5 18t-59.5 70q-14 34 -17 69t4 70q7 41 27 85t50.5 80t70.5 59t86 23q35 0 64.5 -15.5t49.5 -44.5q18 -26 25 -56t9 -71zM378 591q1 38 -5 65t-20 50q-35 52 -95 49q-30 -2 -54.5 -13.5
t-46.5 -30.5q-44 -38 -68 -86t-31 -105q-3 -31 1 -60t19 -57q18 -34 48.5 -48.5t68.5 -7.5q23 5 43.5 15.5t37.5 26.5q50 43 74.5 95.5t27.5 106.5zM211 486q-5 -10 -9 -20t-12 -18q-9 -11 -17 -11q-6 0 -16 8q-8 7 -13.5 15t-4.5 19q0 32 -0.5 63t4.5 62q2 19 10 33
q3 6 7 10.5t10 6.5q14 2 25.5 6.5t24.5 7.5q17 4 35 -2q16 -5 26 -16t13 -25t-1.5 -29t-16.5 -28q-11 -12 -11 -18t10 -19l7.5 -7.5t7.5 -8.5q13 -14 14 -31q2 -19 -9.5 -29t-29.5 -5q-11 2 -20 7.5t-17 12.5q-4 4 -7.5 8.5t-9.5 7.5z" />
    <glyph glyph-name="copyright" unicode="&#xa9;" horiz-adv-x="609" 
d="M589 451q-2 -85 -27 -161t-78 -143q-40 -53 -96.5 -88.5t-124.5 -35.5q-46 0 -84 19.5t-66.5 51t-46.5 71.5t-24 82q-33 222 110 397q38 46 93 78t117 32q45 0 82 -18.5t64.5 -49t46 -69t26.5 -79.5q5 -22 6 -43.5t2 -43.5zM557 451q0 44 -11 91t-34.5 87t-60 65.5
t-88.5 25.5q-38 0 -72 -13.5t-63 -35.5t-53.5 -50.5t-42.5 -59.5q-59 -103 -64 -224q-2 -51 8 -99t38 -92q27 -45 66 -67.5t84 -22.5q30 0 57.5 9t52 24t46 35t38.5 42q50 63 73.5 134.5t25.5 150.5zM162 367q1 52 20 93.5t64 70.5q41 25 86 25q34 0 66.5 -13t49.5 -45
q17 -31 1 -60q-7 -13 -20 -20t-27 -7q-17 0 -30 10q-16 13 -33 13q-26 0 -43 -18.5t-18 -43.5q-1 -17 9.5 -27t27.5 -12q8 -1 16 0t16 3t16 3t16 1q33 0 49.5 -24t5.5 -55q-7 -18 -21 -32t-31.5 -23.5t-37 -14.5t-37.5 -5q-37 0 -64 16.5t-44.5 42.5t-26.5 58t-10 64z" />
    <glyph glyph-name="eth" unicode="&#xf0;" horiz-adv-x="663" 
d="M368 478q-4 10 -6.5 15t-5.5 7t-8 1.5t-13 -2.5q-15 -5 -28 -5q-10 0 -23 5q-19 8 -24.5 24t5.5 33q6 8 12.5 16.5t14.5 16.5q5 6 6.5 11t-2.5 13q-4 6 -8 15t-7 19t-5.5 20t-3.5 16q-3 26 2 50t27 41q23 17 49 17q15 0 32 -4.5t33 -12.5t29.5 -19t20.5 -24q9 -14 23 -7
q9 5 18.5 7.5t19.5 4.5q15 4 32 1q18 -5 25.5 -17.5t2.5 -29.5q-4 -16 -13 -28.5t-20 -23.5q-7 -7 -10 -10.5t-3 -6.5t2 -6.5t5 -10.5q38 -71 61.5 -145.5t30.5 -155.5q2 -32 1.5 -65t-8.5 -64q-13 -48 -41 -88.5t-66 -69t-84.5 -44.5t-96.5 -16q-30 0 -62 6
q-67 13 -115 54.5t-70.5 98t-17.5 121t43 121.5q40 60 96 89.5t128 31.5q5 1 10 0.5t12 -0.5zM304 235q1 -13 2 -25t9 -23q7 -9 14.5 -16t20.5 -5q25 4 34 29q5 12 3 25.5t-8 26.5t-15.5 23t-21.5 14q-14 5 -25 -6q-9 -9 -11.5 -20.5t-1.5 -22.5z" />
    <glyph glyph-name="partialdiff" unicode="&#x2202;" horiz-adv-x="656" 
d="M335 482q-12 20 -29 47.5t-32.5 57.5t-26 59.5t-10.5 53.5q-1 42 21 66t58 24q31 0 62 -15.5t50 -39.5q63 -83 106.5 -173t61.5 -193q8 -48 9.5 -94.5t-6.5 -94.5q-3 -20 -11 -37.5t-17 -34.5q-43 -76 -116.5 -113.5t-159.5 -37.5q-20 0 -41 3t-41 11q-59 22 -99 65
t-57.5 96t-11 111.5t40.5 110.5q40 61 96.5 91.5t128.5 32.5q5 1 10.5 0.5t13.5 3.5zM269 237q0 -10 2.5 -22t7.5 -23t13 -18.5t21 -7.5q16 0 26.5 12.5t13.5 26.5q3 22 -9 45t-32 32q-8 4 -14 4q-8 0 -13.5 -5.5t-9 -13t-5 -16t-1.5 -14.5z" />
    <glyph glyph-name="Thorn" unicode="&#xde;" horiz-adv-x="673" 
d="M143 314q-1 9 0.5 18.5t-3.5 17.5q-6 8 -15.5 5t-17.5 -2q-41 5 -62 34t-11 69q8 35 28 60.5t57 34.5q20 5 27 16.5t9 30.5q1 17 6.5 49.5t16 64.5t27.5 56t41 24q21 0 38 -26q14 -21 19 -45.5t10 -48.5q4 -18 6.5 -36t4.5 -36q2 -14 4.5 -17t16.5 -5q76 -12 138 -44
t108 -97q47 -66 41.5 -133.5t-62.5 -124.5q-43 -44 -99 -68.5t-115 -36.5q-9 -2 -13 -5.5t-6 -12.5q-2 -18 -5 -40.5t-7.5 -45.5t-12 -44t-18.5 -36q-18 -26 -44 -34q-20 -5 -36 2t-26 24q-12 21 -13 43q-2 36 -8 71.5t-8 71.5q-1 9 -5.5 12.5t-11.5 6.5q-15 5 -31 14
t-30.5 20.5t-25.5 26t-16 30.5q-8 25 3 44.5t37 26.5q23 6 49 1q18 -3 17 14q-1 9 -1 18.5v18.5q-1 4 -1 13zM378 399q-11 0 -23.5 -3.5t-12.5 -17.5l3 -87q1 -10 4 -12.5t13 0.5q14 4 26.5 9t23.5 14q14 12 19.5 28t0.5 32q-6 17 -20.5 26.5t-33.5 10.5z" />
    <glyph glyph-name="thorn" unicode="&#xfe;" horiz-adv-x="613" 
d="M153 265v121q-8 0 -14.5 -2.5t-13.5 -5.5q-16 -9 -35 -12q-36 -6 -56 24q-11 15 -9 29.5t11 28.5q8 14 20 23t25 17q35 19 69 29q10 2 13.5 7.5t5.5 14.5q2 14 6 30.5t9 33.5t12 32.5t16 27.5q8 13 19 22.5t29 7.5q17 -2 25.5 -14t13.5 -26q7 -19 10 -38t5 -38
q2 -9 1.5 -18t4.5 -16q5 -8 14.5 -7t17.5 0q61 -10 113.5 -35t87.5 -78q31 -48 27 -99t-42 -93q-41 -45 -97 -68.5t-116 -26.5q-19 -1 -20 -20q-1 -13 -4 -28.5t-8.5 -30.5t-13 -28t-17.5 -22q-16 -14 -32 -14q-12 0 -22.5 6t-18.5 15.5t-13.5 21t-5.5 22.5q-1 17 -3 33.5
t-3 33.5t-17 21q-8 2 -16.5 5.5t-16.5 6.5q-25 11 -40 33q-8 13 -10 25.5t6 26.5q18 28 51 25q8 -1 15 -3t17 0zM324 401q0 -62 -3 -121q-1 -9 2 -11.5t13 0.5q16 5 30 12.5t26 19.5q32 32 2 66q-14 15 -31 23t-39 11z" />
    <glyph glyph-name="germandbls" unicode="&#xdf;" horiz-adv-x="603" 
d="M20 256q0 44 1.5 97t7.5 107t18 105.5t33 90.5q27 50 67.5 82t98.5 41q88 15 157 -45q28 -24 49 -59t31 -76t7 -84.5t-22 -85.5q-7 -14 -11.5 -27.5t-6.5 -29.5q-2 -27 8 -48.5t28 -41.5q11 -11 22.5 -22t22.5 -24q20 -24 27 -49t4.5 -49.5t-14.5 -47t-31 -41.5
q-26 -26 -58.5 -39.5t-68.5 -20.5q-29 -5 -59 -5.5t-60 1.5q-17 2 -31.5 7.5t-26.5 18.5q-32 37 -4 75q19 23 48 32.5t57 14.5q12 3 23.5 7.5t21.5 12.5q20 17 18.5 39t-24.5 36q-14 8 -29 12l-30 8q-13 3 -25.5 6.5t-24.5 9.5q-29 14 -38 38t5 53q9 19 27.5 39.5t34.5 34.5
q51 50 42 123q-2 20 -11 37t-30 24q-20 6 -36.5 -2.5t-29.5 -23.5q-15 -16 -25 -38t-15.5 -46t-8 -49t-3.5 -46q-3 -74 -0.5 -147t7.5 -147q3 -41 5.5 -81t2.5 -82q-1 -22 -4 -43.5t-11 -41.5q-3 -6 -5.5 -11.5t-6.5 -10.5q-22 -35 -54 -27q-16 5 -28 18t-14 30
q-5 40 -9.5 79.5t-7.5 79.5q-4 60 -6.5 118t-4.5 114z" />
    <glyph glyph-name="hyphen" unicode="-" horiz-adv-x="275" 
d="M113 350q24 -1 43 -1.5t37 -5.5q12 -3 23.5 -8t20.5 -13q14 -12 14 -26t-14 -26q-12 -10 -26 -14.5t-29 -6.5q-26 -2 -52 -1.5t-52 6.5q-7 2 -13 4.5t-13 5.5q-34 16 -29 44q2 13 13.5 24.5t27.5 13.5q14 2 27.5 2.5t21.5 1.5z" />
    <glyph glyph-name="endash" unicode="&#x2013;" horiz-adv-x="385" 
d="M178 351q32 -1 63.5 -3t61.5 -10q12 -3 23 -7.5t20 -12.5q14 -13 13.5 -27t-14.5 -26q-12 -10 -31 -16t-40.5 -10t-42 -5.5t-34.5 -1.5q-16 0 -37 1.5t-42 6t-40 11.5t-33 17q-36 29 0 59q18 15 42 18q23 3 46 3.5t45 2.5z" />
    <glyph glyph-name="emdash" unicode="&#x2014;" horiz-adv-x="509" 
d="M225 253h-107q-22 1 -48.5 9t-39.5 29q-7 11 -6 23t11 20t20 14.5t23 8.5q54 7 106 10.5t106 3.5q47 0 95 -3q13 -1 25.5 -3.5t25.5 -6.5q8 -3 16 -6.5t15 -9.5q17 -14 16.5 -29.5t-18.5 -28.5q-12 -8 -29.5 -13.5t-37 -9t-38 -5t-32.5 -2.5q-26 -1 -51.5 -0.5t-51.5 0.5
v-1z" />
    <glyph glyph-name="bullet" unicode="&#x2022;" horiz-adv-x="228" 
d="M208 323q0 -21 -9.5 -40.5t-25 -34.5t-35 -24t-40.5 -9q-35 1 -55 23t-20 53v6q2 20 11 38t24 32.5t34 23t39 8.5h3q32 0 53 -21t21 -55z" />
    <glyph glyph-name="periodcentered" unicode="&#xb7;" horiz-adv-x="130" 
d="M61 264q-17 0 -28.5 11t-12.5 28q0 9 4.5 18.5t12 17t16.5 13t18 5.5q13 0 25.5 -13.5t13.5 -28.5v-2q0 -19 -14.5 -33.5t-34.5 -15.5z" />
    <glyph glyph-name="guillemotleft" unicode="&#xab;" horiz-adv-x="508" 
d="M157 281q26 -23 47 -49t41 -53q7 -11 13 -21.5t8 -23.5q1 -6 1 -11q0 -15 -10 -26t-29 -11h-6q-25 3 -51.5 18t-50.5 36.5t-44.5 45.5t-32.5 43q-4 7 -7 13.5t-6 13.5q-6 13 -6 25q0 16 10 30q15 23 34 49t41.5 49.5t48 41.5t53.5 25q8 2 14 2q18 0 30 -12t12 -30
q0 -7 -2 -15q-4 -19 -16 -39t-28 -38.5t-33 -34.5t-31 -28zM374 280q27 -23 48.5 -49.5t41.5 -53.5q6 -10 11.5 -20t7.5 -21q1 -7 1 -13q0 -16 -10.5 -26.5t-28.5 -10.5q-4 0 -9 1q-24 3 -53.5 21t-57 43.5t-49 54.5t-30.5 53q-5 11 -5 22q0 14 9 28q15 23 34 49t42 50
t49 42.5t54 25.5q7 1 13 1q17 0 29.5 -10.5t12.5 -30.5q0 -5 -1 -10q-2 -16 -12 -34t-23 -35.5t-27 -32t-26 -25.5q-5 -5 -9.5 -9t-11.5 -10z" />
    <glyph glyph-name="guillemotright" unicode="&#xbb;" horiz-adv-x="511" 
d="M354 281q-14 12 -30 27t-31 32.5t-27 36t-17 36.5q-5 13 -5 25q0 1 0.5 8.5t11.5 18.5q13 13 29 13q28 0 56.5 -19t55 -45.5t48 -55t34.5 -48.5q9 -15 9 -29q0 -12 -6 -24q-9 -22 -29.5 -50.5t-47.5 -54t-57 -44t-57 -21.5q-4 -1 -8 -1q-17 0 -27.5 11t-10.5 27q0 6 1 12
q3 16 16 36t29 40t33.5 38.5t29.5 30.5zM131 277q-11 14 -23 27t-23 26q-14 16 -26.5 32t-20.5 35q-8 17 -9.5 27t-1.5 12q0 15 12 29q11 12 30 12q27 0 55 -18t53.5 -43.5t46.5 -53.5t35 -48q11 -17 11 -34q0 -14 -7 -28q-54 -105 -161 -158q-18 -8 -36 -8q-17 0 -27 10.5
t-11 27.5v4q0 12 5 23.5t13 22.5q19 26 38.5 51t43.5 47l3 3t1 2h-1z" />
    <glyph glyph-name="trademark" unicode="&#x2122;" horiz-adv-x="635" 
d="M89 575q0 6 -0.5 9.5t-0.5 4.5q0 4 2 9q1 8 1 14q0 11 -4 22.5t-27 17.5q-6 2 -11 7t-9 10q-12 15 -12 31q0 4 2 17t22 25q12 9 23 10q20 4 39 6t39 2q14 0 30 -1t31 -5t28.5 -10.5t23.5 -17.5q15 -15 15 -32q0 -2 -1.5 -13t-22.5 -24q-16 -11 -34 -14q-17 -3 -17 -20
q0 -16 -1 -35.5t-4.5 -39.5t-9 -38t-14.5 -32q-8 -11 -17 -18t-20 -7h-6q-14 2 -23 11.5t-14.5 22.5t-7.5 27.5t-2 25.5v35h2zM447 683q8 14 14.5 25.5t14.5 22.5q16 22 36 22q26 0 43 -29t28 -67.5t17 -76.5t8 -56q2 -6 2 -13v-8q1 -7 2 -13q1 -4 1 -8q0 -9 -4.5 -16.5
t-14.5 -14.5q-11 -8 -22 -8q-9 0 -20 6q-12 6 -20 15.5t-13 20.5q-8 16 -13 33t-10 35q-12 -7 -21.5 -17.5t-24.5 -10.5h-3q-14 0 -23 8.5t-19 18.5q-7 -3 -7 -8.5t-2 -10.5q-5 -15 -10 -29.5t-13 -28.5q-14 -22 -36 -29q-7 -2 -13 -2q-13 0 -26 10.5t-13 27.5v4
q1 13 4 37.5t8 54.5t12.5 61t18 56.5t24.5 42t32 16.5q12 0 24 -16q10 -13 19 -26.5t20 -28.5z" />
    <glyph glyph-name="ellipsis" unicode="&#x2026;" horiz-adv-x="443" 
d="M127 4q0 -23 -13.5 -40.5t-32.5 -22.5q-7 -2 -14 -2q-16 0 -29.5 13t-13.5 34v7q3 26 21 42q18 18 33 18q5 0 13 -4q15 -8 25.5 -17.5t10.5 -22.5v-5zM277 2v-3q0 -18 -12.5 -35t-31.5 -23q-8 -2 -15 -2q-16 0 -30 12.5t-14 33.5v7q1 13 6.5 24t14.5 20q10 9 18 13t14 4
t13 -3q37 -14 37 -48zM422 1q0 -20 -13 -37.5t-32 -22.5q-8 -2 -15 -2q-15 0 -29 12.5t-14 33.5v7q3 26 22 44q9 9 17.5 13t14.5 4t13 -3q36 -16 36 -49z" />
    <glyph glyph-name="dagger" unicode="&#x2020;" horiz-adv-x="544" 
d="M286 733q22 -1 35 -24q5 -8 9 -20.5t7 -27t5 -28t2 -23.5q0 -11 5 -14.5t15 -4.5q32 -4 68 -12t62 -26q23 -15 23 -34l-0.5 -10t-23.5 -24q-24 -14 -50.5 -19t-52.5 -7q-16 -1 -24 -2t-11 -4t-3 -9q0 -1 0.5 -5.5t0.5 -19.5q1 -40 1 -81q0 -40 -1 -101t-5 -142
q-1 -27 -3.5 -63t-9.5 -72.5t-18.5 -69.5t-29.5 -54q-14 -14 -30 -14q-11 0 -20 7.5t-16 18t-11 22.5t-5 21q-12 127 -21 241t-9 220v42q0 12 1 24l2 24v4q0 5 -2.5 8.5t-11.5 5.5q-13 2 -29.5 4.5t-33 7.5t-31 12t-25.5 16q-16 15 -16 33q0 3 2 15t25 24q11 6 22.5 8
t22.5 3q19 2 37.5 3.5t37.5 2.5q11 1 17 5t8 16q3 13 8 28.5t12 30.5t16 28.5t19 22.5q13 13 30 13z" />
    <glyph glyph-name="section" unicode="&#xa7;" horiz-adv-x="570" 
d="M219 -93q-48 1 -88.5 16.5t-72.5 50.5q-15 16 -25 35t-12 42q-1 7 -1 13t1 12q4 25 19.5 39.5t38.5 14.5q20 0 39 -10t34 -21q20 -14 41 -26t46 -12q15 0 28 4q38 12 49.5 36t11.5 41t-7 36q-17 44 -56 76q-14 12 -29.5 24t-30.5 24q-26 19 -45 43q-18 25 -26 48.5
t-8 46.5q0 7 1 15l4 36q2 18 7 35q2 6 2 11q0 2 -0.5 6t-3.5 12q-18 42 -18 86q0 3 1 29t23 68t63.5 73t100.5 42q12 2 24 3t23 1q59 0 110.5 -29t76.5 -83q9 -22 9 -43q0 -8 -1 -15q-5 -31 -23.5 -42t-34.5 -11q-10 0 -21 3q-14 5 -27 13l-26 16q-11 8 -23 15.5t-26 13.5
q-9 5 -18.5 6.5t-18.5 1.5q-18 0 -31 -5q-37 -14 -48 -36.5t-11 -39.5t7 -35q10 -25 26.5 -45t36.5 -37q16 -14 32 -26t33 -25q18 -14 31.5 -32t23.5 -38q13 -29 13 -56q0 -6 -2 -26t-13 -55q-2 -7 -2.5 -11t-0.5 -5q0 -6 3 -12q23 -45 23 -93.5t-20 -91t-60 -75.5t-97 -46
q-14 -4 -28 -5t-27 -1zM184 478q-1 -7 -1 -13q0 -40 33 -66q11 -9 23.5 -15.5t25.5 -14.5q30 -17 58.5 -36.5t54.5 -44.5q2 -2 3.5 -2.5t2.5 -0.5t4 1q0 2 0.5 3.5t0.5 2.5q0 2 -1 3q-3 53 -51 81q-40 23 -78.5 46.5t-71.5 55.5h-3z" />
    <glyph glyph-name="currency" unicode="&#xa4;" horiz-adv-x="472" 
d="M397 168q-17 1 -33 9.5t-30 22.5q-10 11 -22 11q-6 0 -18 -5q-28 -13 -58 -13q-9 0 -18 1h-2q-12 0 -19 -9q-6 -9 -15.5 -22t-21 -24t-24.5 -19t-26 -8q-17 0 -27 11t-10 29v3q2 20 12 42.5t22 37.5q5 6 5 11q0 1 -0.5 3.5t-5.5 9.5q-37 50 -37 108q0 23 6 48q1 4 1 9
q0 10 -9 19q-17 15 -31.5 37t-14.5 46q0 19 10.5 27.5t22.5 8.5q5 0 10 -1q15 -3 30 -11q7 -4 14 -9l9 -5q6 -4 13 -9t10.5 -6t4.5 -1q5 0 11 4q38 23 80 23q24 0 45 -7q5 -2 9 -2q3 0 7 2t9 10q13 20 35.5 37t47.5 17q14 0 24 -10q10 -9 10.5 -15.5t0.5 -8.5q0 -9 -2 -18
q-5 -20 -14.5 -36.5t-21.5 -31.5q-6 -8 -6.5 -12t-0.5 -5q0 -7 4 -15q16 -32 17.5 -52t1.5 -26q0 -28 -10 -57q-2 -6 -2 -11q0 -12 10 -20q6 -6 11 -13l7 -8q5 -7 11 -13q10 -13 15 -31q2 -7 2 -14q0 -14 -10 -26.5t-36 -12.5h-3zM227 353q13 4 17 17q1 3 1 5q0 4 -2.5 8
t-7.5 8q-2 3 -5 3t-6 -3q-11 -11 -11 -24q0 -3 1 -6q2 -8 13 -8z" />
    <glyph glyph-name="logicalnot" unicode="&#xac;" horiz-adv-x="438" 
d="M182 302q-16 -1 -32 -1q-8 0 -23.5 0.5t-39.5 4.5q-30 6 -47 34q-9 15 -9 30q0 8 5.5 22.5t33.5 20.5q23 5 46.5 8.5t47.5 5.5q34 4 59.5 5.5t42.5 1.5q18 0 35 -1q13 0 30.5 -2t33.5 -7t28 -14t15 -25q10 -46 10 -91q0 -12 -1 -23q0 -37 -20 -69q-9 -13 -21 -23t-29 -10
t-28 13.5t-13 29.5q-1 11 -3 20l-2 14q-1 10 -3 20q-2 19 -10 27t-26 10h-32l-14 -1h-34z" />
    <glyph glyph-name="brokenbar" unicode="&#xa6;" horiz-adv-x="191" 
d="M21 578v13q0 16 2 37.5t9 47.5q5 17 12.5 32.5t21.5 27.5q19 19 38 19t30 -13t17.5 -31t9 -37.5t3.5 -33.5q2 -21 2 -42q0 -18 -2.5 -46.5t-11.5 -67.5q-8 -31 -26 -53q-11 -13 -21.5 -18.5t-19.5 -5.5q-7 0 -14 2q-17 4 -26 15.5t-13 28.5q-6 29 -8.5 59.5t-2.5 65.5z
M33 142v12q0 20 3 45.5t12 54.5q3 9 8 21.5t12 23t16.5 18t21.5 7.5q11 0 19.5 -7t15 -16.5t10.5 -21t6 -20.5q10 -46 10 -92q0 -57 -15 -115q-3 -13 -8 -25t-13 -23q-9 -12 -18.5 -16.5t-16.5 -4.5q-6 0 -12 2q-15 5 -27 14.5t-15 27.5q-4 28 -6.5 52.5t-2.5 47.5v15z" />
    <glyph glyph-name="ordfeminine" unicode="&#xaa;" horiz-adv-x="295" 
d="M168 490q-9 -3 -16.5 -6.5t-15.5 -5.5q-17 -5 -28 -5q-26 0 -47 15.5t-30 43.5q-7 23 -7 45q0 5 1 20.5t11 41.5q9 23 25 42.5t36.5 33.5t44.5 21.5t48 7.5q20 -1 33 -8t22 -19t14 -27.5t7 -32.5q6 -33 6 -66q0 -49 -13 -97q-3 -14 -9.5 -26.5t-24.5 -14.5q-5 -1 -9 -1
q-26 0 -43 31q-1 2 -2 3.5t-3 3.5zM161 623v5q0 12 -9 15q-3 1 -5 1q-3 0 -6 -2t-6 -7q-10 -10 -13 -26q-1 -4 -1 -8q0 -2 0.5 -6.5t8.5 -6.5q2 -1 5 -1q4 0 11 2.5t9 9.5q4 11 6 24z" />
    <glyph glyph-name="onesuperior" unicode="&#xb9;" horiz-adv-x="202" 
d="M181 644v-19q0 -28 -2.5 -60.5t-10.5 -69.5q-3 -17 -12.5 -33t-29.5 -16q-11 0 -18.5 5t-12.5 13t-8 17.5t-5 18.5q-5 27 -5 55q0 2 0.5 18.5t2.5 46.5v4q0 5 -2 7.5t-11 2.5h-6q-34 0 -34 26q0 10 4 22q5 12 14.5 27.5t22.5 29.5t27.5 24t28.5 10q32 0 44.5 -23.5
t12.5 -50.5q1 -9 1 -18q0 -5 -0.5 -14t-0.5 -23z" />
    <glyph glyph-name="twosuperior" unicode="&#xb2;" horiz-adv-x="277" 
d="M149 654q-13 -2 -19 -8t-11 -13q-8 -8 -14.5 -17t-15.5 -17q-11 -10 -27 -10q-11 0 -20 5q-13 7 -16 15t-3 16q0 4 1 9q2 21 12 40.5t25.5 35.5t35 26t40.5 12h7q22 0 41 -11t29 -36q9 -21 9 -41q0 -1 -0.5 -12t-6.5 -33q-6 -21 -16 -39t-23 -35q5 -7 10 -7q1 0 2 0.5
t3 0.5q4 0 7 -1q55 -10 55 -60q0 -6 -1 -11q-3 -16 -19 -16q-18 0 -35 3q-24 3 -48 3q-20 0 -39.5 -2t-39.5 -5q-2 0 -2.5 -0.5t-2.5 -0.5l-16.5 -1.5t-6.5 -0.5q-10 0 -16 10q-7 11 -7 23q0 11 5 22q4 11 11 18.5t15 15.5q12 11 24.5 22.5t24.5 23.5q16 15 28 33.5t20 42.5
z" />
    <glyph glyph-name="threesuperior" unicode="&#xb3;" horiz-adv-x="243" 
d="M117 576h-9q-7 0 -12.5 2t-7.5 10q-1 3 -1 5q0 7 8 14q5 5 10 8.5t10 7.5l25 25q6 7 6 14q0 5 -3 10q-5 8 -11.5 8t-13.5 -2q-13 -5 -23 -12.5t-19 -16.5q-11 -11 -19 -11q-5 0 -17 7q-11 8 -13 13.5t-2 9.5q0 6 2 13q5 15 17.5 29t29.5 24t32.5 14t26.5 4q6 0 12 -1
q14 -3 25.5 -11.5t19.5 -21t11.5 -25t3.5 -22.5q0 -5 -1 -10q-1 -12 -6.5 -21.5t-5.5 -18.5v-5q2 -11 9.5 -19.5t10.5 -19.5q4 -11 4 -23q0 -13 -7 -33.5t-29 -36.5q-38 -29 -81 -29q-25 0 -53 11q-21 8 -21 24q0 7 4 15q8 21 17 25.5t18 4.5t19 -2q11 -4 22 -4q8 0 15 2
q25 5 25 21v4q-1 20 -26 20h-2z" />
    <glyph glyph-name="grave" unicode="`" horiz-adv-x="221" 
d="M20 583q0 25 14 36t36 5q16 -4 38.5 -22.5t42.5 -42t34.5 -49t14.5 -44.5q1 -23 -15 -36t-39 -8q-16 3 -37.5 21.5t-40.5 43.5t-33 51t-15 45z" />
    <glyph glyph-name="acute" unicode="&#xb4;" horiz-adv-x="222" 
d="M20 468q0 17 14.5 42.5t35.5 49.5t45 43t43 23q17 2 28.5 -6.5t13.5 -25.5q2 -11 0 -20.5t-6 -18.5q-17 -38 -42 -68t-57 -56q-14 -11 -29 -11q-21 0 -33.5 13.5t-12.5 34.5z" />
    <glyph glyph-name="caron" unicode="&#x2c7;" horiz-adv-x="259" 
d="M130 580q7 4 10 10.5t8 12.5q8 8 15 16.5t17 13.5q12 6 22 6q12 0 21 -7.5t13 -22.5q5 -23 -1 -50q-8 -34 -22 -64.5t-34 -58.5q-9 -13 -22 -19.5t-27 -6.5q-29 0 -47 25q-23 31 -38 64.5t-22 71.5q-2 11 -1.5 21t4.5 21q9 26 32 26q20 0 34.5 -14.5t24.5 -29.5
q3 -4 5.5 -8t7.5 -7z" />
    <glyph glyph-name="circumflex" unicode="&#x2c6;" horiz-adv-x="259" 
d="M132 472q-8 -5 -11 -11.5t-8 -12.5q-7 -8 -13.5 -15t-14.5 -13q-14 -8 -26 -8q-27 0 -35 33q-2 14 -1 26.5t4 25.5q8 32 22 61t32 56q8 14 22 20t28 6t27 -6t21 -18q21 -31 36.5 -63.5t22.5 -69.5q3 -22 -1 -40q-8 -31 -35 -31q-18 0 -32 13t-24 27q-3 5 -6.5 10t-7.5 10
z" />
    <glyph glyph-name="degree" unicode="&#xb0;" horiz-adv-x="269" 
d="M249 551q-1 -23 -9 -44.5t-22.5 -38t-34.5 -26.5t-44 -10q-23 0 -44 11t-35 31q-15 21 -18 39t-3 29q0 15 5 34.5t20.5 41t38.5 33.5t45 12q23 0 42 -9.5t32 -25t20 -36t7 -41.5zM159 545q-1 8 -12 10q-11 0 -11 -12q0 -10 8 -10h3q12 0 12 12z" />
    <glyph glyph-name="dotaccent" unicode="&#x2d9;" horiz-adv-x="155" 
d="M75 584q26 -1 42 -14t16 -32v-2q0 -11 -5.5 -21.5t-15 -18t-21 -12t-23.5 -4.5q-21 2 -34 15t-13 31v3q1 21 17 38t35 17h2z" />
    <glyph glyph-name="tilde" unicode="&#x2dc;" horiz-adv-x="370" 
d="M241 454q-31 2 -59 15l-24 12q-7 3 -13 5t-13 2q-12 0 -26 -9q-8 -5 -16.5 -8.5t-18.5 -5.5q-13 -2 -24 1.5t-19 15.5q-8 11 -7.5 25.5t8.5 25.5q14 20 36 31.5t46 11.5q20 0 35 -7q14 -5 26.5 -11.5t25.5 -12.5q8 -4 14.5 -6.5t13.5 -2.5q17 0 33 17q13 13 29 17
q5 2 10 3t10 1q13 0 22 -9q19 -18 11 -44q-4 -16 -14.5 -28t-24.5 -20.5t-30 -13t-31 -5.5z" />
    <glyph glyph-name="macron" unicode="&#xaf;" horiz-adv-x="299" 
d="M156 478q-20 -1 -39.5 0t-39.5 5q-11 2 -20 5t-17 10q-14 11 -15 26t12 27q16 14 33 17q46 8 88 8q23 0 50.5 -3.5t47.5 -15.5q10 -6 16.5 -14.5t4.5 -21.5q-1 -12 -9 -20t-20 -13t-24.5 -7t-22.5 -2q-11 -1 -22.5 -1h-22.5z" />
    <glyph glyph-name="breve" unicode="&#x2d8;" horiz-adv-x="295" 
d="M274 573v-6q0 -43 -25.5 -67t-63.5 -34q-19 -6 -39 -6q-38 0 -70 18.5t-46 56.5q-5 15 -5 28q0 2 0.5 10t5.5 23q6 17 19.5 26.5t28.5 9.5h3q17 0 29.5 -10t18.5 -27q2 -6 2 -11.5t2 -10.5q3 -13 12 -13q10 0 17 11t9 19t4.5 15t6.5 15q12 27 39 27h4q16 -1 25.5 -7.5
t14.5 -17t6.5 -23.5t1.5 -26z" />
    <glyph glyph-name="cedilla" unicode="&#xb8;" horiz-adv-x="282" 
d="M112 -242q-32 -1 -62 19q-15 10 -22 25.5t-3 32.5q4 16 18 30t30 16q11 2 18 -5q13 -11 26 -14q25 -5 35 14q8 20 -12 35q-2 2 -6 4q-19 6 -19 13.5t7 21.5q12 23 23.5 47t23.5 47q7 14 17.5 21t22.5 7q18 0 34 -13q19 -15 8 -38l-12 -26t-13 -26q-13 -24 6 -41
q23 -22 23 -54.5t-20 -59.5q-39 -56 -123 -56z" />
    <glyph glyph-name="ogonek" unicode="&#x2db;" horiz-adv-x="294" 
d="M138 -238q-58 1 -84 31.5t-26 65.5q0 12 2 25q9 44 30 83t48 74q8 11 20 11q5 0 11 -2t12.5 -4t12.5 -5q14 -6 15.5 -10.5t1.5 -7.5q0 -7 -3 -16q-4 -9 -8.5 -18t-9.5 -17q-8 -17 -16.5 -33t-14.5 -33q-2 -8 -2.5 -14t-0.5 -9q0 -6 1 -11q3 -11 12 -11q10 0 16.5 13.5
t7.5 21.5q2 21 13.5 33t28.5 12q18 0 33 -11.5t21 -28.5t6 -32q0 -7 -2.5 -21.5t-21.5 -33.5q-23 -23 -49 -37t-54 -15z" />
    <glyph glyph-name="dieresis" unicode="&#xa8;" horiz-adv-x="350" 
d="M211 538q2 30 20 48q4 3 8 7t9 3h32t30 -9q22 -15 17 -44q-3 -12 -10.5 -22t-18 -17.5t-22.5 -11t-24 -1.5q-20 2 -30.5 15t-10.5 32zM67 482q-21 1 -34.5 14.5t-12.5 33.5q1 11 6 22.5t12.5 20.5t16.5 15t18 6q23 0 41.5 -17t17.5 -39q-1 -23 -20 -39.5t-45 -16.5z" />
    <glyph glyph-name="hungarumlaut" unicode="&#x2dd;" horiz-adv-x="326" 
d="M307 613q0 -18 -11 -50.5t-28.5 -63.5t-39.5 -54t-44 -23q-10 0 -17 7q-8 8 -11.5 15.5t-3.5 13.5t2 12q6 20 16 45t23 49.5t28.5 46.5t33.5 34q8 6 14.5 7.5t9.5 1.5q6 0 13 -3q15 -7 15 -34v-4zM181 613q-2 -5 -3 -12t-3 -14q-5 -17 -14 -40t-21 -45.5t-26 -42
t-31 -29.5q-13 -7 -25 -7t-19 7q-14 12 -14 28q0 7 3 15q5 17 15 42.5t23.5 51t29.5 47t32 31.5q5 4 11.5 6.5t12.5 2.5q17 0 23 -13.5t6 -27.5z" />
    <glyph glyph-name="ordmasculine" unicode="&#xba;" horiz-adv-x="269" 
d="M249 551q-1 -23 -9 -44.5t-22.5 -38t-34.5 -26.5t-44 -10q-23 0 -44 11t-35 31q-15 21 -18 39t-3 29q0 15 5 34.5t20.5 41t38.5 33.5t45 12q23 0 42 -9.5t32 -25t20 -36t7 -41.5zM159 545q-1 8 -12 10q-11 0 -11 -12q0 -10 8 -10h3q12 0 12 12z" />
    <glyph glyph-name="ring" unicode="&#x2da;" horiz-adv-x="269" 
d="M238 551q-1 -23 -9 -44.5t-22.5 -38t-34.5 -26.5t-44 -10q-23 0 -44 11t-35 31q-15 21 -19 47t2 50.5t21.5 46t38.5 33.5t45 12q23 0 42 -9.5t32 -25t20 -36t7 -41.5zM148 545q-1 8 -12 10q-11 0 -11 -12t11 -10q12 0 12 12z" />
    <glyph glyph-name="dotlessi" unicode="&#x131;" horiz-adv-x="240" 
d="M206 125q1 -20 -0.5 -39t-3.5 -39q-2 -16 -7.5 -31t-15 -27t-23 -19t-32.5 -7q-21 0 -36 9t-25.5 23.5t-16.5 32t-9 35.5q-5 23 -5 47t-2 48q-1 18 -1.5 36t2.5 36q3 17 10.5 34.5t19 32.5t27.5 24.5t35 9.5q21 0 35 -12t23 -29.5t13.5 -37.5t6.5 -36q2 -23 4 -45.5
t1 -45.5z" />
    <glyph glyph-name="Agrave" unicode="&#xc0;" horiz-adv-x="572" 
d="M555 83v-7q0 -8 -1.5 -18.5t-6.5 -23.5q-18 -41 -56 -41q-9 0 -19 2q-45 11 -69.5 41t-38.5 72q-2 8 -6 12t-12 4h-3q-21 -1 -41 -1q-10 0 -30 0.5t-51 2.5h-2q-12 0 -16 -12q-14 -42 -37.5 -74.5t-69.5 -43.5q-12 -3 -22 -3q-40 0 -57 45q-6 17 -6.5 29t-0.5 18
q0 12 1 25q5 41 15.5 79.5t22.5 77.5q25 87 49.5 173t55.5 171q11 33 27.5 62.5t37.5 57.5q12 17 29 25.5t35 8.5t35 -9t30 -26q21 -29 37.5 -60t28.5 -66q32 -90 58 -180.5t52 -182.5q12 -38 21.5 -77.5t9.5 -80.5zM312 288q-6 24 -13 46t-17 47q-8 -26 -15.5 -47.5
t-12.5 -43.5q11 -2 22 -2q3 0 6.5 0.5t8.5 0.5q10 0 21 -1zM138 945q0 25 14 36t36 5q16 -4 38.5 -22.5t42.5 -42t34.5 -49t14.5 -44.5q1 -23 -15 -36t-39 -8q-16 3 -37.5 21.5t-40.5 43.5t-33 51t-15 45z" />
    <glyph glyph-name="Aacute" unicode="&#xc1;" horiz-adv-x="572" 
d="M555 83v-7q0 -8 -1.5 -18.5t-6.5 -23.5q-18 -41 -56 -41q-9 0 -19 2q-45 11 -69.5 41t-38.5 72q-2 8 -6 12t-12 4h-3q-21 -1 -41 -1q-10 0 -30 0.5t-51 2.5h-2q-12 0 -16 -12q-14 -42 -37.5 -74.5t-69.5 -43.5q-12 -3 -22 -3q-40 0 -57 45q-6 17 -6.5 29t-0.5 18
q0 12 1 25q5 41 15.5 79.5t22.5 77.5q25 87 49.5 173t55.5 171q11 33 27.5 62.5t37.5 57.5q12 17 29 25.5t35 8.5t35 -9t30 -26q21 -29 37.5 -60t28.5 -66q32 -90 58 -180.5t52 -182.5q12 -38 21.5 -77.5t9.5 -80.5zM312 288q-6 24 -13 46t-17 47q-8 -26 -15.5 -47.5
t-12.5 -43.5q11 -2 22 -2q3 0 6.5 0.5t8.5 0.5q10 0 21 -1zM241 828q0 17 14.5 42.5t35.5 49.5t45 43t43 23q17 2 28.5 -6.5t13.5 -25.5q2 -11 0 -20.5t-6 -18.5q-17 -38 -42 -68t-57 -56q-14 -11 -29 -11q-21 0 -33.5 13.5t-12.5 34.5z" />
    <glyph glyph-name="Acircumflex" unicode="&#xc2;" horiz-adv-x="572" 
d="M555 83v-7q0 -8 -1.5 -18.5t-6.5 -23.5q-18 -41 -56 -41q-9 0 -19 2q-45 11 -69.5 41t-38.5 72q-2 8 -6 12t-12 4h-3q-21 -1 -41 -1q-10 0 -30 0.5t-51 2.5h-2q-12 0 -16 -12q-14 -42 -37.5 -74.5t-69.5 -43.5q-12 -3 -22 -3q-40 0 -57 45q-6 17 -6.5 29t-0.5 18
q0 12 1 25q5 41 15.5 79.5t22.5 77.5q25 87 49.5 173t55.5 171q11 33 27.5 62.5t37.5 57.5q12 17 29 25.5t35 8.5t35 -9t30 -26q21 -29 37.5 -60t28.5 -66q32 -90 58 -180.5t52 -182.5q12 -38 21.5 -77.5t9.5 -80.5zM312 288q-6 24 -13 46t-17 47q-8 -26 -15.5 -47.5
t-12.5 -43.5q11 -2 22 -2q3 0 6.5 0.5t8.5 0.5q10 0 21 -1zM276 835q-8 -5 -11 -11.5t-8 -12.5q-7 -8 -13.5 -15t-14.5 -13q-14 -8 -26 -8q-27 0 -35 33q-2 14 -1 26.5t4 25.5q8 32 22 61t32 56q8 14 22 20t28 6t27 -6t21 -18q21 -31 36.5 -63.5t22.5 -69.5q3 -22 -1 -40
q-8 -31 -35 -31q-18 0 -32 13t-24 27q-3 5 -6.5 10t-7.5 10z" />
    <glyph glyph-name="Atilde" unicode="&#xc3;" horiz-adv-x="572" 
d="M555 83v-7q0 -8 -1.5 -18.5t-6.5 -23.5q-18 -41 -56 -41q-9 0 -19 2q-45 11 -69.5 41t-38.5 72q-2 8 -6 12t-12 4h-3q-21 -1 -41 -1q-10 0 -30 0.5t-51 2.5h-2q-12 0 -16 -12q-14 -42 -37.5 -74.5t-69.5 -43.5q-12 -3 -22 -3q-40 0 -57 45q-6 17 -6.5 29t-0.5 18
q0 12 1 25q5 41 15.5 79.5t22.5 77.5q25 87 49.5 173t55.5 171q11 33 27.5 62.5t37.5 57.5q12 17 29 25.5t35 8.5t35 -9t30 -26q21 -29 37.5 -60t28.5 -66q32 -90 58 -180.5t52 -182.5q12 -38 21.5 -77.5t9.5 -80.5zM312 288q-6 24 -13 46t-17 47q-8 -26 -15.5 -47.5
t-12.5 -43.5q11 -2 22 -2q3 0 6.5 0.5t8.5 0.5q10 0 21 -1zM354 771q-31 2 -59 15l-24 12q-7 3 -13 5t-13 2q-12 0 -26 -9q-8 -5 -16.5 -8.5t-18.5 -5.5q-13 -2 -24 1.5t-19 15.5q-8 11 -7.5 25.5t8.5 25.5q14 20 36 31.5t46 11.5q20 0 35 -7q14 -5 26.5 -11.5t25.5 -12.5
q8 -4 14.5 -6.5t13.5 -2.5q17 0 33 17q13 13 29 17q5 2 10 3t10 1q13 0 22 -9q19 -18 11 -44q-4 -16 -14.5 -28t-24.5 -20.5t-30 -13t-31 -5.5z" />
    <glyph glyph-name="Adieresis" unicode="&#xc4;" horiz-adv-x="572" 
d="M555 83v-7q0 -8 -1.5 -18.5t-6.5 -23.5q-18 -41 -56 -41q-9 0 -19 2q-45 11 -69.5 41t-38.5 72q-2 8 -6 12t-12 4h-3q-21 -1 -41 -1q-10 0 -30 0.5t-51 2.5h-2q-12 0 -16 -12q-14 -42 -37.5 -74.5t-69.5 -43.5q-12 -3 -22 -3q-40 0 -57 45q-6 17 -6.5 29t-0.5 18
q0 12 1 25q5 41 15.5 79.5t22.5 77.5q25 87 49.5 173t55.5 171q11 33 27.5 62.5t37.5 57.5q12 17 29 25.5t35 8.5t35 -9t30 -26q21 -29 37.5 -60t28.5 -66q32 -90 58 -180.5t52 -182.5q12 -38 21.5 -77.5t9.5 -80.5zM312 288q-6 24 -13 46t-17 47q-8 -26 -15.5 -47.5
t-12.5 -43.5q11 -2 22 -2q3 0 6.5 0.5t8.5 0.5q10 0 21 -1zM313 827q2 30 20 48q4 3 8 7t9 3h32t30 -9q22 -15 17 -44q-3 -12 -10.5 -22t-18 -17.5t-22.5 -11t-24 -1.5q-20 2 -30.5 15t-10.5 32zM169 771q-21 1 -34.5 14.5t-12.5 33.5q1 11 6 22.5t12.5 20.5t16.5 15t18 6
q23 0 41.5 -17t17.5 -39q-1 -23 -20 -39.5t-45 -16.5z" />
    <glyph glyph-name="Aring" unicode="&#xc5;" horiz-adv-x="572" 
d="M555 83v-7q0 -8 -1.5 -18.5t-6.5 -23.5q-18 -41 -56 -41q-9 0 -19 2q-45 11 -69.5 41t-38.5 72q-2 8 -6 12t-12 4h-3q-21 -1 -41 -1q-10 0 -30 0.5t-51 2.5h-2q-12 0 -16 -12q-14 -42 -37.5 -74.5t-69.5 -43.5q-12 -3 -22 -3q-40 0 -57 45q-6 17 -6.5 29t-0.5 18
q0 12 1 25q5 41 15.5 79.5t22.5 77.5q25 87 49.5 173t55.5 171q11 33 27.5 62.5t37.5 57.5q12 17 29 25.5t35 8.5t35 -9t30 -26q21 -29 37.5 -60t28.5 -66q32 -90 58 -180.5t52 -182.5q12 -38 21.5 -77.5t9.5 -80.5zM312 288q-6 24 -13 46t-17 47q-8 -26 -15.5 -47.5
t-12.5 -43.5q11 -2 22 -2q3 0 6.5 0.5t8.5 0.5q10 0 21 -1zM387 899q-1 -23 -9 -44.5t-22.5 -38t-34.5 -26.5t-44 -10q-23 0 -44 11t-35 31q-15 21 -19 47t2 50.5t21.5 46t38.5 33.5t45 12q23 0 42 -9.5t32 -25t20 -36t7 -41.5zM297 893q-1 8 -12 10q-11 0 -11 -12t11 -10
q12 0 12 12z" />
    <glyph glyph-name="AE" unicode="&#xc6;" horiz-adv-x="856" 
d="M555 83v-7q0 -8 -1.5 -18.5t-6.5 -23.5q-18 -41 -56 -41q-9 0 -19 2q-45 11 -69.5 41t-38.5 72q-2 8 -6 12t-12 4h-3q-21 -1 -41 -1q-10 0 -30 0.5t-51 2.5h-2q-12 0 -16 -12q-14 -42 -37.5 -74.5t-69.5 -43.5q-12 -3 -22 -3q-40 0 -57 45q-6 17 -6.5 29t-0.5 18
q0 12 1 25q5 41 15.5 79.5t22.5 77.5q25 87 49.5 173t55.5 171q11 33 27.5 62.5t37.5 57.5q12 17 29 25.5t35 8.5t35 -9t30 -26q21 -29 37.5 -60t28.5 -66q32 -90 58 -180.5t52 -182.5q12 -38 21.5 -77.5t9.5 -80.5zM312 288q-6 24 -13 46t-17 47q-8 -26 -15.5 -47.5
t-12.5 -43.5q11 -2 22 -2q3 0 6.5 0.5t8.5 0.5q10 0 21 -1zM554 -22q-20 1 -40 1q-16 0 -27.5 -0.5t-20.5 -0.5q-27 0 -54 4q-54 8 -87.5 39t-44.5 85q-5 19 -5 38t2 39q7 109 8.5 176t1.5 94q0 80 -5 162v18q0 14 1 31.5t6 39.5q8 29 24 42t45 15q56 3 109 3q27 0 54 -1
t54 -3q34 -3 68 -3q5 0 27.5 0.5t62.5 4.5q8 1 17 1q14 0 30 -3q34 -6 56.5 -30.5t22.5 -56.5q0 -15 -5.5 -29t-15.5 -26t-23.5 -21t-29.5 -13q-20 -5 -38.5 -5t-38.5 2q-15 2 -30.5 3t-31.5 1q-24 0 -50 -3q-13 -1 -25 -2l-17 1q-12 0 -25 -2q-17 -3 -27 -6.5t-15.5 -10.5
t-6 -13.5t-0.5 -10.5q0 -9 1 -20q2 -6 2 -10q3 -15 5.5 -24t8 -13t14.5 -4t25 2q8 2 15 2.5t14 2.5q10 2 19 2q12 0 27.5 -5t35.5 -15q16 -9 21 -29q8 -24 8 -49q0 -1 -0.5 -15t-7.5 -40q-11 -40 -52 -40h-2q-22 0 -39.5 3t-31.5 3q-9 0 -17 -1q-19 0 -35 -10
q-15 -12 -15 -28v-2l8 -80q3 -18 19 -18h3h14q7 0 14 2q99 12 199 12h8q28 0 53 -12q50 -23 52 -79v-4q0 -24 -13 -41.5t-36 -29.5q-24 -11 -53 -13q-48 -2 -86.5 -5t-68.5 -3q-18 0 -35 1z" />
    <glyph glyph-name="Ccedilla" unicode="&#xc7;" horiz-adv-x="653" 
d="M22 372q2 134 62 249q29 56 73 92.5t107 50.5q38 8 76.5 14.5t78.5 7.5q11 0 22.5 -0.5t22.5 -1.5q24 -3 52.5 -15.5t55 -31.5t48 -41.5t31.5 -44.5q11 -22 11 -44q0 -1 -0.5 -13t-8.5 -35q-8 -25 -32 -38.5t-50 -13.5h-7q-37 2 -66.5 17t-48.5 49q-3 5 -6.5 8t-8.5 5
q-25 9 -50 9q-31 0 -58.5 -15.5t-48 -40t-34 -54t-17.5 -57.5q-5 -35 -5.5 -53.5t-0.5 -22.5q0 -30 8 -62q8 -31 25 -54t38.5 -38.5t45 -23.5t43.5 -10q7 -1 14 -1q11 0 25 2.5t30 12.5q33 19 71 24q6 1 12 1q16 0 33 -6.5t31 -21.5t19.5 -31t5.5 -30q0 -8 -2 -16
q-6 -30 -33 -48q-55 -37 -115 -54.5t-125 -19.5h-9q-97 0 -175 66q-53 45 -83 101t-46 122q-11 51 -11 99v8zM231 -242q-32 -1 -62 19q-15 10 -22 25.5t-3 32.5q4 16 18 30t30 16q11 2 18 -5q13 -11 26 -14q25 -5 35 14q8 20 -12 35q-2 2 -6 4q-19 6 -19 13.5t7 21.5
q12 23 23.5 47t23.5 47q7 14 17.5 21t22.5 7q18 0 34 -13q19 -15 8 -38l-12 -26t-13 -26q-13 -24 6 -41q23 -22 23 -54.5t-20 -59.5q-39 -56 -123 -56z" />
    <glyph glyph-name="Eth" unicode="&#xd0;" horiz-adv-x="647" 
d="M50 419q4 38 4.5 76t0.5 76q0 24 4.5 51t14 52t26 45.5t40.5 32.5q20 10 39 10q38 0 57 -34q5 -8 7.5 -8.5l2.5 -0.5q4 0 11 4q26 14 58.5 24t61.5 10q55 0 101 -34q112 -83 142 -217q9 -39 9 -78q0 -14 -3 -47.5t-17 -86.5q-20 -78 -59.5 -142.5t-105.5 -112.5
q-23 -16 -47 -27.5t-53 -15.5q-11 -1 -21 -1q-12 0 -29.5 2.5t-40.5 9.5q-7 2 -12 2q-2 0 -6 -0.5t-9 -11.5q-10 -19 -23.5 -24t-24.5 -5q-9 0 -18 2q-56 15 -77 69q-10 26 -15.5 53t-6.5 55q-2 42 -5 84.5t-5 85.5q-4 0 -8 2q-24 8 -35 18.5t-11 20.5q0 3 1 6q2 11 17 21.5
t35 14.5v19zM280 311v-36q0 -8 3.5 -22t9.5 -27.5t14.5 -23.5t19.5 -10t21 8.5t18.5 20.5t14.5 24.5t8 20.5q21 68 21 136q0 18 -1 36q-1 13 -3 27t-7.5 26t-14.5 21t-24 12q-5 1 -10 1q-9 0 -19 -4.5t-20 -15.5q-20 -23 -25.5 -52.5t-6.5 -59.5q24 -5 41 -16q20 -12 20 -25
l-0.5 -7t-20.5 -19q-18 -10 -39 -15z" />
    <glyph glyph-name="Dcroat" unicode="&#x110;" horiz-adv-x="647" 
d="M50 419q4 38 4.5 76t0.5 76q0 24 4.5 51t14 52t26 45.5t40.5 32.5q20 10 39 10q38 0 57 -34q5 -8 9 -9t12 4q26 14 58.5 24t61.5 10q55 0 101 -34q112 -83 142 -217q12 -54 7.5 -106.5t-18.5 -105.5q-20 -78 -59.5 -142.5t-105.5 -112.5q-23 -16 -47 -27.5t-53 -15.5
q-23 -3 -45.5 0.5t-45.5 10.5q-9 3 -15.5 2t-11.5 -12q-10 -19 -27.5 -25.5t-38.5 -1.5q-56 15 -77 69q-10 26 -15.5 53t-6.5 55q-2 60 -7.5 120.5t-3.5 121.5q1 8 0.5 15t-0.5 15zM280 350q0 -19 -0.5 -37.5t0.5 -37.5q0 -8 3.5 -22t9.5 -27.5t14.5 -23.5t19.5 -10t21 8.5
t18.5 20.5t14.5 24.5t8 20.5q27 85 20 172q-1 13 -3 27t-7.5 26t-14.5 21t-24 12t-27 -2.5t-22 -16.5q-11 -14 -17.5 -30t-10.5 -33q-4 -23 -4 -46t1 -46zM133.838 401.883q35.2217 -0.599609 63.1064 -0.783203q27.8838 -0.183594 54.3008 -4.88379
q17.6113 -2.7998 34.4883 -7.6084t30.0859 -12.6582q20.5459 -11.7666 20.5459 -25.7666t-20.5459 -26.2334q-17.6113 -10.2002 -38.1582 -14.9336q-20.5459 -4.7334 -42.5596 -6.9834q-38.1572 -2.43262 -76.3145 -2.36621q-38.1582 0.0664062 -76.3154 5.63379
q-10.2725 1.88281 -19.0781 4.2832t-19.0791 5.2832q-49.8975 15.4336 -42.5596 43.5166q2.93457 13.0342 19.8125 24.7256q16.877 11.6914 40.3584 13.958q20.5459 2.2334 40.3584 2.95801q19.8125 0.725586 31.5537 1.8584z" />
    <glyph glyph-name="Egrave" unicode="&#xc8;" horiz-adv-x="632" 
d="M330 -22q-20 1 -40 1q-16 0 -27.5 -0.5t-20.5 -0.5q-27 0 -54 4q-54 8 -87.5 39t-44.5 85q-5 19 -5 38t2 39q7 109 8.5 176t1.5 94q0 80 -5 162v18q0 14 1 31.5t6 39.5q8 29 24 42t45 15q56 3 109 3q27 0 54 -1t54 -3q34 -3 68 -3q5 0 27.5 0.5t62.5 4.5q8 1 17 1
q14 0 30 -3q34 -6 56.5 -30.5t22.5 -56.5q0 -15 -5.5 -29t-15.5 -26t-23.5 -21t-29.5 -13q-20 -5 -38.5 -5t-38.5 2q-15 2 -30.5 3t-31.5 1q-24 0 -50 -3q-13 -1 -25 -2l-17 1q-12 0 -25 -2q-17 -3 -27 -6.5t-15.5 -10.5t-6 -13.5t-0.5 -10.5q0 -9 1 -20q2 -6 2 -10
q3 -15 5.5 -24t8 -13t14.5 -4t25 2q8 2 15 2.5t14 2.5q10 2 19 2q12 0 27.5 -5t35.5 -15q16 -9 21 -29q8 -24 8 -49q0 -1 -0.5 -15t-7.5 -40q-11 -40 -52 -40h-2q-22 0 -39.5 3t-31.5 3q-9 0 -17 -1q-19 0 -35 -10q-15 -12 -15 -28v-2l8 -80q3 -18 19 -18h3h14q7 0 14 2
q99 12 199 12h8q28 0 53 -12q50 -23 52 -79v-4q0 -24 -13 -41.5t-36 -29.5q-24 -11 -53 -13q-48 -2 -86.5 -5t-68.5 -3q-18 0 -35 1zM203 944q0 25 14 36t36 5q16 -4 38.5 -22.5t42.5 -42t34.5 -49t14.5 -44.5q1 -23 -15 -36t-39 -8q-16 3 -37.5 21.5t-40.5 43.5t-33 51
t-15 45z" />
    <glyph glyph-name="Eacute" unicode="&#xc9;" horiz-adv-x="632" 
d="M330 -22q-20 1 -40 1q-16 0 -27.5 -0.5t-20.5 -0.5q-27 0 -54 4q-54 8 -87.5 39t-44.5 85q-5 19 -5 38t2 39q7 109 8.5 176t1.5 94q0 80 -5 162v18q0 14 1 31.5t6 39.5q8 29 24 42t45 15q56 3 109 3q27 0 54 -1t54 -3q34 -3 68 -3q5 0 27.5 0.5t62.5 4.5q8 1 17 1
q14 0 30 -3q34 -6 56.5 -30.5t22.5 -56.5q0 -15 -5.5 -29t-15.5 -26t-23.5 -21t-29.5 -13q-20 -5 -38.5 -5t-38.5 2q-15 2 -30.5 3t-31.5 1q-24 0 -50 -3q-13 -1 -25 -2l-17 1q-12 0 -25 -2q-17 -3 -27 -6.5t-15.5 -10.5t-6 -13.5t-0.5 -10.5q0 -9 1 -20q2 -6 2 -10
q3 -15 5.5 -24t8 -13t14.5 -4t25 2q8 2 15 2.5t14 2.5q10 2 19 2q12 0 27.5 -5t35.5 -15q16 -9 21 -29q8 -24 8 -49q0 -1 -0.5 -15t-7.5 -40q-11 -40 -52 -40h-2q-22 0 -39.5 3t-31.5 3q-9 0 -17 -1q-19 0 -35 -10q-15 -12 -15 -28v-2l8 -80q3 -18 19 -18h3h14q7 0 14 2
q99 12 199 12h8q28 0 53 -12q50 -23 52 -79v-4q0 -24 -13 -41.5t-36 -29.5q-24 -11 -53 -13q-48 -2 -86.5 -5t-68.5 -3q-18 0 -35 1zM288 828q0 17 14.5 42.5t35.5 49.5t45 43t43 23q17 2 28.5 -6.5t13.5 -25.5q2 -11 0 -20.5t-6 -18.5q-17 -38 -42 -68t-57 -56
q-14 -11 -29 -11q-21 0 -33.5 13.5t-12.5 34.5z" />
    <glyph glyph-name="Ecircumflex" unicode="&#xca;" horiz-adv-x="632" 
d="M330 -22q-20 1 -40 1q-16 0 -27.5 -0.5t-20.5 -0.5q-27 0 -54 4q-54 8 -87.5 39t-44.5 85q-5 19 -5 38t2 39q7 109 8.5 176t1.5 94q0 80 -5 162v18q0 14 1 31.5t6 39.5q8 29 24 42t45 15q56 3 109 3q27 0 54 -1t54 -3q34 -3 68 -3q5 0 27.5 0.5t62.5 4.5q8 1 17 1
q14 0 30 -3q34 -6 56.5 -30.5t22.5 -56.5q0 -15 -5.5 -29t-15.5 -26t-23.5 -21t-29.5 -13q-20 -5 -38.5 -5t-38.5 2q-15 2 -30.5 3t-31.5 1q-24 0 -50 -3q-13 -1 -25 -2l-17 1q-12 0 -25 -2q-17 -3 -27 -6.5t-15.5 -10.5t-6 -13.5t-0.5 -10.5q0 -9 1 -20q2 -6 2 -10
q3 -15 5.5 -24t8 -13t14.5 -4t25 2q8 2 15 2.5t14 2.5q10 2 19 2q12 0 27.5 -5t35.5 -15q16 -9 21 -29q8 -24 8 -49q0 -1 -0.5 -15t-7.5 -40q-11 -40 -52 -40h-2q-22 0 -39.5 3t-31.5 3q-9 0 -17 -1q-19 0 -35 -10q-15 -12 -15 -28v-2l8 -80q3 -18 19 -18h3h14q7 0 14 2
q99 12 199 12h8q28 0 53 -12q50 -23 52 -79v-4q0 -24 -13 -41.5t-36 -29.5q-24 -11 -53 -13q-48 -2 -86.5 -5t-68.5 -3q-18 0 -35 1zM348 842q-8 -5 -11 -11.5t-8 -12.5q-7 -8 -13.5 -15t-14.5 -13q-14 -8 -26 -8q-27 0 -35 33q-2 14 -1 26.5t4 25.5q8 32 22 61t32 56
q8 14 22 20t28 6t27 -6t21 -18q21 -31 36.5 -63.5t22.5 -69.5q3 -22 -1 -40q-8 -31 -35 -31q-18 0 -32 13t-24 27q-3 5 -6.5 10t-7.5 10z" />
    <glyph glyph-name="Edieresis" unicode="&#xcb;" horiz-adv-x="632" 
d="M330 -22q-20 1 -40 1q-16 0 -27.5 -0.5t-20.5 -0.5q-27 0 -54 4q-54 8 -87.5 39t-44.5 85q-5 19 -5 38t2 39q7 109 8.5 176t1.5 94q0 80 -5 162v18q0 14 1 31.5t6 39.5q8 29 24 42t45 15q56 3 109 3q27 0 54 -1t54 -3q34 -3 68 -3q5 0 27.5 0.5t62.5 4.5q8 1 17 1
q14 0 30 -3q34 -6 56.5 -30.5t22.5 -56.5q0 -15 -5.5 -29t-15.5 -26t-23.5 -21t-29.5 -13q-20 -5 -38.5 -5t-38.5 2q-15 2 -30.5 3t-31.5 1q-24 0 -50 -3q-13 -1 -25 -2l-17 1q-12 0 -25 -2q-17 -3 -27 -6.5t-15.5 -10.5t-6 -13.5t-0.5 -10.5q0 -9 1 -20q2 -6 2 -10
q3 -15 5.5 -24t8 -13t14.5 -4t25 2q8 2 15 2.5t14 2.5q10 2 19 2q12 0 27.5 -5t35.5 -15q16 -9 21 -29q8 -24 8 -49q0 -1 -0.5 -15t-7.5 -40q-11 -40 -52 -40h-2q-22 0 -39.5 3t-31.5 3q-9 0 -17 -1q-19 0 -35 -10q-15 -12 -15 -28v-2l8 -80q3 -18 19 -18h3h14q7 0 14 2
q99 12 199 12h8q28 0 53 -12q50 -23 52 -79v-4q0 -24 -13 -41.5t-36 -29.5q-24 -11 -53 -13q-48 -2 -86.5 -5t-68.5 -3q-18 0 -35 1zM364 841q2 30 20 48q4 3 8 7t9 3h32t30 -9q22 -15 17 -44q-3 -12 -10.5 -22t-18 -17.5t-22.5 -11t-24 -1.5q-20 2 -30.5 15t-10.5 32z
M220 785q-21 1 -34.5 14.5t-12.5 33.5q1 11 6 22.5t12.5 20.5t16.5 15t18 6q23 0 41.5 -17t17.5 -39q-1 -23 -20 -39.5t-45 -16.5z" />
    <glyph glyph-name="Igrave" unicode="&#xcc;" horiz-adv-x="419" 
d="M158 770q7 1 16 1q5 0 14.5 -0.5t24.5 -2.5q18 -3 36 -3q3 0 14.5 0.5t32.5 2.5q7 1 14 1t16.5 -1t23.5 -5q15 -3 23 -14q9 -11 15 -26t7 -25t1 -14q0 -12 -4 -25.5t-15 -26.5q-11 -14 -24.5 -24.5t-30.5 -16.5q-14 -4 -14 -18v-2q1 -29 1 -58q0 -15 -0.5 -43.5
t-2.5 -73.5q-1 -17 -1 -34q0 -25 2.5 -58t4.5 -75q0 -8 1 -13t1 -9t-1 -8v-6q0 -12 4 -21t24 -15q18 -6 31.5 -22t20 -35t6.5 -38q0 -3 -0.5 -15t-10.5 -29q-12 -20 -30 -29.5t-38 -9.5h-4h-13q-62 0 -123 -9q-8 -1 -16 -1t-20 1.5t-29 5.5q-19 4 -35 16t-27 28.5t-15 32.5
t-4 28q0 7 1 14q4 26 28 45.5t50 19.5q15 0 15 14v3q-2 26 -2.5 52.5t-2.5 52.5q-7 68 -9 135t-5 134q-1 7 -1 13v12q0 15 -15 19q-7 2 -13.5 5.5t-13.5 7.5q-37 20 -37 61q0 5 1 10q4 37 23.5 60.5t57.5 28.5q11 1 21.5 1t25.5 1zM77 953q0 25 14 36t36 5q16 -4 38.5 -22.5
t42.5 -42t34.5 -49t14.5 -44.5q1 -23 -15 -36t-39 -8q-16 3 -37.5 21.5t-40.5 43.5t-33 51t-15 45z" />
    <glyph glyph-name="Iacute" unicode="&#xcd;" horiz-adv-x="419" 
d="M158 770q7 1 16 1q5 0 14.5 -0.5t24.5 -2.5q18 -3 36 -3q3 0 14.5 0.5t32.5 2.5q7 1 14 1t16.5 -1t23.5 -5q15 -3 23 -14q9 -11 15 -26t7 -25t1 -14q0 -12 -4 -25.5t-15 -26.5q-11 -14 -24.5 -24.5t-30.5 -16.5q-14 -4 -14 -18v-2q1 -29 1 -58q0 -15 -0.5 -43.5
t-2.5 -73.5q-1 -17 -1 -34q0 -25 2.5 -58t4.5 -75q0 -8 1 -13t1 -9t-1 -8v-6q0 -12 4 -21t24 -15q18 -6 31.5 -22t20 -35t6.5 -38q0 -3 -0.5 -15t-10.5 -29q-12 -20 -30 -29.5t-38 -9.5h-4h-13q-62 0 -123 -9q-8 -1 -16 -1t-20 1.5t-29 5.5q-19 4 -35 16t-27 28.5t-15 32.5
t-4 28q0 7 1 14q4 26 28 45.5t50 19.5q15 0 15 14v3q-2 26 -2.5 52.5t-2.5 52.5q-7 68 -9 135t-5 134q-1 7 -1 13v12q0 15 -15 19q-7 2 -13.5 5.5t-13.5 7.5q-37 20 -37 61q0 5 1 10q4 37 23.5 60.5t57.5 28.5q11 1 21.5 1t25.5 1zM162 835q0 17 14.5 42.5t35.5 49.5t45 43
t43 23q17 2 28.5 -6.5t13.5 -25.5q2 -11 0 -20.5t-6 -18.5q-17 -38 -42 -68t-57 -56q-14 -11 -29 -11q-21 0 -33.5 13.5t-12.5 34.5z" />
    <glyph glyph-name="Icircumflex" unicode="&#xce;" horiz-adv-x="419" 
d="M158 770q7 1 16 1q5 0 14.5 -0.5t24.5 -2.5q18 -3 36 -3q3 0 14.5 0.5t32.5 2.5q7 1 14 1t16.5 -1t23.5 -5q15 -3 23 -14q9 -11 15 -26t7 -25t1 -14q0 -12 -4 -25.5t-15 -26.5q-11 -14 -24.5 -24.5t-30.5 -16.5q-14 -4 -14 -18v-2q1 -29 1 -58q0 -15 -0.5 -43.5
t-2.5 -73.5q-1 -17 -1 -34q0 -25 2.5 -58t4.5 -75q0 -8 1 -13t1 -9t-1 -8v-6q0 -12 4 -21t24 -15q18 -6 31.5 -22t20 -35t6.5 -38q0 -3 -0.5 -15t-10.5 -29q-12 -20 -30 -29.5t-38 -9.5h-4h-13q-62 0 -123 -9q-8 -1 -16 -1t-20 1.5t-29 5.5q-19 4 -35 16t-27 28.5t-15 32.5
t-4 28q0 7 1 14q4 26 28 45.5t50 19.5q15 0 15 14v3q-2 26 -2.5 52.5t-2.5 52.5q-7 68 -9 135t-5 134q-1 7 -1 13v12q0 15 -15 19q-7 2 -13.5 5.5t-13.5 7.5q-37 20 -37 61q0 5 1 10q4 37 23.5 60.5t57.5 28.5q11 1 21.5 1t25.5 1zM207 848q-8 -5 -11 -11.5t-8 -12.5
q-7 -8 -13.5 -15t-14.5 -13q-14 -8 -26 -8q-27 0 -35 33q-2 14 -1 26.5t4 25.5q8 32 22 61t32 56q8 14 22 20t28 6t27 -6t21 -18q21 -31 36.5 -63.5t22.5 -69.5q3 -22 -1 -40q-8 -31 -35 -31q-18 0 -32 13t-24 27q-3 5 -6.5 10t-7.5 10z" />
    <glyph glyph-name="Idieresis" unicode="&#xcf;" horiz-adv-x="419" 
d="M158 770q7 1 16 1q5 0 14.5 -0.5t24.5 -2.5q18 -3 36 -3q3 0 14.5 0.5t32.5 2.5q7 1 14 1t16.5 -1t23.5 -5q15 -3 23 -14q9 -11 15 -26t7 -25t1 -14q0 -12 -4 -25.5t-15 -26.5q-11 -14 -24.5 -24.5t-30.5 -16.5q-14 -4 -14 -18v-2q1 -29 1 -58q0 -15 -0.5 -43.5
t-2.5 -73.5q-1 -17 -1 -34q0 -25 2.5 -58t4.5 -75q0 -8 1 -13t1 -9t-1 -8v-6q0 -12 4 -21t24 -15q18 -6 31.5 -22t20 -35t6.5 -38q0 -3 -0.5 -15t-10.5 -29q-12 -20 -30 -29.5t-38 -9.5h-4h-13q-62 0 -123 -9q-8 -1 -16 -1t-20 1.5t-29 5.5q-19 4 -35 16t-27 28.5t-15 32.5
t-4 28q0 7 1 14q4 26 28 45.5t50 19.5q15 0 15 14v3q-2 26 -2.5 52.5t-2.5 52.5q-7 68 -9 135t-5 134q-1 7 -1 13v12q0 15 -15 19q-7 2 -13.5 5.5t-13.5 7.5q-37 20 -37 61q0 5 1 10q4 37 23.5 60.5t57.5 28.5q11 1 21.5 1t25.5 1zM262 845q2 30 20 48q4 3 8 7t9 3h32t30 -9
q22 -15 17 -44q-3 -12 -10.5 -22t-18 -17.5t-22.5 -11t-24 -1.5q-20 2 -30.5 15t-10.5 32zM118 789q-21 1 -34.5 14.5t-12.5 33.5q1 11 6 22.5t12.5 20.5t16.5 15t18 6q23 0 41.5 -17t17.5 -39q-1 -23 -20 -39.5t-45 -16.5z" />
    <glyph glyph-name="Lslash" unicode="&#x141;" horiz-adv-x="589" 
d="M260 180q0 -16 2 -18.5t12 -2.5h8q26 0 59 -0.5t67 -3.5t66.5 -8t57.5 -14q14 -5 26 -11.5t23 -17.5q20 -17 20 -38.5t-18 -40.5q-11 -12 -25.5 -19.5t-30.5 -12.5q-27 -8 -60.5 -12.5t-69 -7t-69.5 -3.5t-63 -1q-23 0 -45.5 1t-45.5 3q-42 3 -76.5 21.5t-53.5 57.5
q-8 17 -8 34q0 5 2 18t19 27q8 7 8 17q-3 32 -3 63q0 5 0.5 25.5t0.5 56.5q0 38 -2 76l-4 76q-1 26 -1 51t1.5 62.5t12.5 88.5q4 18 13 39.5t23 40t32 31t40 12.5q21 0 35.5 -11.5t24 -28.5t14.5 -36.5t8 -36.5q7 -55 7.5 -91.5t0.5 -54.5q0 -37 -1 -74q0 -9 -0.5 -18.5
t-1.5 -18.5l-2 -110q-1 -55 -3 -110zM134.253 381.717q30.4121 10.0059 60.6963 18.9004q30.2842 8.89551 61.2109 11.6387q12.3018 1.28516 24.1768 0.819336q11.876 -0.46582 23.0684 -4.90527q17.6006 -7.42773 21.917 -20.7539q4.31738 -13.3271 -4.73535 -29.3926
q-7.85742 -13.501 -23.6602 -25.6377q-15.8027 -12.1377 -34.6377 -23.25q-18.8359 -11.1123 -37.5869 -19.5342q-18.751 -8.4209 -31.9072 -13.21q-15.0352 -5.47266 -35.2812 -11.2461q-20.2471 -5.77246 -41.5186 -8.72754q-21.2725 -2.9541 -41.5205 -2.875
t-36.8223 4.6875q-43.7451 14.9375 -20.1738 55.4424q11.7861 20.252 33.3135 31.2803q20.5869 10.6855 42.0293 19.0225q21.4414 8.33691 41.4316 17.7412z" />
    <glyph glyph-name="Ntilde" unicode="&#xd1;" horiz-adv-x="661" 
d="M265 288q2 -48 3 -91.5t3 -87.5q1 -16 0 -31.5t-7 -30.5q-19 -48 -67 -57q-23 -4 -50 -1q-23 3 -38 16t-24.5 31t-14 39.5t-6.5 40.5q-5 41 -5.5 80.5t-0.5 79.5q0 47 -0.5 93t-3.5 92q-2 37 -3 73t3 72q2 22 10 47.5t22 48t34 37.5t46 15q29 0 53 -21q29 -27 55 -57.5
t45 -66.5l34 -64l34 -64q3 -5 6 -11t10 -11q2 20 -1.5 36t-5.5 33q-4 37 -4 73.5t11 72.5q6 23 16 39q16 28 40 39.5t54 9.5q33 -3 51.5 -21t28 -44.5t12 -56t3.5 -55.5q1 -73 1 -145t-4 -145q-2 -38 -2 -77t4 -78q2 -16 0.5 -32t-4.5 -32q-8 -35 -34.5 -56t-60.5 -21
q-15 0 -30.5 4.5t-26.5 14.5q-20 20 -38.5 40t-34.5 43q-26 39 -48.5 79.5t-45.5 81.5q-3 6 -6.5 12.5t-12.5 13.5zM396 766q-31 2 -59 15l-24 12q-7 3 -13 5t-13 2q-12 0 -26 -9q-8 -5 -16.5 -8.5t-18.5 -5.5q-13 -2 -24 1.5t-19 15.5q-8 11 -7.5 25.5t8.5 25.5
q14 20 36 31.5t46 11.5q20 0 35 -7q14 -5 26.5 -11.5t25.5 -12.5q8 -4 14.5 -6.5t13.5 -2.5q17 0 33 17q13 13 29 17q5 2 10 3t10 1q13 0 22 -9q19 -18 11 -44q-4 -16 -14.5 -28t-24.5 -20.5t-30 -13t-31 -5.5z" />
    <glyph glyph-name="Ograve" unicode="&#xd2;" horiz-adv-x="675" 
d="M635 382q-1 -19 -1 -43q0 -11 0.5 -19.5t0.5 -12.5q0 -34 -4 -69q-3 -29 -9.5 -58.5t-18 -57t-29.5 -51t-45 -39.5q-43 -26 -87.5 -40.5t-92.5 -14.5h-6q-35 1 -70 2.5t-70 8.5q-26 5 -48 17t-37 35q-20 31 -36.5 60.5t-28.5 60t-18.5 63t-6.5 69.5v31q0 62 7 130.5
t40 141.5q25 57 59 99.5t94 66.5q6 2 10 2q29 3 57 5t57 2q49 0 90.5 -5t75.5 -21.5t59.5 -48.5t42.5 -85q8 -26 11 -53.5t3 -54.5q1 -27 1 -55v-66zM216 322q0 -24 3.5 -51.5t14.5 -50.5t30.5 -38t50.5 -15q25 0 45 10.5t35 27t25.5 38t14.5 43.5q8 34 9.5 68t4.5 68
q1 10 1 19q0 26 -9.5 53.5t-29.5 56.5q-14 21 -34.5 32t-44.5 15q-3 1 -7 1q-14 0 -28 -10q-22 -15 -37 -49.5t-24 -75t-13.5 -79.5t-6.5 -63zM198 943q0 25 14 36t36 5q16 -4 38.5 -22.5t42.5 -42t34.5 -49t14.5 -44.5q1 -23 -15 -36t-39 -8q-16 3 -37.5 21.5t-40.5 43.5
t-33 51t-15 45z" />
    <glyph glyph-name="Oacute" unicode="&#xd3;" horiz-adv-x="675" 
d="M635 382q-1 -19 -1 -43q0 -11 0.5 -19.5t0.5 -12.5q0 -34 -4 -69q-3 -29 -9.5 -58.5t-18 -57t-29.5 -51t-45 -39.5q-43 -26 -87.5 -40.5t-92.5 -14.5h-6q-35 1 -70 2.5t-70 8.5q-26 5 -48 17t-37 35q-20 31 -36.5 60.5t-28.5 60t-18.5 63t-6.5 69.5v31q0 62 7 130.5
t40 141.5q25 57 59 99.5t94 66.5q6 2 10 2q29 3 57 5t57 2q49 0 90.5 -5t75.5 -21.5t59.5 -48.5t42.5 -85q8 -26 11 -53.5t3 -54.5q1 -27 1 -55v-66zM216 322q0 -24 3.5 -51.5t14.5 -50.5t30.5 -38t50.5 -15q25 0 45 10.5t35 27t25.5 38t14.5 43.5q8 34 9.5 68t4.5 68
q1 10 1 19q0 26 -9.5 53.5t-29.5 56.5q-14 21 -34.5 32t-44.5 15q-3 1 -7 1q-14 0 -28 -10q-22 -15 -37 -49.5t-24 -75t-13.5 -79.5t-6.5 -63zM304 833q0 17 14.5 42.5t35.5 49.5t45 43t43 23q17 2 28.5 -6.5t13.5 -25.5q2 -11 0 -20.5t-6 -18.5q-17 -38 -42 -68t-57 -56
q-14 -11 -29 -11q-21 0 -33.5 13.5t-12.5 34.5z" />
    <glyph glyph-name="Ocircumflex" unicode="&#xd4;" horiz-adv-x="675" 
d="M635 382q-1 -19 -1 -43q0 -11 0.5 -19.5t0.5 -12.5q0 -34 -4 -69q-3 -29 -9.5 -58.5t-18 -57t-29.5 -51t-45 -39.5q-43 -26 -87.5 -40.5t-92.5 -14.5h-6q-35 1 -70 2.5t-70 8.5q-26 5 -48 17t-37 35q-20 31 -36.5 60.5t-28.5 60t-18.5 63t-6.5 69.5v31q0 62 7 130.5
t40 141.5q25 57 59 99.5t94 66.5q6 2 10 2q29 3 57 5t57 2q49 0 90.5 -5t75.5 -21.5t59.5 -48.5t42.5 -85q8 -26 11 -53.5t3 -54.5q1 -27 1 -55v-66zM216 322q0 -24 3.5 -51.5t14.5 -50.5t30.5 -38t50.5 -15q25 0 45 10.5t35 27t25.5 38t14.5 43.5q8 34 9.5 68t4.5 68
q1 10 1 19q0 26 -9.5 53.5t-29.5 56.5q-14 21 -34.5 32t-44.5 15q-3 1 -7 1q-14 0 -28 -10q-22 -15 -37 -49.5t-24 -75t-13.5 -79.5t-6.5 -63zM352 846q-8 -5 -11 -11.5t-8 -12.5q-7 -8 -13.5 -15t-14.5 -13q-14 -8 -26 -8q-27 0 -35 33q-2 14 -1 26.5t4 25.5q8 32 22 61
t32 56q8 14 22 20t28 6t27 -6t21 -18q21 -31 36.5 -63.5t22.5 -69.5q3 -22 -1 -40q-8 -31 -35 -31q-18 0 -32 13t-24 27q-3 5 -6.5 10t-7.5 10z" />
    <glyph glyph-name="Otilde" unicode="&#xd5;" horiz-adv-x="675" 
d="M635 382q-1 -19 -1 -43q0 -11 0.5 -19.5t0.5 -12.5q0 -34 -4 -69q-3 -29 -9.5 -58.5t-18 -57t-29.5 -51t-45 -39.5q-43 -26 -87.5 -40.5t-92.5 -14.5h-6q-35 1 -70 2.5t-70 8.5q-26 5 -48 17t-37 35q-20 31 -36.5 60.5t-28.5 60t-18.5 63t-6.5 69.5v31q0 62 7 130.5
t40 141.5q25 57 59 99.5t94 66.5q6 2 10 2q29 3 57 5t57 2q49 0 90.5 -5t75.5 -21.5t59.5 -48.5t42.5 -85q8 -26 11 -53.5t3 -54.5q1 -27 1 -55v-66zM216 322q0 -24 3.5 -51.5t14.5 -50.5t30.5 -38t50.5 -15q25 0 45 10.5t35 27t25.5 38t14.5 43.5q8 34 9.5 68t4.5 68
q1 10 1 19q0 26 -9.5 53.5t-29.5 56.5q-14 21 -34.5 32t-44.5 15q-3 1 -7 1q-14 0 -28 -10q-22 -15 -37 -49.5t-24 -75t-13.5 -79.5t-6.5 -63zM416 789q-31 2 -59 15l-24 12q-7 3 -13 5t-13 2q-12 0 -26 -9q-8 -5 -16.5 -8.5t-18.5 -5.5q-13 -2 -24 1.5t-19 15.5
q-8 11 -7.5 25.5t8.5 25.5q14 20 36 31.5t46 11.5q20 0 35 -7q14 -5 26.5 -11.5t25.5 -12.5q8 -4 14.5 -6.5t13.5 -2.5q17 0 33 17q13 13 29 17q5 2 10 3t10 1q13 0 22 -9q19 -18 11 -44q-4 -16 -14.5 -28t-24.5 -20.5t-30 -13t-31 -5.5z" />
    <glyph glyph-name="Odieresis" unicode="&#xd6;" horiz-adv-x="675" 
d="M635 382q-1 -19 -1 -43q0 -11 0.5 -19.5t0.5 -12.5q0 -34 -4 -69q-3 -29 -9.5 -58.5t-18 -57t-29.5 -51t-45 -39.5q-43 -26 -87.5 -40.5t-92.5 -14.5h-6q-35 1 -70 2.5t-70 8.5q-26 5 -48 17t-37 35q-20 31 -36.5 60.5t-28.5 60t-18.5 63t-6.5 69.5v31q0 62 7 130.5
t40 141.5q25 57 59 99.5t94 66.5q6 2 10 2q29 3 57 5t57 2q49 0 90.5 -5t75.5 -21.5t59.5 -48.5t42.5 -85q8 -26 11 -53.5t3 -54.5q1 -27 1 -55v-66zM216 322q0 -24 3.5 -51.5t14.5 -50.5t30.5 -38t50.5 -15q25 0 45 10.5t35 27t25.5 38t14.5 43.5q8 34 9.5 68t4.5 68
q1 10 1 19q0 26 -9.5 53.5t-29.5 56.5q-14 21 -34.5 32t-44.5 15q-3 1 -7 1q-14 0 -28 -10q-22 -15 -37 -49.5t-24 -75t-13.5 -79.5t-6.5 -63zM373 844q2 30 20 48q4 3 8 7t9 3h32t30 -9q22 -15 17 -44q-3 -12 -10.5 -22t-18 -17.5t-22.5 -11t-24 -1.5q-20 2 -30.5 15
t-10.5 32zM229 788q-21 1 -34.5 14.5t-12.5 33.5q1 11 6 22.5t12.5 20.5t16.5 15t18 6q23 0 41.5 -17t17.5 -39q-1 -23 -20 -39.5t-45 -16.5z" />
    <glyph glyph-name="Oslash" unicode="&#xd8;" horiz-adv-x="675" 
d="M635 382q-1 -19 -1 -43q0 -11 0.5 -19.5t0.5 -12.5q0 -34 -4 -69q-3 -29 -9.5 -58.5t-18 -57t-29.5 -51t-45 -39.5q-43 -26 -87.5 -40.5t-92.5 -14.5h-6q-35 1 -70 2.5t-70 8.5q-26 5 -48 17t-37 35q-20 31 -36.5 60.5t-28.5 60t-18.5 63t-6.5 69.5v31q0 62 7 130.5
t40 141.5q25 57 59 99.5t94 66.5q6 2 10 2q29 3 57 5t57 2q49 0 90.5 -5t75.5 -21.5t59.5 -48.5t42.5 -85q8 -26 11 -53.5t3 -54.5q1 -27 1 -55v-66zM216 322q0 -24 3.5 -51.5t14.5 -50.5t30.5 -38t50.5 -15q25 0 45 10.5t35 27t25.5 38t14.5 43.5q8 34 9.5 68t4.5 68
q1 10 1 19q0 26 -9.5 53.5t-29.5 56.5q-14 21 -34.5 32t-44.5 15q-3 1 -7 1q-14 0 -28 -10q-22 -15 -37 -49.5t-24 -75t-13.5 -79.5t-6.5 -63zM534 599q0 -18 -14.5 -54.5t-37.5 -82t-51 -95t-54.5 -94.5t-48.5 -80.5t-33 -52.5q-7 -12 -17.5 -26.5t-23.5 -27.5t-27 -22.5
t-29 -12.5q-20 -4 -35.5 6.5t-19.5 31.5q-3 14 -1 24q5 18 8.5 35.5t9.5 34.5q11 27 30.5 70.5t44.5 94t55 102.5t61.5 95.5t63.5 74t62 38.5q27 5 43 -9.5t14 -49.5z" />
    <glyph glyph-name="OE" unicode="&#x152;" horiz-adv-x="1014" 
d="M635 382q-1 -19 -1 -43q0 -11 0.5 -19.5t0.5 -12.5q0 -34 -4 -69q-3 -29 -9.5 -58.5t-18 -57t-29.5 -51t-45 -39.5q-43 -26 -87.5 -40.5t-92.5 -14.5h-6q-35 1 -70 2.5t-70 8.5q-26 5 -48 17t-37 35q-20 31 -36.5 60.5t-28.5 60t-18.5 63t-6.5 69.5v31q0 62 7 130.5
t40 141.5q25 57 59 99.5t94 66.5q6 2 10 2q29 3 57 5t57 2q49 0 90.5 -5t75.5 -21.5t59.5 -48.5t42.5 -85q8 -26 11 -53.5t3 -54.5q1 -27 1 -55v-66zM216 322q0 -24 3.5 -51.5t14.5 -50.5t30.5 -38t50.5 -15q25 0 45 10.5t35 27t25.5 38t14.5 43.5q8 34 9.5 68t4.5 68
q1 10 1 19q0 26 -9.5 53.5t-29.5 56.5q-14 21 -34.5 32t-44.5 15q-3 1 -7 1q-14 0 -28 -10q-22 -15 -37 -49.5t-24 -75t-13.5 -79.5t-6.5 -63zM712 -27q-20 1 -40 1q-16 0 -27.5 -0.5t-20.5 -0.5q-27 0 -54 4q-54 8 -87.5 39t-44.5 85q-5 19 -5 38t2 39q7 109 8.5 176
t1.5 94q0 80 -5 162v18q0 14 1 31.5t6 39.5q8 29 24 42t45 15q56 3 109 3q27 0 54 -1t54 -3q34 -3 68 -3q5 0 27.5 0.5t62.5 4.5q8 1 17 1q14 0 30 -3q34 -6 56.5 -30.5t22.5 -56.5q0 -15 -5.5 -29t-15.5 -26t-23.5 -21t-29.5 -13q-20 -5 -38.5 -5t-38.5 2q-15 2 -30.5 3
t-31.5 1q-24 0 -50 -3q-13 -1 -25 -2l-17 1q-12 0 -25 -2q-17 -3 -27 -6.5t-15.5 -10.5t-6 -13.5t-0.5 -10.5q0 -9 1 -20q2 -6 2 -10q3 -15 5.5 -24t8 -13t14.5 -4t25 2q8 2 15 2.5t14 2.5q10 2 19 2q12 0 27.5 -5t35.5 -15q16 -9 21 -29q8 -24 8 -49q0 -1 -0.5 -15
t-7.5 -40q-11 -40 -52 -40h-2q-22 0 -39.5 3t-31.5 3q-9 0 -17 -1q-19 0 -35 -10q-15 -12 -15 -28v-2l8 -80q3 -18 19 -18h3h14q7 0 14 2q99 12 199 12h8q28 0 53 -12q50 -23 52 -79v-4q0 -24 -13 -41.5t-36 -29.5q-24 -11 -53 -13q-48 -2 -86.5 -5t-68.5 -3q-18 0 -35 1z
" />
    <glyph glyph-name="Scaron" unicode="&#x160;" horiz-adv-x="686" 
d="M316 -42q-45 -2 -87.5 7.5t-82.5 32.5q-44 26 -70.5 62.5t-31.5 88.5q-3 23 5 47q9 28 33.5 43t56.5 13q41 -3 74 -33q13 -11 25.5 -22.5t26.5 -20.5q29 -18 60 -18q12 0 25 3t25 9t21 15.5t11 22.5q2 19 -7 31.5t-22 23.5q-13 10 -36.5 19t-49.5 16t-50.5 12t-41.5 7
q-47 6 -78.5 32.5t-54.5 62.5q-54 82 -28 180q16 58 51 100t88 68q42 21 85 31.5t91 7.5q36 -3 79 -19.5t82 -42.5t69 -60t40 -72q6 -22 1.5 -42t-15.5 -34.5t-28.5 -23t-38.5 -8.5q-20 0 -38.5 7.5t-35.5 18.5q-16 11 -32 21t-32 21q-20 12 -40 18.5t-43 6.5
q-34 -2 -58 -21q-17 -16 -17 -34.5t17 -34.5q10 -9 22 -14t25 -8q23 -5 46 -5.5t46 -4.5q47 -6 89.5 -21.5t80.5 -44.5t61 -74t26.5 -95t-15.5 -99.5t-66 -88.5q-57 -47 -124 -67t-139 -20zM342 981q7 4 10 10.5t8 12.5q8 8 15 16.5t17 13.5q12 6 22 6q12 0 21 -7.5
t13 -22.5q5 -23 -1 -50q-8 -34 -22 -64.5t-34 -58.5q-9 -13 -22 -19.5t-27 -6.5q-29 0 -47 25q-23 31 -38 64.5t-22 71.5q-2 11 -1.5 21t4.5 21q9 26 32 26q20 0 34.5 -14.5t24.5 -29.5q3 -4 5.5 -8t7.5 -7z" />
    <glyph glyph-name="Ugrave" unicode="&#xd9;" horiz-adv-x="664" 
d="M247 456q0 -39 -0.5 -65.5t-0.5 -39.5q0 -26 1 -52q0 -19 2.5 -47t11 -54.5t24.5 -45.5t43 -19q24 0 39.5 17t25 40.5t13.5 49t6 43.5q1 16 1 31t-1.5 37.5t-6.5 53.5q-3 20 -5 39.5t-3 39.5q-1 31 -2 60v18q-1 29 -2 60q0 23 4 47.5t14 45.5t28.5 34.5t46.5 13.5
q38 0 67.5 -21.5t43.5 -56.5q8 -17 10.5 -35t4.5 -36q4 -36 4 -73q0 -14 -1.5 -47t-4.5 -84q-1 -26 -1 -52q0 -25 1 -51q5 -55 5 -112q0 -35 -2 -70q-2 -27 -13.5 -49.5t-30.5 -40.5q-96 -96 -221 -96q-36 0 -74.5 7.5t-71.5 21.5q-48 19 -76.5 57t-43.5 85t-19.5 98
t-4.5 96q-1 49 -5 96.5t-9 95.5q-2 22 -2 44q0 72 25 143q12 33 37.5 57t62.5 24q24 0 39.5 -13t24.5 -32.5t12 -41.5t3 -41q1 -30 1 -60q0 -15 -0.5 -45t-0.5 -75h1zM190 929q0 25 14 36t36 5q16 -4 38.5 -22.5t42.5 -42t34.5 -49t14.5 -44.5q1 -23 -15 -36t-39 -8
q-16 3 -37.5 21.5t-40.5 43.5t-33 51t-15 45z" />
    <glyph glyph-name="Uacute" unicode="&#xda;" horiz-adv-x="664" 
d="M247 456q0 -39 -0.5 -65.5t-0.5 -39.5q0 -26 1 -52q0 -19 2.5 -47t11 -54.5t24.5 -45.5t43 -19q24 0 39.5 17t25 40.5t13.5 49t6 43.5q1 16 1 31t-1.5 37.5t-6.5 53.5q-3 20 -5 39.5t-3 39.5q-1 31 -2 60v18q-1 29 -2 60q0 23 4 47.5t14 45.5t28.5 34.5t46.5 13.5
q38 0 67.5 -21.5t43.5 -56.5q8 -17 10.5 -35t4.5 -36q4 -36 4 -73q0 -14 -1.5 -47t-4.5 -84q-1 -26 -1 -52q0 -25 1 -51q5 -55 5 -112q0 -35 -2 -70q-2 -27 -13.5 -49.5t-30.5 -40.5q-96 -96 -221 -96q-36 0 -74.5 7.5t-71.5 21.5q-48 19 -76.5 57t-43.5 85t-19.5 98
t-4.5 96q-1 49 -5 96.5t-9 95.5q-2 22 -2 44q0 72 25 143q12 33 37.5 57t62.5 24q24 0 39.5 -13t24.5 -32.5t12 -41.5t3 -41q1 -30 1 -60q0 -15 -0.5 -45t-0.5 -75h1zM282 822q0 17 14.5 42.5t35.5 49.5t45 43t43 23q17 2 28.5 -6.5t13.5 -25.5q2 -11 0 -20.5t-6 -18.5
q-17 -38 -42 -68t-57 -56q-14 -11 -29 -11q-21 0 -33.5 13.5t-12.5 34.5z" />
    <glyph glyph-name="Ucircumflex" unicode="&#xdb;" horiz-adv-x="664" 
d="M247 456q0 -39 -0.5 -65.5t-0.5 -39.5q0 -26 1 -52q0 -19 2.5 -47t11 -54.5t24.5 -45.5t43 -19q24 0 39.5 17t25 40.5t13.5 49t6 43.5q1 16 1 31t-1.5 37.5t-6.5 53.5q-3 20 -5 39.5t-3 39.5q-1 31 -2 60v18q-1 29 -2 60q0 23 4 47.5t14 45.5t28.5 34.5t46.5 13.5
q38 0 67.5 -21.5t43.5 -56.5q8 -17 10.5 -35t4.5 -36q4 -36 4 -73q0 -14 -1.5 -47t-4.5 -84q-1 -26 -1 -52q0 -25 1 -51q5 -55 5 -112q0 -35 -2 -70q-2 -27 -13.5 -49.5t-30.5 -40.5q-96 -96 -221 -96q-36 0 -74.5 7.5t-71.5 21.5q-48 19 -76.5 57t-43.5 85t-19.5 98
t-4.5 96q-1 49 -5 96.5t-9 95.5q-2 22 -2 44q0 72 25 143q12 33 37.5 57t62.5 24q24 0 39.5 -13t24.5 -32.5t12 -41.5t3 -41q1 -30 1 -60q0 -15 -0.5 -45t-0.5 -75h1zM325 831q-8 -5 -11 -11.5t-8 -12.5q-7 -8 -13.5 -15t-14.5 -13q-14 -8 -26 -8q-27 0 -35 33
q-2 14 -1 26.5t4 25.5q8 32 22 61t32 56q8 14 22 20t28 6t27 -6t21 -18q21 -31 36.5 -63.5t22.5 -69.5q3 -22 -1 -40q-8 -31 -35 -31q-18 0 -32 13t-24 27q-3 5 -6.5 10t-7.5 10z" />
    <glyph glyph-name="Udieresis" unicode="&#xdc;" horiz-adv-x="664" 
d="M247 456q0 -39 -0.5 -65.5t-0.5 -39.5q0 -26 1 -52q0 -19 2.5 -47t11 -54.5t24.5 -45.5t43 -19q24 0 39.5 17t25 40.5t13.5 49t6 43.5q1 16 1 31t-1.5 37.5t-6.5 53.5q-3 20 -5 39.5t-3 39.5q-1 31 -2 60v18q-1 29 -2 60q0 23 4 47.5t14 45.5t28.5 34.5t46.5 13.5
q38 0 67.5 -21.5t43.5 -56.5q8 -17 10.5 -35t4.5 -36q4 -36 4 -73q0 -14 -1.5 -47t-4.5 -84q-1 -26 -1 -52q0 -25 1 -51q5 -55 5 -112q0 -35 -2 -70q-2 -27 -13.5 -49.5t-30.5 -40.5q-96 -96 -221 -96q-36 0 -74.5 7.5t-71.5 21.5q-48 19 -76.5 57t-43.5 85t-19.5 98
t-4.5 96q-1 49 -5 96.5t-9 95.5q-2 22 -2 44q0 72 25 143q12 33 37.5 57t62.5 24q24 0 39.5 -13t24.5 -32.5t12 -41.5t3 -41q1 -30 1 -60q0 -15 -0.5 -45t-0.5 -75h1zM355 832q2 30 20 48q4 3 8 7t9 3h32t30 -9q22 -15 17 -44q-3 -12 -10.5 -22t-18 -17.5t-22.5 -11
t-24 -1.5q-20 2 -30.5 15t-10.5 32zM211 776q-21 1 -34.5 14.5t-12.5 33.5q1 11 6 22.5t12.5 20.5t16.5 15t18 6q23 0 41.5 -17t17.5 -39q-1 -23 -20 -39.5t-45 -16.5z" />
    <glyph glyph-name="Ydieresis" unicode="&#x178;" horiz-adv-x="446" 
d="M242 580q12 22 30 53t41 59t49.5 48t56.5 20q29 0 48.5 -20.5t18.5 -54.5q0 -14 -5.5 -33t-13.5 -38.5t-17 -37.5t-16 -30q-21 -35 -41.5 -71t-42.5 -71q-9 -17 -8 -35q4 -72 7 -142t-4 -142q-2 -19 -8.5 -39t-18 -36t-28 -26t-38.5 -10q-26 0 -44.5 13t-31 32.5t-19 43
t-8.5 45.5q-4 42 -3 83.5t3 83.5v43t1 42q1 11 -2.5 20.5t-9.5 19.5q-31 48 -57 96.5t-45 102.5q-8 25 -13.5 49.5t-3.5 50.5q2 27 17.5 43.5t39.5 18.5q14 2 26 -2.5t23 -12.5q16 -11 28 -25t23 -30q14 -21 26 -43.5t24 -45.5q3 -5 5.5 -11t10.5 -11zM283 823q2 30 20 48
q4 3 8 7t9 3h32t30 -9q22 -15 17 -44q-3 -12 -10.5 -22t-18 -17.5t-22.5 -11t-24 -1.5q-20 2 -30.5 15t-10.5 32zM139 767q-21 1 -34.5 14.5t-12.5 33.5q1 11 6 22.5t12.5 20.5t16.5 15t18 6q23 0 41.5 -17t17.5 -39q-1 -23 -20 -39.5t-45 -16.5z" />
    <glyph glyph-name="Yacute" unicode="&#xdd;" horiz-adv-x="446" 
d="M242 580q12 22 30 53t41 59t49.5 48t56.5 20q29 0 48.5 -20.5t18.5 -54.5q0 -14 -5.5 -33t-13.5 -38.5t-17 -37.5t-16 -30q-21 -35 -41.5 -71t-42.5 -71q-9 -17 -8 -35q4 -72 7 -142t-4 -142q-2 -19 -8.5 -39t-18 -36t-28 -26t-38.5 -10q-26 0 -44.5 13t-31 32.5t-19 43
t-8.5 45.5q-4 42 -3 83.5t3 83.5v43t1 42q1 11 -2.5 20.5t-9.5 19.5q-31 48 -57 96.5t-45 102.5q-8 25 -13.5 49.5t-3.5 50.5q2 27 17.5 43.5t39.5 18.5q14 2 26 -2.5t23 -12.5q16 -11 28 -25t23 -30q14 -21 26 -43.5t24 -45.5q3 -5 5.5 -11t10.5 -11zM195 795
q0 17 14.5 42.5t35.5 49.5t45 43t43 23q17 2 28.5 -6.5t13.5 -25.5q2 -11 0 -20.5t-6 -18.5q-17 -38 -42 -68t-57 -56q-14 -11 -29 -11q-21 0 -33.5 13.5t-12.5 34.5z" />
    <glyph glyph-name="Zcaron" unicode="&#x17d;" horiz-adv-x="579" 
d="M309 581q-21 -1 -41.5 -2t-41.5 -3q-30 -2 -60.5 -0.5t-60.5 7.5q-16 3 -30.5 8.5t-27.5 14.5q-26 18 -28.5 42.5t19.5 47.5q12 14 33.5 25t46 18.5t48.5 12t42 6.5q53 8 105 7t105 -3q20 -2 41 -3.5t41 -3.5q27 -2 41 -15.5t19 -39.5q3 -17 1 -32.5t-6 -31.5
q-9 -35 -23.5 -68t-32.5 -65q-11 -20 -22.5 -39.5t-22.5 -39.5l-5 -9l-18 -30t-17 -29q-24 -42 -47.5 -84t-46.5 -84q-2 -5 -5 -9t-1 -10q7 -3 13.5 -2t13.5 1q20 0 48 -0.5t57.5 -3.5t56 -9.5t43.5 -18.5q28 -20 28.5 -48t-26.5 -48q-21 -16 -57 -26t-76.5 -15t-79.5 -7
t-64 -3q-26 -2 -51 -1.5t-51 0.5h-20t-20 -2q-28 -4 -48.5 10.5t-28.5 41.5q-5 20 -3 39.5t7 39.5q8 35 23.5 67t32.5 63q28 51 58.5 99.5t59.5 97.5l69 114l6 10t4 13zM305 948q7 4 10 10.5t8 12.5q8 8 15 16.5t17 13.5q12 6 22 6q12 0 21 -7.5t13 -22.5q5 -23 -1 -50
q-8 -34 -22 -64.5t-34 -58.5q-9 -13 -22 -19.5t-27 -6.5q-29 0 -47 25q-23 31 -38 64.5t-22 71.5q-2 11 -1.5 21t4.5 21q9 26 32 26q20 0 34.5 -14.5t24.5 -29.5q3 -4 5.5 -8t7.5 -7z" />
    <glyph glyph-name="agrave" unicode="&#xe0;" horiz-adv-x="537" 
d="M326 425q8 8 13.5 15t11.5 13q24 21 47 21q24 0 47 -22q15 -14 24 -31.5t15 -37.5q5 -17 8 -35t5 -36q5 -57 6 -89t1 -40q0 -48 -10 -97q-3 -14 -6.5 -28t-8.5 -28q-7 -18 -17 -30q-21 -29 -36.5 -29.5l-15.5 -0.5q-29 0 -52 27q-5 7 -8 15t-11 10q-2 1 -4 1
q-6 0 -12 -4.5t-14 -7.5q-23 -8 -46 -13t-47 -5q-93 0 -147 75q-36 51 -40.5 88t-4.5 54q0 37 12.5 80t45 84t75.5 63q29 15 48.5 18.5t30.5 3.5q19 0 39 -6q29 -8 51 -28zM314 210v10q-1 15 -12.5 30t-24.5 19q-7 2 -14 2q-8 0 -19.5 -4.5t-22.5 -19.5q-6 -7 -9 -15
q-4 -13 -4 -25q0 -5 1.5 -16t14.5 -25q11 -12 20.5 -13.5t14.5 -1.5q10 0 21 3q19 6 26.5 18.5t7.5 37.5zM123 646q0 25 14 36t36 5q16 -4 38.5 -22.5t42.5 -42t34.5 -49t14.5 -44.5q1 -23 -15 -36t-39 -8q-16 3 -37.5 21.5t-40.5 43.5t-33 51t-15 45z" />
    <glyph glyph-name="aacute" unicode="&#xe1;" horiz-adv-x="537" 
d="M326 425q8 8 13.5 15t11.5 13q24 21 47 21q24 0 47 -22q15 -14 24 -31.5t15 -37.5q5 -17 8 -35t5 -36q5 -57 6 -89t1 -40q0 -48 -10 -97q-3 -14 -6.5 -28t-8.5 -28q-7 -18 -17 -30q-21 -29 -36.5 -29.5l-15.5 -0.5q-29 0 -52 27q-5 7 -8 15t-11 10q-2 1 -4 1
q-6 0 -12 -4.5t-14 -7.5q-23 -8 -46 -13t-47 -5q-93 0 -147 75q-36 51 -40.5 88t-4.5 54q0 37 12.5 80t45 84t75.5 63q29 15 48.5 18.5t30.5 3.5q19 0 39 -6q29 -8 51 -28zM314 210v10q-1 15 -12.5 30t-24.5 19q-7 2 -14 2q-8 0 -19.5 -4.5t-22.5 -19.5q-6 -7 -9 -15
q-4 -13 -4 -25q0 -5 1.5 -16t14.5 -25q11 -12 20.5 -13.5t14.5 -1.5q10 0 21 3q19 6 26.5 18.5t7.5 37.5zM230 527q0 17 14.5 42.5t35.5 49.5t45 43t43 23q17 2 28.5 -6.5t13.5 -25.5q2 -11 0 -20.5t-6 -18.5q-17 -38 -42 -68t-57 -56q-14 -11 -29 -11q-21 0 -33.5 13.5
t-12.5 34.5z" />
    <glyph glyph-name="acircumflex" unicode="&#xe2;" horiz-adv-x="537" 
d="M326 425q8 8 13.5 15t11.5 13q24 21 47 21q24 0 47 -22q15 -14 24 -31.5t15 -37.5q5 -17 8 -35t5 -36q5 -57 6 -89t1 -40q0 -48 -10 -97q-3 -14 -6.5 -28t-8.5 -28q-7 -18 -17 -30q-21 -29 -36.5 -29.5l-15.5 -0.5q-29 0 -52 27q-5 7 -8 15t-11 10q-2 1 -4 1
q-6 0 -12 -4.5t-14 -7.5q-23 -8 -46 -13t-47 -5q-93 0 -147 75q-36 51 -40.5 88t-4.5 54q0 37 12.5 80t45 84t75.5 63q29 15 48.5 18.5t30.5 3.5q19 0 39 -6q29 -8 51 -28zM314 210v10q-1 15 -12.5 30t-24.5 19q-7 2 -14 2q-8 0 -19.5 -4.5t-22.5 -19.5q-6 -7 -9 -15
q-4 -13 -4 -25q0 -5 1.5 -16t14.5 -25q11 -12 20.5 -13.5t14.5 -1.5q10 0 21 3q19 6 26.5 18.5t7.5 37.5zM271 544q-8 -5 -11 -11.5t-8 -12.5q-7 -8 -13.5 -15t-14.5 -13q-14 -8 -26 -8q-27 0 -35 33q-2 14 -1 26.5t4 25.5q8 32 22 61t32 56q8 14 22 20t28 6t27 -6t21 -18
q21 -31 36.5 -63.5t22.5 -69.5q3 -22 -1 -40q-8 -31 -35 -31q-18 0 -32 13t-24 27q-3 5 -6.5 10t-7.5 10z" />
    <glyph glyph-name="atilde" unicode="&#xe3;" horiz-adv-x="537" 
d="M326 425q8 8 13.5 15t11.5 13q24 21 47 21q24 0 47 -22q15 -14 24 -31.5t15 -37.5q5 -17 8 -35t5 -36q5 -57 6 -89t1 -40q0 -48 -10 -97q-3 -14 -6.5 -28t-8.5 -28q-7 -18 -17 -30q-21 -29 -36.5 -29.5l-15.5 -0.5q-29 0 -52 27q-5 7 -8 15t-11 10q-2 1 -4 1
q-6 0 -12 -4.5t-14 -7.5q-23 -8 -46 -13t-47 -5q-93 0 -147 75q-36 51 -40.5 88t-4.5 54q0 37 12.5 80t45 84t75.5 63q29 15 48.5 18.5t30.5 3.5q19 0 39 -6q29 -8 51 -28zM314 210v10q-1 15 -12.5 30t-24.5 19q-7 2 -14 2q-8 0 -19.5 -4.5t-22.5 -19.5q-6 -7 -9 -15
q-4 -13 -4 -25q0 -5 1.5 -16t14.5 -25q11 -12 20.5 -13.5t14.5 -1.5q10 0 21 3q19 6 26.5 18.5t7.5 37.5zM342 490q-31 2 -59 15l-24 12q-7 3 -13 5t-13 2q-12 0 -26 -9q-8 -5 -16.5 -8.5t-18.5 -5.5q-13 -2 -24 1.5t-19 15.5q-8 11 -7.5 25.5t8.5 25.5q14 20 36 31.5
t46 11.5q20 0 35 -7q14 -5 26.5 -11.5t25.5 -12.5q8 -4 14.5 -6.5t13.5 -2.5q17 0 33 17q13 13 29 17q5 2 10 3t10 1q13 0 22 -9q19 -18 11 -44q-4 -16 -14.5 -28t-24.5 -20.5t-30 -13t-31 -5.5z" />
    <glyph glyph-name="adieresis" unicode="&#xe4;" horiz-adv-x="537" 
d="M326 425q8 8 13.5 15t11.5 13q24 21 47 21q24 0 47 -22q15 -14 24 -31.5t15 -37.5q5 -17 8 -35t5 -36q5 -57 6 -89t1 -40q0 -48 -10 -97q-3 -14 -6.5 -28t-8.5 -28q-7 -18 -17 -30q-21 -29 -36.5 -29.5l-15.5 -0.5q-29 0 -52 27q-5 7 -8 15t-11 10q-2 1 -4 1
q-6 0 -12 -4.5t-14 -7.5q-23 -8 -46 -13t-47 -5q-93 0 -147 75q-36 51 -40.5 88t-4.5 54q0 37 12.5 80t45 84t75.5 63q29 15 48.5 18.5t30.5 3.5q19 0 39 -6q29 -8 51 -28zM314 210v10q-1 15 -12.5 30t-24.5 19q-7 2 -14 2q-8 0 -19.5 -4.5t-22.5 -19.5q-6 -7 -9 -15
q-4 -13 -4 -25q0 -5 1.5 -16t14.5 -25q11 -12 20.5 -13.5t14.5 -1.5q10 0 21 3q19 6 26.5 18.5t7.5 37.5zM306 538q2 30 20 48q4 3 8 7t9 3h32t30 -9q22 -15 17 -44q-3 -12 -10.5 -22t-18 -17.5t-22.5 -11t-24 -1.5q-20 2 -30.5 15t-10.5 32zM162 482q-21 1 -34.5 14.5
t-12.5 33.5q1 11 6 22.5t12.5 20.5t16.5 15t18 6q23 0 41.5 -17t17.5 -39q-1 -23 -20 -39.5t-45 -16.5z" />
    <glyph glyph-name="aring" unicode="&#xe5;" horiz-adv-x="537" 
d="M326 425q8 8 13.5 15t11.5 13q24 21 47 21q24 0 47 -22q15 -14 24 -31.5t15 -37.5q5 -17 8 -35t5 -36q5 -57 6 -89t1 -40q0 -48 -10 -97q-3 -14 -6.5 -28t-8.5 -28q-7 -18 -17 -30q-21 -29 -36.5 -29.5l-15.5 -0.5q-29 0 -52 27q-5 7 -8 15t-11 10q-2 1 -4 1
q-6 0 -12 -4.5t-14 -7.5q-23 -8 -46 -13t-47 -5q-93 0 -147 75q-36 51 -40.5 88t-4.5 54q0 37 12.5 80t45 84t75.5 63q29 15 48.5 18.5t30.5 3.5q19 0 39 -6q29 -8 51 -28zM314 210v10q-1 15 -12.5 30t-24.5 19q-7 2 -14 2q-8 0 -19.5 -4.5t-22.5 -19.5q-6 -7 -9 -15
q-4 -13 -4 -25q0 -5 1.5 -16t14.5 -25q11 -12 20.5 -13.5t14.5 -1.5q10 0 21 3q19 6 26.5 18.5t7.5 37.5zM369 604q-1 -23 -9 -44.5t-22.5 -38t-34.5 -26.5t-44 -10q-23 0 -44 11t-35 31q-15 21 -19 47t2 50.5t21.5 46t38.5 33.5t45 12q23 0 42 -9.5t32 -25t20 -36t7 -41.5z
M279 598q-1 8 -12 10q-11 0 -11 -12t11 -10q12 0 12 12z" />
    <glyph glyph-name="ae" unicode="&#xe6;" horiz-adv-x="776" 
d="M326 425q8 8 13.5 15t11.5 13q24 21 47 21q24 0 47 -22q15 -14 24 -31.5t15 -37.5q5 -17 8 -35t5 -36q5 -57 6 -89t1 -40q0 -48 -10 -97q-3 -14 -6.5 -28t-8.5 -28q-7 -18 -17 -30q-21 -29 -36.5 -29.5l-15.5 -0.5q-29 0 -52 27q-5 7 -8 15t-11 10q-2 1 -4 1
q-6 0 -12 -4.5t-14 -7.5q-23 -8 -46 -13t-47 -5q-93 0 -147 75q-36 51 -40.5 88t-4.5 54q0 37 12.5 80t45 84t75.5 63q29 15 48.5 18.5t30.5 3.5q19 0 39 -6q29 -8 51 -28zM314 210v10q-1 15 -12.5 30t-24.5 19q-7 2 -14 2q-8 0 -19.5 -4.5t-22.5 -19.5q-6 -7 -9 -15
q-4 -13 -4 -25q0 -5 1.5 -16t14.5 -25q11 -12 20.5 -13.5t14.5 -1.5q10 0 21 3q19 6 26.5 18.5t7.5 37.5zM598 165q8 -10 17.5 -12.5t18.5 -4.5q15 -2 30 -4.5t29 -6.5q23 -6 38.5 -21t20.5 -40q1 -7 1 -14q0 -38 -35 -64q-25 -19 -50 -24t-47 -5q-8 0 -16 1
q-17 1 -32.5 4.5t-31.5 8.5q-97 30 -136 123q-25 58 -25 114q0 8 2 43.5t47 95.5q41 54 85 71.5t82 17.5q24 0 50 -5q41 -9 68.5 -34t35.5 -68q2 -12 2 -22q0 -16 -6.5 -35t-21.5 -42q-17 -26 -42 -43t-55 -26l-14 -4q-7 -2 -15 -4zM644 304v3q0 12 -7 20.5t-21 10.5
q-4 1 -7 1q-7 0 -16 -3t-18 -9.5t-16 -15.5t-9 -19v-5q0 -10 6 -20.5t17 -13.5q2 -1 5 -1q7 0 16.5 4t21 12t19.5 17.5t9 18.5z" />
    <glyph glyph-name="ccedilla" unicode="&#xe7;" horiz-adv-x="458" 
d="M335 153q12 1 20 2t13 1q7 0 14 -1q23 -3 39 -15.5t23.5 -29t7.5 -33.5q0 -4 -1 -16t-15 -31q-13 -18 -33 -29.5t-42.5 -19t-46 -10.5t-44.5 -3q-79 0 -155 44q-39 22 -60 57.5t-28 78.5q-5 28 -5 54q0 54 24.5 112t93.5 110q58 43 126 43q24 0 50.5 -6.5t49 -20
t38.5 -33.5t20 -47q1 -5 1 -9q0 -20 -11.5 -37.5t-34.5 -25.5q-16 -6 -34 -6q-9 0 -17.5 1.5t-17.5 3.5q-7 2 -14 2t-17.5 -2.5t-22.5 -10t-20 -19.5t-11 -27q-1 -7 -1 -13q0 -21 15 -40t46 -24q10 -2 20 -2q2 0 9.5 0.5t20.5 1.5zM162 -242q-32 -1 -62 19q-15 10 -22 25.5
t-3 32.5q4 16 18 30t30 16q11 2 18 -5q13 -11 26 -14q25 -5 35 14q8 20 -12 35q-2 2 -6 4q-19 6 -19 13.5t7 21.5q12 23 23.5 47t23.5 47q7 14 17.5 21t22.5 7q18 0 34 -13q19 -15 8 -38l-12 -26t-13 -26q-13 -24 6 -41q23 -22 23 -54.5t-20 -59.5q-39 -56 -123 -56z" />
    <glyph glyph-name="dcroat" unicode="&#x111;" horiz-adv-x="530" 
d="M293 422q2 29 2.5 55t4.5 52q2 15 5 29.5t10 28.5q9 20 23.5 33t37.5 15q24 2 41.5 -8t29.5 -30q14 -23 19.5 -48.5t8.5 -51.5q6 -42 6.5 -83.5t0.5 -83.5q1 -60 0 -118.5t-2 -118.5q0 -42 -10 -79q-6 -29 -25 -49q-22 -25 -51 -23t-49 29q-7 10 -11 20.5t-9 20.5
q-6 2 -9.5 -1t-7.5 -5q-87 -44 -169 5q-33 20 -58 48.5t-39.5 62.5t-18.5 72t4 77q2 6 2.5 11.5t2.5 10.5q12 41 34.5 71t53 48t68 22.5t78.5 -5.5q5 -2 11.5 -3.5t15.5 -3.5zM309 203q3 15 -4.5 25t-19.5 19q-31 21 -59 -1q-27 -23 -10 -56q10 -23 35 -34q53 -21 58 36v11z
M393 463q-20 -1 -39.5 0t-39.5 5q-11 2 -20 5t-17 10q-14 11 -15 26t12 27q16 14 33 17q46 8 88 8q23 0 50.5 -3.5t47.5 -15.5q10 -6 16.5 -14.5t4.5 -21.5q-1 -12 -9 -20t-20 -13t-24.5 -7t-22.5 -2q-11 -1 -22.5 -1h-22.5z" />
    <glyph glyph-name="egrave" unicode="&#xe8;" horiz-adv-x="418" 
d="M240 165q8 -10 17.5 -12.5t18.5 -4.5q15 -2 30 -4.5t29 -6.5q23 -6 38.5 -21t20.5 -40q1 -7 1 -14q0 -38 -35 -64q-25 -19 -50 -24t-47 -5q-8 0 -16 1q-17 1 -32.5 4.5t-31.5 8.5q-97 30 -136 123q-25 58 -25 114q0 8 2 43.5t47 95.5q41 54 85 71.5t82 17.5q24 0 50 -5
q41 -9 68.5 -34t35.5 -68q2 -12 2 -22q0 -16 -6.5 -35t-21.5 -42q-17 -26 -42 -43t-55 -26l-14 -4q-7 -2 -15 -4zM286 304v3q0 12 -7 20.5t-21 10.5q-4 1 -7 1q-7 0 -16 -3t-18 -9.5t-16 -15.5t-9 -19v-5q0 -10 6 -20.5t17 -13.5q2 -1 5 -1q7 0 16.5 4t21 12t19.5 17.5
t9 18.5zM75 621q0 25 14 36t36 5q16 -4 38.5 -22.5t42.5 -42t34.5 -49t14.5 -44.5q1 -23 -15 -36t-39 -8q-16 3 -37.5 21.5t-40.5 43.5t-33 51t-15 45z" />
    <glyph glyph-name="eacute" unicode="&#xe9;" horiz-adv-x="418" 
d="M240 165q8 -10 17.5 -12.5t18.5 -4.5q15 -2 30 -4.5t29 -6.5q23 -6 38.5 -21t20.5 -40q1 -7 1 -14q0 -38 -35 -64q-25 -19 -50 -24t-47 -5q-8 0 -16 1q-17 1 -32.5 4.5t-31.5 8.5q-97 30 -136 123q-25 58 -25 114q0 8 2 43.5t47 95.5q41 54 85 71.5t82 17.5q24 0 50 -5
q41 -9 68.5 -34t35.5 -68q2 -12 2 -22q0 -16 -6.5 -35t-21.5 -42q-17 -26 -42 -43t-55 -26l-14 -4q-7 -2 -15 -4zM286 304v3q0 12 -7 20.5t-21 10.5q-4 1 -7 1q-7 0 -16 -3t-18 -9.5t-16 -15.5t-9 -19v-5q0 -10 6 -20.5t17 -13.5q2 -1 5 -1q7 0 16.5 4t21 12t19.5 17.5
t9 18.5zM165 507q0 17 14.5 42.5t35.5 49.5t45 43t43 23q17 2 28.5 -6.5t13.5 -25.5q2 -11 0 -20.5t-6 -18.5q-17 -38 -42 -68t-57 -56q-14 -11 -29 -11q-21 0 -33.5 13.5t-12.5 34.5z" />
    <glyph glyph-name="ecircumflex" unicode="&#xea;" horiz-adv-x="418" 
d="M240 165q8 -10 17.5 -12.5t18.5 -4.5q15 -2 30 -4.5t29 -6.5q23 -6 38.5 -21t20.5 -40q1 -7 1 -14q0 -38 -35 -64q-25 -19 -50 -24t-47 -5q-8 0 -16 1q-17 1 -32.5 4.5t-31.5 8.5q-97 30 -136 123q-25 58 -25 114q0 8 2 43.5t47 95.5q41 54 85 71.5t82 17.5q24 0 50 -5
q41 -9 68.5 -34t35.5 -68q2 -12 2 -22q0 -16 -6.5 -35t-21.5 -42q-17 -26 -42 -43t-55 -26l-14 -4q-7 -2 -15 -4zM286 304v3q0 12 -7 20.5t-21 10.5q-4 1 -7 1q-7 0 -16 -3t-18 -9.5t-16 -15.5t-9 -19v-5q0 -10 6 -20.5t17 -13.5q2 -1 5 -1q7 0 16.5 4t21 12t19.5 17.5
t9 18.5zM236 519q-8 -5 -11 -11.5t-8 -12.5q-7 -8 -13.5 -15t-14.5 -13q-14 -8 -26 -8q-27 0 -35 33q-2 14 -1 26.5t4 25.5q8 32 22 61t32 56q8 14 22 20t28 6t27 -6t21 -18q21 -31 36.5 -63.5t22.5 -69.5q3 -22 -1 -40q-8 -31 -35 -31q-18 0 -32 13t-24 27q-3 5 -6.5 10
t-7.5 10z" />
    <glyph glyph-name="edieresis" unicode="&#xeb;" horiz-adv-x="418" 
d="M240 165q8 -10 17.5 -12.5t18.5 -4.5q15 -2 30 -4.5t29 -6.5q23 -6 38.5 -21t20.5 -40q1 -7 1 -14q0 -38 -35 -64q-25 -19 -50 -24t-47 -5q-8 0 -16 1q-17 1 -32.5 4.5t-31.5 8.5q-97 30 -136 123q-25 58 -25 114q0 8 2 43.5t47 95.5q41 54 85 71.5t82 17.5q24 0 50 -5
q41 -9 68.5 -34t35.5 -68q2 -12 2 -22q0 -16 -6.5 -35t-21.5 -42q-17 -26 -42 -43t-55 -26l-14 -4q-7 -2 -15 -4zM286 304v3q0 12 -7 20.5t-21 10.5q-4 1 -7 1q-7 0 -16 -3t-18 -9.5t-16 -15.5t-9 -19v-5q0 -10 6 -20.5t17 -13.5q2 -1 5 -1q7 0 16.5 4t21 12t19.5 17.5
t9 18.5zM245 515q2 30 20 48q4 3 8 7t9 3h32t30 -9q22 -15 17 -44q-3 -12 -10.5 -22t-18 -17.5t-22.5 -11t-24 -1.5q-20 2 -30.5 15t-10.5 32zM101 459q-21 1 -34.5 14.5t-12.5 33.5q1 11 6 22.5t12.5 20.5t16.5 15t18 6q23 0 41.5 -17t17.5 -39q-1 -23 -20 -39.5t-45 -16.5
z" />
    <glyph glyph-name="igrave" unicode="&#xec;" horiz-adv-x="240" 
d="M206 125q1 -20 -0.5 -39t-3.5 -39q-2 -16 -7.5 -31t-15 -27t-23 -19t-32.5 -7q-21 0 -36 9t-25.5 23.5t-16.5 32t-9 35.5q-5 23 -5 47t-2 48q-1 18 -1.5 36t2.5 36q3 17 10.5 34.5t19 32.5t27.5 24.5t35 9.5q21 0 35 -12t23 -29.5t13.5 -37.5t6.5 -36q2 -23 4 -45.5
t1 -45.5zM-16 531q0 25 14 36t36 5q16 -4 38.5 -22.5t42.5 -42t34.5 -49t14.5 -44.5q1 -23 -15 -36t-39 -8q-16 3 -37.5 21.5t-40.5 43.5t-33 51t-15 45z" />
    <glyph glyph-name="iacute" unicode="&#xed;" horiz-adv-x="240" 
d="M206 125q1 -20 -0.5 -39t-3.5 -39q-2 -16 -7.5 -31t-15 -27t-23 -19t-32.5 -7q-21 0 -36 9t-25.5 23.5t-16.5 32t-9 35.5q-5 23 -5 47t-2 48q-1 18 -1.5 36t2.5 36q3 17 10.5 34.5t19 32.5t27.5 24.5t35 9.5q21 0 35 -12t23 -29.5t13.5 -37.5t6.5 -36q2 -23 4 -45.5
t1 -45.5zM50 414q0 17 14.5 42.5t35.5 49.5t45 43t43 23q17 2 28.5 -6.5t13.5 -25.5q2 -11 0 -20.5t-6 -18.5q-17 -38 -42 -68t-57 -56q-14 -11 -29 -11q-21 0 -33.5 13.5t-12.5 34.5z" />
    <glyph glyph-name="icircumflex" unicode="&#xee;" horiz-adv-x="240" 
d="M206 125q1 -20 -0.5 -39t-3.5 -39q-2 -16 -7.5 -31t-15 -27t-23 -19t-32.5 -7q-21 0 -36 9t-25.5 23.5t-16.5 32t-9 35.5q-5 23 -5 47t-2 48q-1 18 -1.5 36t2.5 36q3 17 10.5 34.5t19 32.5t27.5 24.5t35 9.5q21 0 35 -12t23 -29.5t13.5 -37.5t6.5 -36q2 -23 4 -45.5
t1 -45.5zM120 417q-8 -5 -11 -11.5t-8 -12.5q-7 -8 -13.5 -15t-14.5 -13q-14 -8 -26 -8q-27 0 -35 33q-2 14 -1 26.5t4 25.5q8 32 22 61t32 56q8 14 22 20t28 6t27 -6t21 -18q21 -31 36.5 -63.5t22.5 -69.5q3 -22 -1 -40q-8 -31 -35 -31q-18 0 -32 13t-24 27q-3 5 -6.5 10
t-7.5 10z" />
    <glyph glyph-name="idieresis" unicode="&#xef;" horiz-adv-x="240" 
d="M206 125q1 -20 -0.5 -39t-3.5 -39q-2 -16 -7.5 -31t-15 -27t-23 -19t-32.5 -7q-21 0 -36 9t-25.5 23.5t-16.5 32t-9 35.5q-5 23 -5 47t-2 48q-1 18 -1.5 36t2.5 36q3 17 10.5 34.5t19 32.5t27.5 24.5t35 9.5q21 0 35 -12t23 -29.5t13.5 -37.5t6.5 -36q2 -23 4 -45.5
t1 -45.5zM165 415q2 30 20 48q4 3 8 7t9 3h32t30 -9q22 -15 17 -44q-3 -12 -10.5 -22t-18 -17.5t-22.5 -11t-24 -1.5q-20 2 -30.5 15t-10.5 32zM21 359q-21 1 -34.5 14.5t-12.5 33.5q1 11 6 22.5t12.5 20.5t16.5 15t18 6q23 0 41.5 -17t17.5 -39q-1 -23 -20 -39.5t-45 -16.5
z" />
    <glyph glyph-name="lslash" unicode="&#x142;" horiz-adv-x="294" 
d="M43 370q0 29 1.5 70t8.5 84q5 31 19 57q13 22 32 32.5t39 10.5t39 -11t32 -33q8 -12 12 -25.5t8 -27.5q6 -25 8.5 -49.5t4.5 -49.5q7 -81 7.5 -160t-5.5 -160q-2 -15 -5 -30.5t-10 -29.5q-16 -33 -45 -42.5t-61 7.5q-17 9 -29.5 23t-20.5 31q-14 29 -20 58.5t-9 59.5
q-5 42 -6 85t0 100zM123.253 372.717q30.4121 10.0059 60.6963 18.9004q30.2842 8.89551 61.2109 11.6387q12.3018 1.28516 24.1768 0.819336q11.876 -0.46582 23.0684 -4.90527q17.6006 -7.42773 21.917 -20.7539q4.31738 -13.3271 -4.73535 -29.3926
q-7.85742 -13.501 -23.6602 -25.6377q-15.8027 -12.1377 -34.6377 -23.25q-18.8359 -11.1123 -37.5869 -19.5342q-18.751 -8.4209 -31.9072 -13.21q-15.0352 -5.47266 -35.2812 -11.2461q-20.2471 -5.77246 -41.5186 -8.72754q-21.2725 -2.9541 -41.5205 -2.875
t-36.8223 4.6875q-43.7451 14.9375 -20.1738 55.4424q11.7861 20.252 33.3135 31.2803q20.5869 10.6855 42.0293 19.0225q21.4414 8.33691 41.4316 17.7412z" />
    <glyph glyph-name="ntilde" unicode="&#xf1;" horiz-adv-x="552" 
d="M228 405q8 3 12.5 8t9.5 9q36 27 75 36.5t84 -5.5q65 -21 86 -84q4 -11 6.5 -23t4.5 -23q4 -25 8.5 -49.5t4.5 -49.5q0 -51 -4.5 -100.5t-26.5 -97.5q-7 -15 -16 -29t-21 -25q-13 -12 -28.5 -19t-34.5 -5q-25 2 -43 17t-23 41q-2 7 -3 13.5t0 13.5q2 33 -1 66t-1 66
q1 20 3.5 40t2.5 40q0 12 -3.5 20.5t-14.5 14.5q-11 5 -19.5 1.5t-16.5 -10.5q-14 -13 -22.5 -28t-8.5 -35q0 -34 -0.5 -67.5t-5.5 -66.5q-2 -22 -8.5 -42t-20.5 -37t-30.5 -28t-38.5 -14q-33 -5 -55 12.5t-27 51.5l-4 42t-2 42q-1 53 -1 105t3 105q1 25 3.5 49t10.5 47
q5 20 14.5 37.5t24.5 31.5q28 26 56.5 22t48.5 -36q8 -13 12.5 -27.5t9.5 -29.5zM359 500q-31 2 -59 15l-24 12q-7 3 -13 5t-13 2q-12 0 -26 -9q-8 -5 -16.5 -8.5t-18.5 -5.5q-13 -2 -24 1.5t-19 15.5q-8 11 -7.5 25.5t8.5 25.5q14 20 36 31.5t46 11.5q20 0 35 -7
q14 -5 26.5 -11.5t25.5 -12.5q8 -4 14.5 -6.5t13.5 -2.5q17 0 33 17q13 13 29 17q5 2 10 3t10 1q13 0 22 -9q19 -18 11 -44q-4 -16 -14.5 -28t-24.5 -20.5t-30 -13t-31 -5.5z" />
    <glyph glyph-name="ograve" unicode="&#xf2;" horiz-adv-x="480" 
d="M458 255q0 -98 -54 -176q-29 -42 -69 -67.5t-90 -36.5q-22 -5 -43 -5q-16 0 -41 4.5t-53.5 23t-47.5 48.5t-26 69q-6 34 -6 66q0 48 17 107t77 122q42 45 77 52t55 7q33 0 68 -10q55 -15 85.5 -53t44.5 -92q4 -15 5 -30t1 -29zM277 236q0 8 -1 15t-4 14q-8 19 -22 19
q-9 0 -20 -8q-19 -13 -27 -35t-8 -38q0 -8 2 -16q5 -21 14.5 -23.5t13.5 -2.5q12 0 25 12q13 13 19 29t8 34zM108 643q0 25 14 36t36 5q16 -4 38.5 -22.5t42.5 -42t34.5 -49t14.5 -44.5q1 -23 -15 -36t-39 -8q-16 3 -37.5 21.5t-40.5 43.5t-33 51t-15 45z" />
    <glyph glyph-name="oacute" unicode="&#xf3;" horiz-adv-x="480" 
d="M458 255q0 -98 -54 -176q-29 -42 -69 -67.5t-90 -36.5q-22 -5 -43 -5q-16 0 -41 4.5t-53.5 23t-47.5 48.5t-26 69q-6 34 -6 66q0 48 17 107t77 122q42 45 77 52t55 7q33 0 68 -10q55 -15 85.5 -53t44.5 -92q4 -15 5 -30t1 -29zM277 236q0 8 -1 15t-4 14q-8 19 -22 19
q-9 0 -20 -8q-19 -13 -27 -35t-8 -38q0 -8 2 -16q5 -21 14.5 -23.5t13.5 -2.5q12 0 25 12q13 13 19 29t8 34zM205 527q0 17 14.5 42.5t35.5 49.5t45 43t43 23q17 2 28.5 -6.5t13.5 -25.5q2 -11 0 -20.5t-6 -18.5q-17 -38 -42 -68t-57 -56q-14 -11 -29 -11q-21 0 -33.5 13.5
t-12.5 34.5z" />
    <glyph glyph-name="ocircumflex" unicode="&#xf4;" horiz-adv-x="480" 
d="M458 255q0 -98 -54 -176q-29 -42 -69 -67.5t-90 -36.5q-22 -5 -43 -5q-16 0 -41 4.5t-53.5 23t-47.5 48.5t-26 69q-6 34 -6 66q0 48 17 107t77 122q42 45 77 52t55 7q33 0 68 -10q55 -15 85.5 -53t44.5 -92q4 -15 5 -30t1 -29zM277 236q0 8 -1 15t-4 14q-8 19 -22 19
q-9 0 -20 -8q-19 -13 -27 -35t-8 -38q0 -8 2 -16q5 -21 14.5 -23.5t13.5 -2.5q12 0 25 12q13 13 19 29t8 34zM257 534q-8 -5 -11 -11.5t-8 -12.5q-7 -8 -13.5 -15t-14.5 -13q-14 -8 -26 -8q-27 0 -35 33q-2 14 -1 26.5t4 25.5q8 32 22 61t32 56q8 14 22 20t28 6t27 -6
t21 -18q21 -31 36.5 -63.5t22.5 -69.5q3 -22 -1 -40q-8 -31 -35 -31q-18 0 -32 13t-24 27q-3 5 -6.5 10t-7.5 10z" />
    <glyph glyph-name="otilde" unicode="&#xf5;" horiz-adv-x="480" 
d="M458 255q0 -98 -54 -176q-29 -42 -69 -67.5t-90 -36.5q-22 -5 -43 -5q-16 0 -41 4.5t-53.5 23t-47.5 48.5t-26 69q-6 34 -6 66q0 48 17 107t77 122q42 45 77 52t55 7q33 0 68 -10q55 -15 85.5 -53t44.5 -92q4 -15 5 -30t1 -29zM277 236q0 8 -1 15t-4 14q-8 19 -22 19
q-9 0 -20 -8q-19 -13 -27 -35t-8 -38q0 -8 2 -16q5 -21 14.5 -23.5t13.5 -2.5q12 0 25 12q13 13 19 29t8 34zM309 488q-31 2 -59 15l-24 12q-7 3 -13 5t-13 2q-12 0 -26 -9q-8 -5 -16.5 -8.5t-18.5 -5.5q-13 -2 -24 1.5t-19 15.5q-8 11 -7.5 25.5t8.5 25.5q14 20 36 31.5
t46 11.5q20 0 35 -7q14 -5 26.5 -11.5t25.5 -12.5q8 -4 14.5 -6.5t13.5 -2.5q17 0 33 17q13 13 29 17q5 2 10 3t10 1q13 0 22 -9q19 -18 11 -44q-4 -16 -14.5 -28t-24.5 -20.5t-30 -13t-31 -5.5z" />
    <glyph glyph-name="odieresis" unicode="&#xf6;" horiz-adv-x="480" 
d="M458 255q0 -98 -54 -176q-29 -42 -69 -67.5t-90 -36.5q-22 -5 -43 -5q-16 0 -41 4.5t-53.5 23t-47.5 48.5t-26 69q-6 34 -6 66q0 48 17 107t77 122q42 45 77 52t55 7q33 0 68 -10q55 -15 85.5 -53t44.5 -92q4 -15 5 -30t1 -29zM277 236q0 8 -1 15t-4 14q-8 19 -22 19
q-9 0 -20 -8q-19 -13 -27 -35t-8 -38q0 -8 2 -16q5 -21 14.5 -23.5t13.5 -2.5q12 0 25 12q13 13 19 29t8 34zM277 538q2 30 20 48q4 3 8 7t9 3h32t30 -9q22 -15 17 -44q-3 -12 -10.5 -22t-18 -17.5t-22.5 -11t-24 -1.5q-20 2 -30.5 15t-10.5 32zM133 482q-21 1 -34.5 14.5
t-12.5 33.5q1 11 6 22.5t12.5 20.5t16.5 15t18 6q23 0 41.5 -17t17.5 -39q-1 -23 -20 -39.5t-45 -16.5z" />
    <glyph glyph-name="oslash" unicode="&#xf8;" horiz-adv-x="480" 
d="M458 255q0 -98 -54 -176q-29 -42 -69 -67.5t-90 -36.5q-22 -5 -43 -5q-16 0 -41 4.5t-53.5 23t-47.5 48.5t-26 69q-6 34 -6 66q0 48 17 107t77 122q42 45 77 52t55 7q33 0 68 -10q55 -15 85.5 -53t44.5 -92q4 -15 5 -30t1 -29zM277 236q0 8 -1 15t-4 14q-8 19 -22 19
q-9 0 -20 -8q-19 -13 -27 -35t-8 -38q0 -8 2 -16q5 -21 14.5 -23.5t13.5 -2.5q12 0 25 12q13 13 19 29t8 34zM425 471q0 -18 -14.5 -54.5t-37.5 -82t-51 -95t-54.5 -94.5t-48.5 -80.5t-33 -52.5q-7 -12 -17.5 -26.5t-23.5 -27.5t-27 -22.5t-29 -12.5q-20 -4 -35.5 6.5
t-19.5 31.5q-3 14 -1 24q5 18 8.5 35.5t9.5 34.5q11 27 30.5 70.5t44.5 94t55 102.5t61.5 95.5t63.5 74t62 38.5q27 5 43 -9.5t14 -49.5z" />
    </font>
</defs>
</svg>
